<svg version="1.1" xmlns="http://www.w3.org/2000/svg" xmlns:xlink="http://www.w3.org/1999/xlink" width="1968" height="716" viewBox="0 0 1968 716"><defs/><g transform="matrix(1,0,0,1,0,0)"><g><g><g><path fill="none" stroke="#d3d3d3" paint-order="fill stroke markers" d=" M 0 0 L 1200 0" stroke-miterlimit="10" stroke-opacity="0.8" stroke-dasharray="5"/></g><g><path fill="none" stroke="#d3d3d3" paint-order="fill stroke markers" d=" M 0 0 L 0 800" stroke-miterlimit="10" stroke-opacity="0.8" stroke-dasharray="5"/></g></g><g id="_0E0C2316-592E-410E-B6D9-CB968B8E278B" bpmn2nodeid="_0E0C2316-592E-410E-B6D9-CB968B8E278B" transform="matrix(1,0,0,1,161,53)"><g><path fill="none" stroke="none"/></g><g transform="matrix(1,0,0,1,0,0)"><path fill="#f2f2f2" stroke="none" id="_0E0C2316-592E-410E-B6D9-CB968B8E278B?shapeType=BACKGROUND" paint-order="stroke fill markers" d=" M 0 0 L 650 0 L 650 250 L 0 250 L 0 0 Z Z"/></g><g transform="matrix(1,0,0,1,0,0)"><path fill="none" stroke="#000000" id="_0E0C2316-592E-410E-B6D9-CB968B8E278B?shapeType=BORDER&amp;renderType=STROKE" paint-order="fill stroke markers" d=" M 0 0 L 650 0 L 650 250 L 0 250 L 0 0 Z Z" stroke-miterlimit="10" stroke-width="0.5" stroke-dasharray=""/></g><g transform="matrix(-1.8369701987210297e-16,-1,1,-1.8369701987210297e-16,0,125)"/><g id="_728EBFF4-97D9-4E85-9B84-93926561744C" bpmn2nodeid="_728EBFF4-97D9-4E85-9B84-93926561744C" transform="matrix(1,0,0,1,34,64.5)"><g><path fill="none" stroke="none"/></g><g transform="matrix(1,0,0,1,0,0)"><path fill="#ffffff" stroke="none" id="_728EBFF4-97D9-4E85-9B84-93926561744C?shapeType=BACKGROUND" paint-order="stroke fill markers" d=" M 2 0 L 114 0 L 114 0 A 2 2 0 0 1 116 2 L 116 75 L 116 75 A 2 2 0 0 1 114 77 L 2 77 L 2 77 A 2 2 0 0 1 0 75 L 0 2 L 0 2.0000000000000004 A 2 2 0 0 1 1.9999999999999996 0 Z"/></g><g transform="matrix(1,0,0,1,0,0)"><path fill="none" stroke="#000000" id="_728EBFF4-97D9-4E85-9B84-93926561744C?shapeType=BORDER&amp;renderType=STROKE" paint-order="fill stroke markers" d=" M 2 0 L 114 0 L 114 0 A 2 2 0 0 1 116 2 L 116 75 L 116 75 A 2 2 0 0 1 114 77 L 2 77 L 2 77 A 2 2 0 0 1 0 75 L 0 2 L 0 2.0000000000000004 A 2 2 0 0 1 1.9999999999999996 0 Z" stroke-miterlimit="10" stroke-width="1.5" stroke-dasharray=""/></g><g><g transform="matrix(0.06,0,0,0.06,9.4,9.4)"><g transform="matrix(1,0,0,1,0,0)"><path fill="#393f44" stroke="none" id="_728EBFF4-97D9-4E85-9B84-93926561744C_task__kr51__x4SI" paint-order="stroke fill markers" d=" M 0 0 M 16 445.2101 C 16 440.86867 18.784312 431.12906000000004 22.001325 424.21728 C 35.767643 394.6402 77.282944 359.28049 129 333.08362 C 144.51625 325.22398 157.34689 319.96394 167.80739 317.17416 C 171.93153 316.07426 175.72913 314.41389999999996 176.5251 313.36265 C 178.89361 310.23449999999997 180.91404 302.90781 181.72673 294.5 L 182.5 286.5 L 178.50715 283.45457 C 166.30327 274.14645 154.2837 251.67767 148.03953 226.5 C 145.61086 216.70715 145.05603000000002 215.46246 142.98364 215.1579 C 141.70332000000002 214.96974 138.08302 212.24302 134.93852 209.09852 C 123.23314 197.39314000000002 116.89146000000001 177.37556 121.43982000000001 166.48978 C 123.00204000000001 162.75088 128.15457 159.00970999999998 131.75 159.00374 C 134.44781 158.99974 134.47062 158.60296 132.91375 138.78796 C 130.92658 113.4962 134.27903 92.26542699999999 143.13217 74.075676 C 152.23162 55.379835 167.56889 42.88208 189.04934 36.659507000000005 C 210.20334 30.531504000000005 237.79666 30.531504000000005 258.95065999999997 36.659507000000005 C 300.04166 48.562968000000005 318.95842 83.80634 314.95504999999997 141 C 314.31982999999997 150.075 313.62402 157.78816 313.4088 158.14035 C 313.19359 158.49254000000002 314.57532 159.07295000000002 316.47931 159.43014000000002 C 328.92867 161.76565000000002 330.98619 177.01772000000003 321.49638 196.62092 C 316.90319 206.10912000000002 309.35724 214.50797 304.81732 215.18517000000003 C 303.02259 215.45289000000002 302.2931 217.14618000000002 299.94277999999997 226.50000000000003 C 296.65948 239.56693 294.47402 245.30522000000002 287.94764 257.99534000000006 C 282.49071999999995 268.60596000000004 273.03466 281.10922000000005 268.10756999999995 284.2288300000001 L 264.87062 286.27832000000006 L 265.51815999999997 292.88916000000006 C 266.34490999999997 301.32961000000006 268.63948999999997 309.8706000000001 270.87735999999995 312.83742000000007 C 272.06735 314.4150200000001 275.00244999999995 315.78963000000005 280.0630699999999 317.13941000000005 C 291.06929999999994 320.0750300000001 303.61700999999994 325.27420000000006 320.99999999999994 334.10171 C 369.81470999999993 358.89104000000003 410.84810999999996 393.75797 425.03216 422.5 C 429.06985999999995 430.68183 432 440.23198 432 445.2101 L 432 448 L 224 448 L 16 448 L 16 445.2101 Z"/></g></g></g><g transform="matrix(1,0,0,1,-14.960000000000008,-11.319999999999993)"><g transform="matrix(0.04,0,0,0.04,63.36,69.12)"><g transform="matrix(1,0,0,1,0,0)"><path fill="none" stroke="none"/></g><g transform="matrix(1,0,0,1,0,0)"><path fill="none" stroke="none"/></g></g></g><g transform="matrix(1,0,0,1,35,23.5)"><text fill="#000000" stroke="none" font-family="Open Sans" font-size="12pt" font-style="normal" font-weight="normal" text-decoration="normal" x="33.16796875" y="12" text-anchor="middle" dominant-baseline="alphabetic">   Farm    </text><text fill="#000000" stroke="none" font-family="Open Sans" font-size="12pt" font-style="normal" font-weight="normal" text-decoration="normal" x="33.16796875" y="27" text-anchor="middle" dominant-baseline="alphabetic">Manager</text></g></g><g id="_0823C631-2F57-4E1E-8E97-2E02F3E7CDB6" bpmn2nodeid="_0823C631-2F57-4E1E-8E97-2E02F3E7CDB6" transform="matrix(1,0,0,1,205,52)"><g><path fill="none" stroke="none"/></g><g transform="matrix(1,0,0,1,0,0)"><path fill="#ffffff" stroke="none" id="_0823C631-2F57-4E1E-8E97-2E02F3E7CDB6?shapeType=BACKGROUND" paint-order="stroke fill markers" d=" M 2 0 L 152 0 L 152 0 A 2 2 0 0 1 154 2 L 154 100 L 154 100 A 2 2 0 0 1 152 102 L 2 102 L 2 102 A 2 2 0 0 1 0 100 L 0 2 L 0 2.0000000000000004 A 2 2 0 0 1 1.9999999999999996 0 Z"/></g><g transform="matrix(1,0,0,1,0,0)"><path fill="none" stroke="#000000" id="_0823C631-2F57-4E1E-8E97-2E02F3E7CDB6?shapeType=BORDER&amp;renderType=STROKE" paint-order="fill stroke markers" d=" M 2 0 L 152 0 L 152 0 A 2 2 0 0 1 154 2 L 154 100 L 154 100 A 2 2 0 0 1 152 102 L 2 102 L 2 102 A 2 2 0 0 1 0 100 L 0 2 L 0 2.0000000000000004 A 2 2 0 0 1 1.9999999999999996 0 Z" stroke-miterlimit="10" stroke-width="1.5" stroke-dasharray=""/></g><g transform="matrix(1,0,0,1,28.515625,36)"><text fill="#000000" stroke="none" font-family="Open Sans" font-size="12pt" font-style="normal" font-weight="normal" text-decoration="normal" x="48.484375" y="12" text-anchor="middle" dominant-baseline="alphabetic">Initiate Crop </text><text fill="#000000" stroke="none" font-family="Open Sans" font-size="12pt" font-style="normal" font-weight="normal" text-decoration="normal" x="48.484375" y="27" text-anchor="middle" dominant-baseline="alphabetic">Maintenance</text></g></g><g id="_AC881243-213C-442B-8A70-6F95D3DCFC05" bpmn2nodeid="_AC881243-213C-442B-8A70-6F95D3DCFC05" transform="matrix(1,0,0,1,514,78)"><g><path fill="none" stroke="none"/></g><g transform="matrix(0.125,0,0,0.125,0,0)"><g transform="matrix(1,0,0,1,0,0)"><path fill="#fef4ea" stroke="none" id="_AC881243-213C-442B-8A70-6F95D3DCFC05?shapeType=BACKGROUND" paint-order="stroke fill markers" d=" M 0 0 M 224.4 4.3 C 216.4 4.3 208.4 7.3 202.3 13.399999999999999 L 13.5 202.2 C 1.3000000000000007 214.39999999999998 1.3000000000000007 234.2 13.5 246.39999999999998 L 202.2 435.09999999999997 C 208.29999999999998 441.2 216.39999999999998 444.2 224.29999999999998 444.2 C 232.2 444.2 240.29999999999998 441.2 246.39999999999998 435.09999999999997 L 435.09999999999997 246.39999999999998 C 447.29999999999995 234.2 447.29999999999995 214.39999999999998 435.09999999999997 202.2 L 246.5 13.4 C 240.4 7.3 232.4 4.3 224.4 4.3 L 224.4 4.3 Z"/></g><g><g transform="matrix(1,0,0,1,0,0)"><g transform="matrix(1,0,0,1,0,0)"><path fill="#ec7a08" stroke="none" id="_AC881243-213C-442B-8A70-6F95D3DCFC05?shapeType=BORDER&amp;renderType=FILL" paint-order="stroke fill markers" d=" M 0 0 M 20.8 212.7 L 213.3 20.2 C 219.60000000000002 13.899999999999999 229.70000000000002 13.899999999999999 235.9 20.2 L 428.4 212.7 C 434.7 219 434.7 229.1 428.4 235.29999999999998 L 235.9 427.8 C 229.6 434.1 219.5 434.1 213.3 427.8 L 20.8 235.3 C 14.5 229.1 14.5 218.9 20.8 212.7 L 20.8 212.7 Z M 0 0 M 0 224 C 0 232.1 3.1 240.3 9.3 246.5 L 201.5 438.7 C 213.9 451.09999999999997 234.1 451.09999999999997 246.5 438.7 L 438.7 246.5 C 444.9 240.3 448 232.1 448 224 C 448 215.9 444.9 207.7 438.7 201.5 L 246.5 9.3 C 234.1 -3.0999999999999996 213.9 -3.0999999999999996 201.5 9.3 L 9.3 201.5 C 3.1 207.7 0 215.9 0 224 L 0 224 Z"/></g></g></g><g><g transform="matrix(1,0,0,1,0,0)"><g transform="matrix(1,0,0,1,0,0)"><path fill="#ec7a08" stroke="none" id="_AC881243-213C-442B-8A70-6F95D3DCFC05_exclusive" paint-order="stroke fill markers" d=" M 0 0 M 298.2 269.2 C 298.2 272.59999999999997 297.09999999999997 275.3 294.7 277.7 L 277.7 294.7 C 275.3 297.09999999999997 272.59999999999997 298.2 269.2 298.2 C 265.8 298.2 263.09999999999997 297.09999999999997 260.7 294.7 L 224 258 L 187.2 294.8 C 184.79999999999998 297.2 182.1 298.3 178.7 298.3 C 175.29999999999998 298.3 172.6 297.2 170.2 294.8 L 153.2 277.8 C 150.79999999999998 275.40000000000003 149.7 272.7 149.7 269.3 C 149.7 265.90000000000003 150.79999999999998 263.2 153.2 260.8 L 190 224 L 153.2 187.2 C 150.79999999999998 184.79999999999998 149.7 182 149.7 178.7 C 149.7 175.29999999999998 150.79999999999998 172.5 153.2 170.2 L 170.2 153.2 C 172.6 150.79999999999998 175.29999999999998 149.7 178.7 149.7 C 182.1 149.7 184.79999999999998 150.79999999999998 187.2 153.2 L 224 190 L 260.8 153.2 C 263.2 150.79999999999998 265.90000000000003 149.7 269.3 149.7 C 272.7 149.7 275.40000000000003 150.79999999999998 277.8 153.2 L 294.8 170.2 C 297.2 172.5 298.3 175.29999999999998 298.3 178.7 C 298.3 182 297.2 184.79999999999998 294.8 187.2 L 258 224 L 294.8 260.8 C 297.1 263.1 298.2 265.9 298.2 269.2 Z"/></g></g></g></g><g transform="matrix(1,0,0,1,-63.56640625,61)"><text fill="#000000" stroke="none" font-family="Open Sans" font-size="12pt" font-style="normal" font-weight="normal" text-decoration="normal" x="91.56640625" y="12" text-anchor="middle" dominant-baseline="alphabetic">Approve Crop Condition </text><text fill="#000000" stroke="none" font-family="Open Sans" font-size="12pt" font-style="normal" font-weight="normal" text-decoration="normal" x="91.56640625" y="27" text-anchor="middle" dominant-baseline="alphabetic">       Monitoring Plan        </text></g></g></g><g transform="matrix(1,0,0,1,161,53)"/><g transform="matrix(1,0,0,1,195,117.5)"/><g transform="matrix(1,0,0,1,366,105)"/><g transform="matrix(1,0,0,1,675,131)"/><g id="_4D71ED4C-2951-4C31-B970-50508D27A60F" bpmn2nodeid="_4D71ED4C-2951-4C31-B970-50508D27A60F" transform="matrix(1,0,0,1,161,363.5)"><g><path fill="none" stroke="none"/></g><g transform="matrix(1,0,0,1,0,0)"><path fill="#f2f2f2" stroke="none" id="_4D71ED4C-2951-4C31-B970-50508D27A60F?shapeType=BACKGROUND" paint-order="stroke fill markers" d=" M 0 0 L 1165 0 L 1165 249 L 0 249 L 0 0 Z Z"/></g><g transform="matrix(1,0,0,1,0,0)"><path fill="none" stroke="#000000" id="_4D71ED4C-2951-4C31-B970-50508D27A60F?shapeType=BORDER&amp;renderType=STROKE" paint-order="fill stroke markers" d=" M 0 0 L 1165 0 L 1165 249 L 0 249 L 0 0 Z Z" stroke-miterlimit="10" stroke-width="0.5" stroke-dasharray=""/></g><g transform="matrix(-1.8369701987210297e-16,-1,1,-1.8369701987210297e-16,0,124.5)"/><g id="_84379631-8271-4E31-9633-FB3BB4F3311D" bpmn2nodeid="_84379631-8271-4E31-9633-FB3BB4F3311D" transform="matrix(1,0,0,1,236,90)"><g><path fill="none" stroke="none"/></g><g transform="matrix(1,0,0,1,0,0)"><path fill="#ffffff" stroke="none" id="_84379631-8271-4E31-9633-FB3BB4F3311D?shapeType=BACKGROUND" paint-order="stroke fill markers" d=" M 2 0 L 152 0 L 152 0 A 2 2 0 0 1 154 2 L 154 100 L 154 100 A 2 2 0 0 1 152 102 L 2 102 L 2 102 A 2 2 0 0 1 0 100 L 0 2 L 0 2.0000000000000004 A 2 2 0 0 1 1.9999999999999996 0 Z"/></g><g transform="matrix(1,0,0,1,0,0)"><path fill="none" stroke="#000000" id="_84379631-8271-4E31-9633-FB3BB4F3311D?shapeType=BORDER&amp;renderType=STROKE" paint-order="fill stroke markers" d=" M 2 0 L 152 0 L 152 0 A 2 2 0 0 1 154 2 L 154 100 L 154 100 A 2 2 0 0 1 152 102 L 2 102 L 2 102 A 2 2 0 0 1 0 100 L 0 2 L 0 2.0000000000000004 A 2 2 0 0 1 1.9999999999999996 0 Z" stroke-miterlimit="10" stroke-width="1.5" stroke-dasharray=""/></g><g transform="matrix(1,0,0,1,17.49609375,28.5)"><text fill="#000000" stroke="none" font-family="Open Sans" font-size="12pt" font-style="normal" font-weight="normal" text-decoration="normal" x="59.50390625" y="12" text-anchor="middle" dominant-baseline="alphabetic">Create/Update  </text><text fill="#000000" stroke="none" font-family="Open Sans" font-size="12pt" font-style="normal" font-weight="normal" text-decoration="normal" x="59.50390625" y="27" text-anchor="middle" dominant-baseline="alphabetic">Crop Condition  </text><text fill="#000000" stroke="none" font-family="Open Sans" font-size="12pt" font-style="normal" font-weight="normal" text-decoration="normal" x="59.50390625" y="42" text-anchor="middle" dominant-baseline="alphabetic">Monitoring Plan</text></g></g><g id="_C4161BAF-A92A-4FAC-9B18-B0D0863AF4DD" bpmn2nodeid="_C4161BAF-A92A-4FAC-9B18-B0D0863AF4DD" transform="matrix(1,0,0,1,638,100)"><g><path fill="none" stroke="none"/></g><g transform="matrix(1,0,0,1,0,0)"><path fill="#ffffff" stroke="none" id="_C4161BAF-A92A-4FAC-9B18-B0D0863AF4DD?shapeType=BACKGROUND" paint-order="stroke fill markers" d=" M 2 0 L 130 0 L 130 0 A 2 2 0 0 1 132 2 L 132 79 L 132 79 A 2 2 0 0 1 130 81 L 2 81 L 2 81 A 2 2 0 0 1 0 79 L 0 2 L 0 2.0000000000000004 A 2 2 0 0 1 1.9999999999999996 0 Z"/></g><g transform="matrix(1,0,0,1,0,0)"><path fill="none" stroke="#393f44" id="_C4161BAF-A92A-4FAC-9B18-B0D0863AF4DD?shapeType=BORDER&amp;renderType=STROKE" paint-order="fill stroke markers" d=" M 2 0 L 130 0 L 130 0 A 2 2 0 0 1 132 2 L 132 79 L 132 79 A 2 2 0 0 1 130 81 L 2 81 L 2 81 A 2 2 0 0 1 0 79 L 0 2 L 0 2.0000000000000004 A 2 2 0 0 1 1.9999999999999996 0 Z" stroke-miterlimit="10" stroke-width="5" stroke-dasharray=""/></g><g transform="matrix(1,0,0,1,-9.5,-10)"><g transform="matrix(1,0,0,1,0,0)"><g transform="matrix(1,0,0,1,63,66)"><path fill="none" stroke="#393f44" id="_C4161BAF-A92A-4FAC-9B18-B0D0863AF4DD_subProcessReusableNormalBoundingBox" paint-order="fill stroke markers" d=" M 0 0 L 25 0 L 25 25 L 0 25 L 0 0 Z Z" stroke-miterlimit="10" stroke-width="1.5" stroke-dasharray=""/></g><g transform="matrix(0.04,0,0,0.04,68.64,69.6)"><path fill="#000000" stroke="#000000" id="_C4161BAF-A92A-4FAC-9B18-B0D0863AF4DD_subProcessReusableNormalReusableIcon" paint-order="fill stroke markers" d=" M 0 0 M 352 184 L 352 232 C 352 238.7 349.7 244.3 345 249 C 340.3 253.7 334.7 256 328 256 L 224 256 L 224 360 C 224 366.7 221.7 372.3 217 377 C 212.3 381.7 206.7 384 200 384 L 152 384 C 145.3 384 139.7 381.7 135 377 C 130.3 372.3 128 366.7 128 360 L 128 256 L 24 256 C 17.3 256 11.7 253.7 7 249 C 2.3000000000000007 244.3 0 238.7 0 232 L 0 184 C 0 177.3 2.3 171.7 7 167 C 11.7 162.3 17.3 160 24 160 L 128 160 L 128 56 C 128 49.3 130.3 43.7 135 39 C 139.7 34.3 145.3 32 152 32 L 200 32 C 206.7 32 212.3 34.3 217 39 C 221.7 43.7 224 49.3 224 56 L 224 160 L 328 160 C 334.7 160 340.3 162.3 345 167 C 349.7 171.7 352 177.3 352 184 Z" stroke-miterlimit="10" stroke-dasharray=""/></g></g></g><g transform="matrix(1,0,0,1,2.3200000000000003,-10)"><g transform="matrix(1,0,0,1,0,0)"><g transform="matrix(1,0,0,1,63,66)"><path fill="none" stroke="none"/></g><g transform="matrix(0.04,0,0,0.04,68.64,69.6)"><path fill="none" stroke="none"/></g><g transform="matrix(0.04,0,0,0.04,40.32,71.04)"><path fill="none" stroke="none"/></g><g transform="matrix(0.04,0,0,0.04,39.36,72)"><path fill="none" stroke="none"/></g></g></g><g transform="matrix(1,0,0,1,7.65234375,25.5)"><text fill="#000000" stroke="none" font-family="Open Sans" font-size="12pt" font-style="normal" font-weight="normal" text-decoration="normal" x="58.34765625" y="12" text-anchor="middle" dominant-baseline="alphabetic">Crop Condition </text><text fill="#000000" stroke="none" font-family="Open Sans" font-size="12pt" font-style="normal" font-weight="normal" text-decoration="normal" x="58.34765625" y="27" text-anchor="middle" dominant-baseline="alphabetic">    Monitoring    </text></g></g><g id="_98423AE4-39F8-4B12-B227-794CAA3EDFB0" bpmn2nodeid="_98423AE4-39F8-4B12-B227-794CAA3EDFB0" transform="matrix(1,0,0,1,996,88.5)"><g><path fill="none" stroke="none"/></g><g transform="matrix(1,0,0,1,0,0)"><path fill="#ffffff" stroke="none" id="_98423AE4-39F8-4B12-B227-794CAA3EDFB0?shapeType=BACKGROUND" paint-order="stroke fill markers" d=" M 2 0 L 152 0 L 152 0 A 2 2 0 0 1 154 2 L 154 100 L 154 100 A 2 2 0 0 1 152 102 L 2 102 L 2 102 A 2 2 0 0 1 0 100 L 0 2 L 0 2.0000000000000004 A 2 2 0 0 1 1.9999999999999996 0 Z"/></g><g transform="matrix(1,0,0,1,0,0)"><path fill="none" stroke="#393f44" id="_98423AE4-39F8-4B12-B227-794CAA3EDFB0?shapeType=BORDER&amp;renderType=STROKE" paint-order="fill stroke markers" d=" M 2 0 L 152 0 L 152 0 A 2 2 0 0 1 154 2 L 154 100 L 154 100 A 2 2 0 0 1 152 102 L 2 102 L 2 102 A 2 2 0 0 1 0 100 L 0 2 L 0 2.0000000000000004 A 2 2 0 0 1 1.9999999999999996 0 Z" stroke-miterlimit="10" stroke-width="5" stroke-dasharray=""/></g><g transform="matrix(1,0,0,1,1.5,11)"><g transform="matrix(1,0,0,1,0,0)"><g transform="matrix(1,0,0,1,63,66)"><path fill="none" stroke="#393f44" id="_98423AE4-39F8-4B12-B227-794CAA3EDFB0_subProcessReusableNormalBoundingBox" paint-order="fill stroke markers" d=" M 0 0 L 25 0 L 25 25 L 0 25 L 0 0 Z Z" stroke-miterlimit="10" stroke-width="1.5" stroke-dasharray=""/></g><g transform="matrix(0.04,0,0,0.04,68.64,69.6)"><path fill="#000000" stroke="#000000" id="_98423AE4-39F8-4B12-B227-794CAA3EDFB0_subProcessReusableNormalReusableIcon" paint-order="fill stroke markers" d=" M 0 0 M 352 184 L 352 232 C 352 238.7 349.7 244.3 345 249 C 340.3 253.7 334.7 256 328 256 L 224 256 L 224 360 C 224 366.7 221.7 372.3 217 377 C 212.3 381.7 206.7 384 200 384 L 152 384 C 145.3 384 139.7 381.7 135 377 C 130.3 372.3 128 366.7 128 360 L 128 256 L 24 256 C 17.3 256 11.7 253.7 7 249 C 2.3000000000000007 244.3 0 238.7 0 232 L 0 184 C 0 177.3 2.3 171.7 7 167 C 11.7 162.3 17.3 160 24 160 L 128 160 L 128 56 C 128 49.3 130.3 43.7 135 39 C 139.7 34.3 145.3 32 152 32 L 200 32 C 206.7 32 212.3 34.3 217 39 C 221.7 43.7 224 49.3 224 56 L 224 160 L 328 160 C 334.7 160 340.3 162.3 345 167 C 349.7 171.7 352 177.3 352 184 Z" stroke-miterlimit="10" stroke-dasharray=""/></g></g></g><g transform="matrix(1,0,0,1,13.32,11)"><g transform="matrix(1,0,0,1,0,0)"><g transform="matrix(1,0,0,1,63,66)"><path fill="none" stroke="none"/></g><g transform="matrix(0.04,0,0,0.04,68.64,69.6)"><path fill="none" stroke="none"/></g><g transform="matrix(0.04,0,0,0.04,40.32,71.04)"><path fill="none" stroke="none"/></g><g transform="matrix(0.04,0,0,0.04,39.36,72)"><path fill="none" stroke="none"/></g></g></g><g transform="matrix(1,0,0,1,13.33984375,28.5)"><text fill="#000000" stroke="none" font-family="Open Sans" font-size="12pt" font-style="normal" font-weight="normal" text-decoration="normal" x="63.66015625" y="12" text-anchor="middle" dominant-baseline="alphabetic">Share/Save Crop </text><text fill="#000000" stroke="none" font-family="Open Sans" font-size="12pt" font-style="normal" font-weight="normal" text-decoration="normal" x="63.66015625" y="27" text-anchor="middle" dominant-baseline="alphabetic">      Condition       </text><text fill="#000000" stroke="none" font-family="Open Sans" font-size="12pt" font-style="normal" font-weight="normal" text-decoration="normal" x="63.66015625" y="42" text-anchor="middle" dominant-baseline="alphabetic"> Monitoring Plan </text></g></g><g id="_FDE9FABC-7D01-4D0F-A95B-B4AF7337BE3D" bpmn2nodeid="_FDE9FABC-7D01-4D0F-A95B-B4AF7337BE3D" transform="matrix(1,0,0,1,145,-53.5)"><g><path fill="none" stroke="none"/></g><g transform="matrix(1,0,0,1,0,0)"><path fill="#ffffff" stroke="none" id="_FDE9FABC-7D01-4D0F-A95B-B4AF7337BE3D?shapeType=BACKGROUND" paint-order="stroke fill markers" d=" M 2 0 L 96 0 L 96 0 A 2 2 0 0 1 98 2 L 98 43 L 98 43 A 2 2 0 0 1 96 45 L 2 45 L 2 45 A 2 2 0 0 1 0 43 L 0 2 L 0 2.0000000000000004 A 2 2 0 0 1 1.9999999999999996 0 Z"/></g><g transform="matrix(1,0,0,1,0,0)"><path fill="none" stroke="#000000" id="_FDE9FABC-7D01-4D0F-A95B-B4AF7337BE3D?shapeType=BORDER&amp;renderType=STROKE" paint-order="fill stroke markers" d=" M 2 0 L 96 0 L 96 0 A 2 2 0 0 1 98 2 L 98 43 L 98 43 A 2 2 0 0 1 96 45 L 2 45 L 2 45 A 2 2 0 0 1 0 43 L 0 2 L 0 2.0000000000000004 A 2 2 0 0 1 1.9999999999999996 0 Z" stroke-miterlimit="10" stroke-width="1.5" stroke-dasharray=""/></g><g><g transform="matrix(1,0,0,1,0,0)"><g transform="matrix(1,0,0,1,10,10)"/></g></g><g transform="matrix(1,0,0,1,30,15)"><text fill="#000000" stroke="none" font-family="Open Sans" font-size="12pt" font-style="normal" font-weight="normal" text-decoration="normal" x="20.38671875" y="12" text-anchor="middle" dominant-baseline="alphabetic">Email</text></g></g><g id="_B4EEE718-FBFD-4AA6-B6EB-5B21CE5F028F" bpmn2nodeid="_B4EEE718-FBFD-4AA6-B6EB-5B21CE5F028F" transform="matrix(1,0,0,1,27,90)"><g><path fill="none" stroke="none"/></g><g transform="matrix(1,0,0,1,0,0)"><path fill="#ffffff" stroke="none" id="_B4EEE718-FBFD-4AA6-B6EB-5B21CE5F028F?shapeType=BACKGROUND" paint-order="stroke fill markers" d=" M 2 0 L 152 0 L 152 0 A 2 2 0 0 1 154 2 L 154 100 L 154 100 A 2 2 0 0 1 152 102 L 2 102 L 2 102 A 2 2 0 0 1 0 100 L 0 2 L 0 2.0000000000000004 A 2 2 0 0 1 1.9999999999999996 0 Z"/></g><g transform="matrix(1,0,0,1,0,0)"><path fill="none" stroke="#000000" id="_B4EEE718-FBFD-4AA6-B6EB-5B21CE5F028F?shapeType=BORDER&amp;renderType=STROKE" paint-order="fill stroke markers" d=" M 2 0 L 152 0 L 152 0 A 2 2 0 0 1 154 2 L 154 100 L 154 100 A 2 2 0 0 1 152 102 L 2 102 L 2 102 A 2 2 0 0 1 0 100 L 0 2 L 0 2.0000000000000004 A 2 2 0 0 1 1.9999999999999996 0 Z" stroke-miterlimit="10" stroke-width="1.5" stroke-dasharray=""/></g><g><g transform="matrix(0.06,0,0,0.06,9.4,9.4)"><g transform="matrix(1,0,0,1,0,0)"><path fill="#393f44" stroke="none" id="_B4EEE718-FBFD-4AA6-B6EB-5B21CE5F028F_task__kr51__x4SI" paint-order="stroke fill markers" d=" M 0 0 M 16 445.2101 C 16 440.86867 18.784312 431.12906000000004 22.001325 424.21728 C 35.767643 394.6402 77.282944 359.28049 129 333.08362 C 144.51625 325.22398 157.34689 319.96394 167.80739 317.17416 C 171.93153 316.07426 175.72913 314.41389999999996 176.5251 313.36265 C 178.89361 310.23449999999997 180.91404 302.90781 181.72673 294.5 L 182.5 286.5 L 178.50715 283.45457 C 166.30327 274.14645 154.2837 251.67767 148.03953 226.5 C 145.61086 216.70715 145.05603000000002 215.46246 142.98364 215.1579 C 141.70332000000002 214.96974 138.08302 212.24302 134.93852 209.09852 C 123.23314 197.39314000000002 116.89146000000001 177.37556 121.43982000000001 166.48978 C 123.00204000000001 162.75088 128.15457 159.00970999999998 131.75 159.00374 C 134.44781 158.99974 134.47062 158.60296 132.91375 138.78796 C 130.92658 113.4962 134.27903 92.26542699999999 143.13217 74.075676 C 152.23162 55.379835 167.56889 42.88208 189.04934 36.659507000000005 C 210.20334 30.531504000000005 237.79666 30.531504000000005 258.95065999999997 36.659507000000005 C 300.04166 48.562968000000005 318.95842 83.80634 314.95504999999997 141 C 314.31982999999997 150.075 313.62402 157.78816 313.4088 158.14035 C 313.19359 158.49254000000002 314.57532 159.07295000000002 316.47931 159.43014000000002 C 328.92867 161.76565000000002 330.98619 177.01772000000003 321.49638 196.62092 C 316.90319 206.10912000000002 309.35724 214.50797 304.81732 215.18517000000003 C 303.02259 215.45289000000002 302.2931 217.14618000000002 299.94277999999997 226.50000000000003 C 296.65948 239.56693 294.47402 245.30522000000002 287.94764 257.99534000000006 C 282.49071999999995 268.60596000000004 273.03466 281.10922000000005 268.10756999999995 284.2288300000001 L 264.87062 286.27832000000006 L 265.51815999999997 292.88916000000006 C 266.34490999999997 301.32961000000006 268.63948999999997 309.8706000000001 270.87735999999995 312.83742000000007 C 272.06735 314.4150200000001 275.00244999999995 315.78963000000005 280.0630699999999 317.13941000000005 C 291.06929999999994 320.0750300000001 303.61700999999994 325.27420000000006 320.99999999999994 334.10171 C 369.81470999999993 358.89104000000003 410.84810999999996 393.75797 425.03216 422.5 C 429.06985999999995 430.68183 432 440.23198 432 445.2101 L 432 448 L 224 448 L 16 448 L 16 445.2101 Z"/></g></g></g><g transform="matrix(1,0,0,1,4.039999999999992,13.680000000000007)"><g transform="matrix(0.04,0,0,0.04,63.36,69.12)"><g transform="matrix(1,0,0,1,0,0)"><path fill="none" stroke="none"/></g><g transform="matrix(1,0,0,1,0,0)"><path fill="none" stroke="none"/></g></g></g><g transform="matrix(1,0,0,1,37.80078125,36)"><text fill="#000000" stroke="none" font-family="Open Sans" font-size="12pt" font-style="normal" font-weight="normal" text-decoration="normal" x="39.19921875" y="12" text-anchor="middle" dominant-baseline="alphabetic"> Planting   </text><text fill="#000000" stroke="none" font-family="Open Sans" font-size="12pt" font-style="normal" font-weight="normal" text-decoration="normal" x="39.19921875" y="27" text-anchor="middle" dominant-baseline="alphabetic">Technician</text></g></g><g id="_755E12E1-E4E8-46C4-8C31-E7E15A8E9BE7" bpmn2nodeid="_755E12E1-E4E8-46C4-8C31-E7E15A8E9BE7" transform="matrix(1,0,0,1,456,90)"><g><path fill="none" stroke="none"/></g><g transform="matrix(1,0,0,1,0,0)"><path fill="#ffffff" stroke="none" id="_755E12E1-E4E8-46C4-8C31-E7E15A8E9BE7?shapeType=BACKGROUND" paint-order="stroke fill markers" d=" M 2 0 L 139 0 L 139 0 A 2 2 0 0 1 141 2 L 141 98 L 141 98 A 2 2 0 0 1 139 100 L 2 100 L 2 100 A 2 2 0 0 1 0 98 L 0 2 L 0 2.0000000000000004 A 2 2 0 0 1 1.9999999999999996 0 Z"/></g><g transform="matrix(1,0,0,1,0,0)"><path fill="none" stroke="#000000" id="_755E12E1-E4E8-46C4-8C31-E7E15A8E9BE7?shapeType=BORDER&amp;renderType=STROKE" paint-order="fill stroke markers" d=" M 2 0 L 139 0 L 139 0 A 2 2 0 0 1 141 2 L 141 98 L 141 98 A 2 2 0 0 1 139 100 L 2 100 L 2 100 A 2 2 0 0 1 0 98 L 0 2 L 0 2.0000000000000004 A 2 2 0 0 1 1.9999999999999996 0 Z" stroke-miterlimit="10" stroke-width="1.5" stroke-dasharray=""/></g><g transform="matrix(1,0,0,1,8.91796875,20)"><text fill="#000000" stroke="none" font-family="Open Sans" font-size="12pt" font-style="normal" font-weight="normal" text-decoration="normal" x="61.58203125" y="12" text-anchor="middle" dominant-baseline="alphabetic">  Request Crop   </text><text fill="#000000" stroke="none" font-family="Open Sans" font-size="12pt" font-style="normal" font-weight="normal" text-decoration="normal" x="61.58203125" y="27" text-anchor="middle" dominant-baseline="alphabetic">     Condition       </text><text fill="#000000" stroke="none" font-family="Open Sans" font-size="12pt" font-style="normal" font-weight="normal" text-decoration="normal" x="61.58203125" y="42" text-anchor="middle" dominant-baseline="alphabetic">Monitoring Plan </text><text fill="#000000" stroke="none" font-family="Open Sans" font-size="12pt" font-style="normal" font-weight="normal" text-decoration="normal" x="61.58203125" y="57" text-anchor="middle" dominant-baseline="alphabetic">       Approval       </text></g></g><g id="_63ABF4AD-4959-4035-99F7-E24E53F21BFE" bpmn2nodeid="_63ABF4AD-4959-4035-99F7-E24E53F21BFE" transform="matrix(1,0,0,1,806,89)"><g><path fill="none" stroke="none"/></g><g transform="matrix(1,0,0,1,0,0)"><path fill="#ffffff" stroke="none" id="_63ABF4AD-4959-4035-99F7-E24E53F21BFE?shapeType=BACKGROUND" paint-order="stroke fill markers" d=" M 2 0 L 152 0 L 152 0 A 2 2 0 0 1 154 2 L 154 100 L 154 100 A 2 2 0 0 1 152 102 L 2 102 L 2 102 A 2 2 0 0 1 0 100 L 0 2 L 0 2.0000000000000004 A 2 2 0 0 1 1.9999999999999996 0 Z"/></g><g transform="matrix(1,0,0,1,0,0)"><path fill="none" stroke="#000000" id="_63ABF4AD-4959-4035-99F7-E24E53F21BFE?shapeType=BORDER&amp;renderType=STROKE" paint-order="fill stroke markers" d=" M 2 0 L 152 0 L 152 0 A 2 2 0 0 1 154 2 L 154 100 L 154 100 A 2 2 0 0 1 152 102 L 2 102 L 2 102 A 2 2 0 0 1 0 100 L 0 2 L 0 2.0000000000000004 A 2 2 0 0 1 1.9999999999999996 0 Z" stroke-miterlimit="10" stroke-width="1.5" stroke-dasharray=""/></g><g transform="matrix(1,0,0,1,29.1015625,36)"><text fill="#000000" stroke="none" font-family="Open Sans" font-size="12pt" font-style="normal" font-weight="normal" text-decoration="normal" x="47.8984375" y="12" text-anchor="middle" dominant-baseline="alphabetic">Review Crop </text><text fill="#000000" stroke="none" font-family="Open Sans" font-size="12pt" font-style="normal" font-weight="normal" text-decoration="normal" x="47.8984375" y="27" text-anchor="middle" dominant-baseline="alphabetic">     Health      </text></g></g></g><g transform="matrix(1,0,0,1,161,363.5)"/><g transform="matrix(1,0,0,1,397,453.5)"/><g transform="matrix(1,0,0,1,799,463.5)"/><g transform="matrix(1,0,0,1,1157,452)"/><g transform="matrix(1,0,0,1,306,310)"/><g transform="matrix(1,0,0,1,188,453.5)"/><g transform="matrix(1,0,0,1,617,453.5)"/><g transform="matrix(1,0,0,1,967,452.5)"/><g id="_BE60A2F6-4B71-48D6-A5DD-6F91F195F0C9" bpmn2nodeid="_BE60A2F6-4B71-48D6-A5DD-6F91F195F0C9" transform="matrix(1,0,0,1,424,2)"><g><path fill="none" stroke="none"/></g><g transform="matrix(0.1088409706437762,0,0,0.13071895424836602,0,0)"><g transform="matrix(1,0,0,1,0,0)"><path fill="#ffffff" stroke="#000000" id="_BE60A2F6-4B71-48D6-A5DD-6F91F195F0C9?shapeType=BORDER&amp;renderType=STROKE" paint-order="fill stroke markers" d=" M 0 0 M 404.814 0 L 60.736 0 L 60.736 612 L 551.263 612 L 551.263 153 Z M 0 0 M 404.814 0 L 551.263 153 L 404.78839000000005 151.8588 Z" stroke-miterlimit="10" stroke-width="7" stroke-dasharray="0"/></g><g transform="matrix(1,0,0,1,0,0)"><path fill="#ffffff" stroke="none" id="_BE60A2F6-4B71-48D6-A5DD-6F91F195F0C9_dataObject__LX2E" paint-order="stroke fill markers" d=" M 0 0 M 407.78 5.025422 L 408.62229 150.15254 L 545.9156 151 Z"/></g></g><g transform="matrix(1,0,0,1,-24.546875,85)"><text fill="#000000" stroke="none" font-family="Open Sans" font-size="12pt" font-style="normal" font-weight="normal" text-decoration="normal" x="54.546875" y="12" text-anchor="middle" dominant-baseline="alphabetic">ProductionCell</text></g></g><g transform="matrix(1,0,0,1,424,2)"/><g id="_84F2FFDF-1359-4AC4-974A-BD3CCC382A2F" bpmn2nodeid="_84F2FFDF-1359-4AC4-974A-BD3CCC382A2F" transform="matrix(1,0,0,1,1324,172)"><g><path fill="none" stroke="none"/></g><g transform="matrix(0.125,0,0,0.125,0,0)"><g transform="matrix(1,0,0,1,0,0)"><path fill="#fce7e7" stroke="none" id="_84F2FFDF-1359-4AC4-974A-BD3CCC382A2F?shapeType=BACKGROUND" paint-order="stroke fill markers" d=" M 0 0 M 444 224 C 444 263.9 434.2 300.8 414.4 334.5 C 394.7 368.2 368 394.9 334.4 414.5 C 300.79999999999995 434.1 263.9 444 224 444 C 184.10000000000002 444 147.2 434.2 113.5 414.4 C 79.8 394.7 53.1 368 33.5 334.4 C 13.899999999999999 300.79999999999995 4 263.9 4 224 C 4 184.10000000000002 13.8 147.2 33.6 113.5 C 53.400000000000006 79.80000000000001 80.1 53.1 113.6 33.5 C 147.1 13.899999999999999 184.1 4 224 4 C 263.9 4 300.8 13.8 334.5 33.6 C 368.2 53.400000000000006 394.9 80.1 414.5 113.6 C 434.1 147.1 444 184.1 444 224 Z"/></g><g><g transform="matrix(1,0,0,1,0,0)"><g transform="matrix(1,0,0,1,0,0)"><path fill="#a30000" stroke="none" id="_84F2FFDF-1359-4AC4-974A-BD3CCC382A2F?shapeType=BORDER&amp;renderType=FILL" paint-order="stroke fill markers" d=" M 0 0 M 224 0 C 100.3 0 0 100.3 0 224 C 0 347.7 100.3 448 224 448 C 347.7 448 448 347.7 448 224 C 448 100.30000000000001 347.7 0 224 0 Z M 0 0 M 224 400 C 126.8 400 48 321.2 48 224 C 48 126.80000000000001 126.8 48 224 48 C 321.2 48 400 126.8 400 224 C 400 321.2 321.2 400 224 400 Z"/></g></g></g></g><g transform="matrix(1,0,0,1,28,61)"/></g><g transform="matrix(1,0,0,1,1324,172)"/><g id="_14B74C7F-B55A-453C-8C0C-B121E9F4166F" bpmn2nodeid="_14B74C7F-B55A-453C-8C0C-B121E9F4166F" transform="matrix(1,0,0,1,504,343)"><g><path fill="none" stroke="none"/></g><g transform="matrix(0.1088409706437762,0,0,0.13071895424836602,0,0)"><g transform="matrix(1,0,0,1,0,0)"><path fill="#ffffff" stroke="#000000" id="_14B74C7F-B55A-453C-8C0C-B121E9F4166F?shapeType=BORDER&amp;renderType=STROKE" paint-order="fill stroke markers" d=" M 0 0 M 404.814 0 L 60.736 0 L 60.736 612 L 551.263 612 L 551.263 153 Z M 0 0 M 404.814 0 L 551.263 153 L 404.78839000000005 151.8588 Z" stroke-miterlimit="10" stroke-width="7" stroke-dasharray="0"/></g><g transform="matrix(1,0,0,1,0,0)"><path fill="#ffffff" stroke="none" id="_14B74C7F-B55A-453C-8C0C-B121E9F4166F_dataObject__LX2E" paint-order="stroke fill markers" d=" M 0 0 M 407.78 5.025422 L 408.62229 150.15254 L 545.9156 151 Z"/></g></g><g transform="matrix(1,0,0,1,-26.765625,85)"><text fill="#000000" stroke="none" font-family="Open Sans" font-size="12pt" font-style="normal" font-weight="normal" text-decoration="normal" x="56.765625" y="12" text-anchor="middle" dominant-baseline="alphabetic">Crop-Condition</text></g></g><g transform="matrix(1,0,0,1,504,343)"/><g id="_B8946852-BEFE-4223-972F-6807A04BE009" bpmn2nodeid="_B8946852-BEFE-4223-972F-6807A04BE009" transform="matrix(1,0,0,1,1862,407.6446838378906)"><g><path fill="none" stroke="none"/></g><g transform="matrix(0.125,0,0,0.125,0,0)"><g transform="matrix(1,0,0,1,0,0)"><path fill="#fce7e7" stroke="none" id="_B8946852-BEFE-4223-972F-6807A04BE009?shapeType=BACKGROUND" paint-order="stroke fill markers" d=" M 0 0 M 444 224 C 444 263.9 434.2 300.8 414.4 334.5 C 394.7 368.2 368 394.9 334.4 414.5 C 300.79999999999995 434.1 263.9 444 224 444 C 184.10000000000002 444 147.2 434.2 113.5 414.4 C 79.8 394.7 53.1 368 33.5 334.4 C 13.899999999999999 300.79999999999995 4 263.9 4 224 C 4 184.10000000000002 13.8 147.2 33.6 113.5 C 53.400000000000006 79.80000000000001 80.1 53.1 113.6 33.5 C 147.1 13.899999999999999 184.1 4 224 4 C 263.9 4 300.8 13.8 334.5 33.6 C 368.2 53.400000000000006 394.9 80.1 414.5 113.6 C 434.1 147.1 444 184.1 444 224 Z"/></g><g><g transform="matrix(1,0,0,1,0,0)"><g transform="matrix(1,0,0,1,0,0)"><path fill="#a30000" stroke="none" id="_B8946852-BEFE-4223-972F-6807A04BE009?shapeType=BORDER&amp;renderType=FILL" paint-order="stroke fill markers" d=" M 0 0 M 224 0 C 100.3 0 0 100.3 0 224 C 0 347.7 100.3 448 224 448 C 347.7 448 448 347.7 448 224 C 448 100.30000000000001 347.7 0 224 0 Z M 0 0 M 224 400 C 126.8 400 48 321.2 48 224 C 48 126.80000000000001 126.8 48 224 48 C 321.2 48 400 126.8 400 224 C 400 321.2 321.2 400 224 400 Z"/></g></g></g><g><g transform="matrix(1,0,0,1,0,0)"><g transform="matrix(1,0,0,1,0,0)"><path fill="#a30000" stroke="none" id="_B8946852-BEFE-4223-972F-6807A04BE009_end_1_" paint-order="stroke fill markers" d=" M 0 0 M 320.2 220.7 C 320.2 238.1 315.9 254.2 307.3 268.9 C 298.7 283.59999999999997 287.1 295.29999999999995 272.40000000000003 303.79999999999995 C 257.70000000000005 312.4 241.60000000000002 316.69999999999993 224.20000000000005 316.69999999999993 C 206.80000000000007 316.69999999999993 190.70000000000005 312.3999999999999 176.00000000000006 303.79999999999995 C 161.30000000000007 295.19999999999993 149.70000000000005 283.59999999999997 141.10000000000005 268.9 C 132.50000000000006 254.2 128.30000000000004 238.09999999999997 128.30000000000004 220.7 C 128.30000000000004 203.3 132.60000000000005 187.2 141.20000000000005 172.5 C 149.80000000000004 157.8 161.40000000000003 146.1 176.10000000000005 137.5 C 190.80000000000004 128.9 206.90000000000006 124.7 224.30000000000007 124.7 C 241.70000000000007 124.7 257.80000000000007 129 272.50000000000006 137.6 C 287.20000000000005 146.2 298.90000000000003 157.9 307.40000000000003 172.5 C 316 187.2 320.2 203.3 320.2 220.7 Z"/></g></g></g></g><g transform="matrix(1,0,0,1,28,61)"/></g><g transform="matrix(1,0,0,1,1862,407.6446838378906)"/><g id="_D9B0C62C-17A4-465F-965E-792CBBDF5A7A" bpmn2nodeid="_D9B0C62C-17A4-465F-965E-792CBBDF5A7A" transform="matrix(1,0,0,1,865,318)"><g><path fill="none" stroke="none"/></g><g transform="matrix(0.1088409706437762,0,0,0.13071895424836602,0,0)"><g transform="matrix(1,0,0,1,0,0)"><path fill="#ffffff" stroke="#000000" id="_D9B0C62C-17A4-465F-965E-792CBBDF5A7A?shapeType=BORDER&amp;renderType=STROKE" paint-order="fill stroke markers" d=" M 0 0 M 404.814 0 L 60.736 0 L 60.736 612 L 551.263 612 L 551.263 153 Z M 0 0 M 404.814 0 L 551.263 153 L 404.78839000000005 151.8588 Z" stroke-miterlimit="10" stroke-width="7" stroke-dasharray="0"/></g><g transform="matrix(1,0,0,1,0,0)"><path fill="#ffffff" stroke="none" id="_D9B0C62C-17A4-465F-965E-792CBBDF5A7A_dataObject__LX2E" paint-order="stroke fill markers" d=" M 0 0 M 407.78 5.025422 L 408.62229 150.15254 L 545.9156 151 Z"/></g></g><g transform="matrix(1,0,0,1,-24.546875,85)"><text fill="#000000" stroke="none" font-family="Open Sans" font-size="12pt" font-style="normal" font-weight="normal" text-decoration="normal" x="54.546875" y="12" text-anchor="middle" dominant-baseline="alphabetic">ProductionCell</text></g></g><g transform="matrix(1,0,0,1,865,318)"/><g id="_0BEFF69F-9966-4D4C-BBD4-00C2C7119C4C" bpmn2nodeid="_0BEFF69F-9966-4D4C-BBD4-00C2C7119C4C" transform="matrix(1,0,0,1,617,323)"><g><path fill="none" stroke="none"/></g><g transform="matrix(1,0,0,1,0,0)"><path fill="#ffffff" stroke="none" id="_0BEFF69F-9966-4D4C-BBD4-00C2C7119C4C?shapeType=BACKGROUND" paint-order="stroke fill markers" d=" M 2 0 L 141 0 L 141 0 A 2 2 0 0 1 143 2 L 143 32 L 143 32 A 2 2 0 0 1 141 34 L 2 34 L 2 34 A 2 2 0 0 1 0 32 L 0 2 L 0 2.0000000000000004 A 2 2 0 0 1 1.9999999999999996 0 Z"/></g><g transform="matrix(1,0,0,1,0,0)"><path fill="none" stroke="#000000" id="_0BEFF69F-9966-4D4C-BBD4-00C2C7119C4C?shapeType=BORDER&amp;renderType=STROKE" paint-order="fill stroke markers" d=" M 2 0 L 141 0 L 141 0 A 2 2 0 0 1 143 2 L 143 32 L 143 32 A 2 2 0 0 1 141 34 L 2 34 L 2 34 A 2 2 0 0 1 0 32 L 0 2 L 0 2.0000000000000004 A 2 2 0 0 1 1.9999999999999996 0 Z" stroke-miterlimit="10" stroke-width="1.5" stroke-dasharray=""/></g><g><g transform="matrix(1,0,0,1,0,0)"><g transform="matrix(1,0,0,1,10,10)"/></g></g><g transform="matrix(1,0,0,1,51.11328125,9.5)"><text fill="#000000" stroke="none" font-family="Open Sans" font-size="12pt" font-style="normal" font-weight="normal" text-decoration="normal" x="20.38671875" y="12" text-anchor="middle" dominant-baseline="alphabetic">Email</text></g></g><g transform="matrix(1,0,0,1,617,323)"/><g id="_039B0157-A956-408F-BD76-BFBDB4F35EC1" bpmn2nodeid="_039B0157-A956-408F-BD76-BFBDB4F35EC1" transform="matrix(1,0,0,1,45,128)"><g><path fill="none" stroke="none"/></g><g transform="matrix(0.125,0,0,0.125,0,0)"><g transform="matrix(1,0,0,1,0,0)"><path fill="#e8fae6" stroke="none" id="_039B0157-A956-408F-BD76-BFBDB4F35EC1?shapeType=BACKGROUND" paint-order="stroke fill markers" d=" M 0 0 M 444 224 C 444 263.9 434.2 300.8 414.4 334.5 C 394.7 368.2 368 394.9 334.4 414.5 C 300.79999999999995 434.1 263.9 444 224 444 C 184.10000000000002 444 147.2 434.2 113.5 414.4 C 79.8 394.7 53.1 368 33.5 334.4 C 13.899999999999999 300.79999999999995 4 263.9 4 224 C 4 184.10000000000002 13.8 147.2 33.6 113.5 C 53.400000000000006 79.80000000000001 80.1 53.1 113.6 33.5 C 147.1 13.899999999999999 184.1 4 224 4 C 263.9 4 300.8 13.8 334.5 33.6 C 368.2 53.400000000000006 394.9 80.1 414.5 113.6 C 434.1 147.1 444 184.1 444 224 Z"/></g><g><g transform="matrix(1,0,0,1,0,0)"><g transform="matrix(1,0,0,1,0,0)"><path fill="#4aa241" stroke="none" id="_039B0157-A956-408F-BD76-BFBDB4F35EC1?shapeType=BORDER&amp;renderType=FILL" paint-order="stroke fill markers" d=" M 0 0 M 224 0 C 100.3 0 0 100.3 0 224 C 0 347.7 100.3 448 224 448 C 347.7 448 448 347.7 448 224 C 448 100.30000000000001 347.7 0 224 0 Z M 0 0 M 224 432 C 109.1 432 16 338.9 16 224 C 16 109.10000000000002 109.1 16 224 16 C 338.9 16 432 109.1 432 224 C 432 338.9 338.9 432 224 432 Z"/></g></g></g></g><g transform="matrix(1,0,0,1,-70.3359375,61)"><text fill="#000000" stroke="none" font-family="Open Sans" font-size="12pt" font-style="normal" font-weight="normal" text-decoration="normal" x="98.3359375" y="12" text-anchor="middle" dominant-baseline="alphabetic">crop Condition Monitoring</text></g></g><g transform="matrix(1,0,0,1,45,128)"/><g id="_0B710BA7-D7A9-46F8-93A7-C672001C6937" bpmn2nodeid="_0B710BA7-D7A9-46F8-93A7-C672001C6937"><g><path fill="none" stroke="#000000" paint-order="fill stroke markers" d=" M 101 156 L 180 156" stroke-miterlimit="10" stroke-dasharray=""/></g><g transform="matrix(1,0,0,1,101,156)"/><g transform="matrix(6.123233995736766e-17,1,-1,6.123233995736766e-17,195,151)"><path fill="#000000" stroke="#000000" paint-order="fill stroke markers" d=" M 10 15 L 0 15 L 5 0 Z" stroke-miterlimit="10" stroke-dasharray=""/></g><g transform="matrix(1,0,0,1,101,146)"/></g><g id="_F5372DD6-8E1A-425C-8F77-EBBAAF77F3C2" bpmn2nodeid="_F5372DD6-8E1A-425C-8F77-EBBAAF77F3C2"><g><path fill="none" stroke="#000000" paint-order="fill stroke markers" d=" M 311 156 L 351 156" stroke-miterlimit="10" stroke-dasharray=""/></g><g transform="matrix(1,0,0,1,311,156)"/><g transform="matrix(6.123233995736766e-17,1,-1,6.123233995736766e-17,366,151)"><path fill="#000000" stroke="#000000" paint-order="fill stroke markers" d=" M 10 15 L 0 15 L 5 0 Z" stroke-miterlimit="10" stroke-dasharray=""/></g><g transform="matrix(1,0,0,1,311,146)"/></g><g id="_1FCAB5C6-E2BD-4798-AB50-175FC65C496E" bpmn2nodeid="_1FCAB5C6-E2BD-4798-AB50-175FC65C496E"><g><path fill="none" stroke="#000000" paint-order="fill stroke markers" d=" M 443 207 L 443 329 L 265 329 L 265 438.5" stroke-miterlimit="10" stroke-dasharray=""/></g><g transform="matrix(1,0,0,1,443,207)"/><g transform="matrix(-1,1.2246467991473532e-16,-1.2246467991473532e-16,-1,270,453.5)"><path fill="#000000" stroke="#000000" paint-order="fill stroke markers" d=" M 10 15 L 0 15 L 5 0 Z" stroke-miterlimit="10" stroke-dasharray=""/></g><g transform="matrix(1,0,0,1,453,268)"/></g><g id="_0C668067-4E03-4D10-BB91-B8DC96A84422" bpmn2nodeid="_0C668067-4E03-4D10-BB91-B8DC96A84422"><g><path fill="none" stroke="#000000" paint-order="fill stroke markers" d=" M 342 504.5 L 382 504.5" stroke-miterlimit="10" stroke-dasharray=""/></g><g transform="matrix(1,0,0,1,342,504.5)"/><g transform="matrix(6.123233995736766e-17,1,-1,6.123233995736766e-17,397,499.5)"><path fill="#000000" stroke="#000000" paint-order="fill stroke markers" d=" M 10 15 L 0 15 L 5 0 Z" stroke-miterlimit="10" stroke-dasharray=""/></g><g transform="matrix(1,0,0,1,342,494.5)"/></g><g id="_E4EDB781-D9BC-4585-B18C-8D496D709EDB" bpmn2nodeid="_E4EDB781-D9BC-4585-B18C-8D496D709EDB"><g><path fill="none" stroke="#000000" paint-order="fill stroke markers" d=" M 551 503.96153846153845 L 602.0003667526498 503.60489254019126" stroke-miterlimit="10" stroke-dasharray=""/></g><g transform="matrix(1,0,0,1,551,503.96153846153845)"/><g transform="matrix(0.006992836012750512,0.9999755498233438,-0.9999755498233438,0.006992836012750512,616.9650358199362,498.5001222508833)"><path fill="#000000" stroke="#000000" paint-order="fill stroke markers" d=" M 10 15 L 0 15 L 5 0 Z" stroke-miterlimit="10" stroke-dasharray=""/></g><g transform="matrix(1,0,0,1,551.0699283601275,493.7310137325358)"/></g><g id="_B6F82171-2A36-4B5A-A84F-8BC58808C3E4" bpmn2nodeid="_B6F82171-2A36-4B5A-A84F-8BC58808C3E4"><g><path fill="none" stroke="#000000" paint-order="fill stroke markers" d=" M 687.2830802603037 453.5 L 686.5 273 L 253 273 L 253 209.5" stroke-miterlimit="10" stroke-dasharray=""/></g><g transform="matrix(1,0,0,1,687.2830802603037,453.5)"/><g transform="matrix(1,0,0,1,248,194.5)"><path fill="#000000" stroke="#000000" paint-order="fill stroke markers" d=" M 10 15 L 0 15 L 5 0 Z" stroke-miterlimit="10" stroke-dasharray=""/></g><g transform="matrix(1,0,0,1,696.4999058929815,363.20661646033415)"/></g><g id="_17602175-C5FC-4F40-9AD1-F30896B4D564" bpmn2nodeid="_17602175-C5FC-4F40-9AD1-F30896B4D564"><g><path fill="none" stroke="#000000" paint-order="fill stroke markers" d=" M 758 503.8161434977578 L 784.000150815156 503.9327361023101" stroke-miterlimit="10" stroke-dasharray=""/></g><g transform="matrix(1,0,0,1,758,503.8161434977578)"/><g transform="matrix(-0.0044842598459921635,0.9999899456562719,-0.9999899456562719,-0.0044842598459921635,799.0224212992299,499.00005027171864)"><path fill="#000000" stroke="#000000" paint-order="fill stroke markers" d=" M 10 15 L 0 15 L 5 0 Z" stroke-miterlimit="10" stroke-dasharray=""/></g><g transform="matrix(1,0,0,1,758.0448425984599,493.9081722923162)"/></g><g id="_3CB38F75-0A6B-48AD-ACD3-1AB36F921F78" bpmn2nodeid="_3CB38F75-0A6B-48AD-ACD3-1AB36F921F78"><g><path fill="none" stroke="#000000" paint-order="fill stroke markers" d=" M 931 503.6764705882353 L 952.0001802158987 503.57352852835345" stroke-miterlimit="10" stroke-dasharray=""/></g><g transform="matrix(1,0,0,1,931,503.6764705882353)"/><g transform="matrix(0.004901901890230149,0.9999879856067565,-0.9999879856067565,0.004901901890230149,966.9754904905489,498.50006007196623)"><path fill="#000000" stroke="#000000" paint-order="fill stroke markers" d=" M 10 15 L 0 15 L 5 0 Z" stroke-miterlimit="10" stroke-dasharray=""/></g><g transform="matrix(1,0,0,1,931.0490190189023,493.58835543805014)"/></g><g id="_5B6FAB1A-1876-40DF-865A-FF688349F900" bpmn2nodeid="_5B6FAB1A-1876-40DF-865A-FF688349F900"><g><path fill="none" stroke="#000000" paint-order="fill stroke markers" d=" M 1121 503.1592920353982 L 1142.000146837847 503.06637103169095" stroke-miterlimit="10" stroke-dasharray=""/></g><g transform="matrix(1,0,0,1,1121,503.1592920353982)"/><g transform="matrix(0.0044247354460633485,0.999990210810202,-0.999990210810202,0.0044247354460633485,1156.9778763227696,498.000048945949)"><path fill="#000000" stroke="#000000" paint-order="fill stroke markers" d=" M 10 15 L 0 15 L 5 0 Z" stroke-miterlimit="10" stroke-dasharray=""/></g><g transform="matrix(1,0,0,1,1121.0442473544606,493.07974390959714)"/></g><g id="_59887F93-E7AE-461D-9ECF-2BDE59FEF2AF" bpmn2nodeid="_59887F93-E7AE-461D-9ECF-2BDE59FEF2AF"><g><path fill="none" stroke="#000000" paint-order="fill stroke markers" d=" M 1311 502.6764705882353 L 1353 502.5 L 1352.0546444461413 242.99990046581996" stroke-miterlimit="10" stroke-dasharray=""/></g><g transform="matrix(1,0,0,1,1311,502.6764705882353)"/><g transform="matrix(0.9999933643879975,-0.0036429630760875724,0.0036429630760875724,0.9999933643879975,1347.00003317806,228.01821481538045)"><path fill="#000000" stroke="#000000" paint-order="fill stroke markers" d=" M 10 15 L 0 15 L 5 0 Z" stroke-miterlimit="10" stroke-dasharray=""/></g><g transform="matrix(1,0,0,1,1311.0420164358427,492.5883235635513)"/></g><g id="_DC894050-E90C-4146-9049-AFA8E51FE2EC" bpmn2nodeid="_DC894050-E90C-4146-9049-AFA8E51FE2EC"><g><path fill="none" stroke="#000000" paint-order="fill stroke markers" d=" M 253.0005434036255 117.5 L 253.00112915039062 76 L 703 76 L 703 116" stroke-miterlimit="10" stroke-dasharray=""/></g><g transform="matrix(1,0,0,1,253.0005434036255,117.5)"/><g transform="matrix(-1,1.2246467991473532e-16,-1.2246467991473532e-16,-1,708,131)"><path fill="#000000" stroke="#000000" paint-order="fill stroke markers" d=" M 10 15 L 0 15 L 5 0 Z" stroke-miterlimit="10" stroke-dasharray=""/></g><g transform="matrix(1,0,0,1,263.00054340262943,96.74985885620119)"/></g><g id="_FEA06BFF-2DBE-4C4F-9490-F685AF15D354" bpmn2nodeid="_FEA06BFF-2DBE-4C4F-9490-F685AF15D354"><g><path fill="none" stroke="#000000" paint-order="fill stroke markers" d=" M 731 159 L 865 159 L 865 448.5" stroke-miterlimit="10" stroke-dasharray=""/></g><g transform="matrix(1,0,0,1,731,159)"/><g transform="matrix(-1,1.2246467991473532e-16,-1.2246467991473532e-16,-1,870,463.5)"><path fill="#000000" stroke="#000000" paint-order="fill stroke markers" d=" M 10 15 L 0 15 L 5 0 Z" stroke-miterlimit="10" stroke-dasharray=""/></g><g transform="matrix(1,0,0,1,731,149)"/></g><g id="_651DC0B9-805F-454D-8BFD-2FA642197C6E" bpmn2nodeid="_651DC0B9-805F-454D-8BFD-2FA642197C6E"><g><path fill="none" stroke="#000000" paint-order="fill stroke markers" d=" M 675 158.99999006404434 L 617 158.99996948242188 L 617 240 L 474 240 L 474 438.5" stroke-miterlimit="10" stroke-dasharray=""/></g><g transform="matrix(1,0,0,1,675,158.99999006404434)"/><g transform="matrix(-1,1.2246467991473532e-16,-1.2246467991473532e-16,-1,479,453.5)"><path fill="#000000" stroke="#000000" paint-order="fill stroke markers" d=" M 10 15 L 0 15 L 5 0 Z" stroke-miterlimit="10" stroke-dasharray=""/></g><g transform="matrix(1,0,0,1,617.0000035485556,148.99997977323375)"/></g></g></g></svg>