<svg version="1.1" xmlns="http://www.w3.org/2000/svg" xmlns:xlink="http://www.w3.org/1999/xlink" width="1764" height="886" viewBox="0 0 1764 886"><defs/><g transform="matrix(1,0,0,1,0,0)"><g><g><g><path fill="none" stroke="#d3d3d3" paint-order="fill stroke markers" d=" M 0 0 L 1200 0" stroke-miterlimit="10" stroke-opacity="0.8" stroke-dasharray="5"/></g><g><path fill="none" stroke="#d3d3d3" paint-order="fill stroke markers" d=" M 0 0 L 0 800" stroke-miterlimit="10" stroke-opacity="0.8" stroke-dasharray="5"/></g></g><g id="_256250DE-570F-439D-9866-9BA9FAB56562" bpmn2nodeid="_256250DE-570F-439D-9866-9BA9FAB56562" transform="matrix(1,0,0,1,173,23)"><g><path fill="none" stroke="none"/></g><g transform="matrix(0.125,0,0,0.125,0,0)"><g transform="matrix(1,0,0,1,0,0)"><path fill="#e8fae6" stroke="none" id="_256250DE-570F-439D-9866-9BA9FAB56562?shapeType=BACKGROUND" paint-order="stroke fill markers" d=" M 0 0 M 444 224 C 444 263.9 434.2 300.8 414.4 334.5 C 394.7 368.2 368 394.9 334.4 414.5 C 300.79999999999995 434.1 263.9 444 224 444 C 184.10000000000002 444 147.2 434.2 113.5 414.4 C 79.8 394.7 53.1 368 33.5 334.4 C 13.899999999999999 300.79999999999995 4 263.9 4 224 C 4 184.10000000000002 13.8 147.2 33.6 113.5 C 53.400000000000006 79.80000000000001 80.1 53.1 113.6 33.5 C 147.1 13.899999999999999 184.1 4 224 4 C 263.9 4 300.8 13.8 334.5 33.6 C 368.2 53.400000000000006 394.9 80.1 414.5 113.6 C 434.1 147.1 444 184.1 444 224 Z"/></g><g><g transform="matrix(1,0,0,1,0,0)"><g transform="matrix(1,0,0,1,0,0)"><path fill="rgb(74,162,65)" stroke="none" id="_256250DE-570F-439D-9866-9BA9FAB56562?shapeType=BORDER&amp;renderType=FILL" paint-order="stroke fill markers" d=" M 0 0 M 224 0 C 100.3 0 0 100.3 0 224 C 0 347.7 100.3 448 224 448 C 347.7 448 448 347.7 448 224 C 448 100.30000000000001 347.7 0 224 0 Z M 0 0 M 224 432 C 109.1 432 16 338.9 16 224 C 16 109.10000000000002 109.1 16 224 16 C 338.9 16 432 109.1 432 224 C 432 338.9 338.9 432 224 432 Z"/></g></g></g></g><g transform="matrix(1,0,0,1,28,61)"/></g><g transform="matrix(1,0,0,1,173,23)"/><g id="_F4E92717-A13B-4EDF-9469-3731D92B624C" bpmn2nodeid="_F4E92717-A13B-4EDF-9469-3731D92B624C" transform="matrix(1,0,0,1,119,109.5)"><g><path fill="none" stroke="none"/></g><g transform="matrix(1,0,0,1,0,0)"><path fill="#f2f2f2" stroke="none" id="_F4E92717-A13B-4EDF-9469-3731D92B624C?shapeType=BACKGROUND" paint-order="stroke fill markers" d=" M 0 0 L 1584.2857142857142 0 L 1584.2857142857142 394.2857142857142 L 0 394.2857142857142 L 0 0 Z Z"/></g><g transform="matrix(1,0,0,1,0,0)"><path fill="none" stroke="rgb(0,0,0)" id="_F4E92717-A13B-4EDF-9469-3731D92B624C?shapeType=BORDER&amp;renderType=STROKE" paint-order="fill stroke markers" d=" M 0 0 L 1584.2857142857142 0 L 1584.2857142857142 394.2857142857142 L 0 394.2857142857142 L 0 0 Z Z" stroke-miterlimit="10" stroke-width="0.5" stroke-dasharray=""/></g><g transform="matrix(-1.8369701987210297e-16,-1,1,-1.8369701987210297e-16,0,197.1428571428571)"/><g id="_F3630584-0780-437D-86AF-8E5CC8F7E0A9" bpmn2nodeid="_F3630584-0780-437D-86AF-8E5CC8F7E0A9" transform="matrix(1,0,0,1,289,58.5)"><g><path fill="none" stroke="none"/></g><g transform="matrix(1,0,0,1,0,0)"><path fill="#ffffff" stroke="none" id="_F3630584-0780-437D-86AF-8E5CC8F7E0A9?shapeType=BACKGROUND" paint-order="stroke fill markers" d=" M 2 0 L 152 0 L 152 0 A 2 2 0 0 1 154 2 L 154 100 L 154 100 A 2 2 0 0 1 152 102 L 2 102 L 2 102 A 2 2 0 0 1 0 100 L 0 2 L 0 2.0000000000000004 A 2 2 0 0 1 1.9999999999999996 0 Z"/></g><g transform="matrix(1,0,0,1,0,0)"><path fill="none" stroke="rgb(0,0,0)" id="_F3630584-0780-437D-86AF-8E5CC8F7E0A9?shapeType=BORDER&amp;renderType=STROKE" paint-order="fill stroke markers" d=" M 2 0 L 152 0 L 152 0 A 2 2 0 0 1 154 2 L 154 100 L 154 100 A 2 2 0 0 1 152 102 L 2 102 L 2 102 A 2 2 0 0 1 0 100 L 0 2 L 0 2.0000000000000004 A 2 2 0 0 1 1.9999999999999996 0 Z" stroke-miterlimit="10" stroke-width="1.5" stroke-dasharray=""/></g><g transform="matrix(1,0,0,1,7.46875,36)"><text fill="#000000" stroke="none" font-family="Open Sans" font-size="12pt" font-style="normal" font-weight="normal" text-decoration="normal" x="69.53125" y="12" text-anchor="middle" dominant-baseline="alphabetic">Get Drone System </text><text fill="#000000" stroke="none" font-family="Open Sans" font-size="12pt" font-style="normal" font-weight="normal" text-decoration="normal" x="69.53125" y="27" text-anchor="middle" dominant-baseline="alphabetic">          Details           </text></g></g><g id="_FCA30C29-EC8B-4E89-A7C1-A6A2ACAB8398" bpmn2nodeid="_FCA30C29-EC8B-4E89-A7C1-A6A2ACAB8398" transform="matrix(1,0,0,1,506,58.5)"><g><path fill="none" stroke="none"/></g><g transform="matrix(1,0,0,1,0,0)"><path fill="#ffffff" stroke="none" id="_FCA30C29-EC8B-4E89-A7C1-A6A2ACAB8398?shapeType=BACKGROUND" paint-order="stroke fill markers" d=" M 2 0 L 152 0 L 152 0 A 2 2 0 0 1 154 2 L 154 100 L 154 100 A 2 2 0 0 1 152 102 L 2 102 L 2 102 A 2 2 0 0 1 0 100 L 0 2 L 0 2.0000000000000004 A 2 2 0 0 1 1.9999999999999996 0 Z"/></g><g transform="matrix(1,0,0,1,0,0)"><path fill="none" stroke="rgb(0,0,0)" id="_FCA30C29-EC8B-4E89-A7C1-A6A2ACAB8398?shapeType=BORDER&amp;renderType=STROKE" paint-order="fill stroke markers" d=" M 2 0 L 152 0 L 152 0 A 2 2 0 0 1 154 2 L 154 100 L 154 100 A 2 2 0 0 1 152 102 L 2 102 L 2 102 A 2 2 0 0 1 0 100 L 0 2 L 0 2.0000000000000004 A 2 2 0 0 1 1.9999999999999996 0 Z" stroke-miterlimit="10" stroke-width="1.5" stroke-dasharray=""/></g><g transform="matrix(1,0,0,1,5.6640625,28.5)"><text fill="#000000" stroke="none" font-family="Open Sans" font-size="12pt" font-style="normal" font-weight="normal" text-decoration="normal" x="71.3359375" y="12" text-anchor="middle" dominant-baseline="alphabetic">Get cultivar choice </text><text fill="#000000" stroke="none" font-family="Open Sans" font-size="12pt" font-style="normal" font-weight="normal" text-decoration="normal" x="71.3359375" y="27" text-anchor="middle" dominant-baseline="alphabetic">and establishment </text><text fill="#000000" stroke="none" font-family="Open Sans" font-size="12pt" font-style="normal" font-weight="normal" text-decoration="normal" x="71.3359375" y="42" text-anchor="middle" dominant-baseline="alphabetic">             data             </text></g></g><g id="_FECC0DCC-9353-41C3-950E-B00A5354D969" bpmn2nodeid="_FECC0DCC-9353-41C3-950E-B00A5354D969" transform="matrix(1,0,0,1,52,249.5)"><g><path fill="none" stroke="none"/></g><g transform="matrix(1,0,0,1,0,0)"><path fill="#ffffff" stroke="none" id="_FECC0DCC-9353-41C3-950E-B00A5354D969?shapeType=BACKGROUND" paint-order="stroke fill markers" d=" M 2 0 L 152 0 L 152 0 A 2 2 0 0 1 154 2 L 154 100 L 154 100 A 2 2 0 0 1 152 102 L 2 102 L 2 102 A 2 2 0 0 1 0 100 L 0 2 L 0 2.0000000000000004 A 2 2 0 0 1 1.9999999999999996 0 Z"/></g><g transform="matrix(1,0,0,1,0,0)"><path fill="none" stroke="rgb(0,0,0)" id="_FECC0DCC-9353-41C3-950E-B00A5354D969?shapeType=BORDER&amp;renderType=STROKE" paint-order="fill stroke markers" d=" M 2 0 L 152 0 L 152 0 A 2 2 0 0 1 154 2 L 154 100 L 154 100 A 2 2 0 0 1 152 102 L 2 102 L 2 102 A 2 2 0 0 1 0 100 L 0 2 L 0 2.0000000000000004 A 2 2 0 0 1 1.9999999999999996 0 Z" stroke-miterlimit="10" stroke-width="1.5" stroke-dasharray=""/></g><g transform="matrix(1,0,0,1,18.26171875,36)"><text fill="#000000" stroke="none" font-family="Open Sans" font-size="12pt" font-style="normal" font-weight="normal" text-decoration="normal" x="58.73828125" y="12" text-anchor="middle" dominant-baseline="alphabetic">Get Drone Plan </text><text fill="#000000" stroke="none" font-family="Open Sans" font-size="12pt" font-style="normal" font-weight="normal" text-decoration="normal" x="58.73828125" y="27" text-anchor="middle" dominant-baseline="alphabetic">        Details        </text></g></g><g id="_2FCC6876-5E96-4CBC-8523-ABF84030364B" bpmn2nodeid="_2FCC6876-5E96-4CBC-8523-ABF84030364B" transform="matrix(1,0,0,1,731,58.5)"><g><path fill="none" stroke="none"/></g><g transform="matrix(1,0,0,1,0,0)"><path fill="#ffffff" stroke="none" id="_2FCC6876-5E96-4CBC-8523-ABF84030364B?shapeType=BACKGROUND" paint-order="stroke fill markers" d=" M 2 0 L 152 0 L 152 0 A 2 2 0 0 1 154 2 L 154 100 L 154 100 A 2 2 0 0 1 152 102 L 2 102 L 2 102 A 2 2 0 0 1 0 100 L 0 2 L 0 2.0000000000000004 A 2 2 0 0 1 1.9999999999999996 0 Z"/></g><g transform="matrix(1,0,0,1,0,0)"><path fill="none" stroke="rgb(0,0,0)" id="_2FCC6876-5E96-4CBC-8523-ABF84030364B?shapeType=BORDER&amp;renderType=STROKE" paint-order="fill stroke markers" d=" M 2 0 L 152 0 L 152 0 A 2 2 0 0 1 154 2 L 154 100 L 154 100 A 2 2 0 0 1 152 102 L 2 102 L 2 102 A 2 2 0 0 1 0 100 L 0 2 L 0 2.0000000000000004 A 2 2 0 0 1 1.9999999999999996 0 Z" stroke-miterlimit="10" stroke-width="1.5" stroke-dasharray=""/></g><g transform="matrix(1,0,0,1,8.51171875,36)"><text fill="#000000" stroke="none" font-family="Open Sans" font-size="12pt" font-style="normal" font-weight="normal" text-decoration="normal" x="68.48828125" y="12" text-anchor="middle" dominant-baseline="alphabetic"> Get field and soil  </text><text fill="#000000" stroke="none" font-family="Open Sans" font-size="12pt" font-style="normal" font-weight="normal" text-decoration="normal" x="68.48828125" y="27" text-anchor="middle" dominant-baseline="alphabetic">management data</text></g></g><g id="_83ADAF7A-34AB-42D7-86D6-FDAA626DF3FB" bpmn2nodeid="_83ADAF7A-34AB-42D7-86D6-FDAA626DF3FB" transform="matrix(1,0,0,1,52,58)"><g><path fill="none" stroke="none"/></g><g transform="matrix(1,0,0,1,0,0)"><path fill="#ffffff" stroke="none" id="_83ADAF7A-34AB-42D7-86D6-FDAA626DF3FB?shapeType=BACKGROUND" paint-order="stroke fill markers" d=" M 2 0 L 152 0 L 152 0 A 2 2 0 0 1 154 2 L 154 100 L 154 100 A 2 2 0 0 1 152 102 L 2 102 L 2 102 A 2 2 0 0 1 0 100 L 0 2 L 0 2.0000000000000004 A 2 2 0 0 1 1.9999999999999996 0 Z"/></g><g transform="matrix(1,0,0,1,0,0)"><path fill="none" stroke="#000000" id="_83ADAF7A-34AB-42D7-86D6-FDAA626DF3FB?shapeType=BORDER&amp;renderType=STROKE" paint-order="fill stroke markers" d=" M 2 0 L 152 0 L 152 0 A 2 2 0 0 1 154 2 L 154 100 L 154 100 A 2 2 0 0 1 152 102 L 2 102 L 2 102 A 2 2 0 0 1 0 100 L 0 2 L 0 2.0000000000000004 A 2 2 0 0 1 1.9999999999999996 0 Z" stroke-miterlimit="10" stroke-width="1.5" stroke-dasharray=""/></g><g><g transform="matrix(0.06,0,0,0.06,9.4,9.4)"><g transform="matrix(1,0,0,1,0,0)"><path fill="#393f44" stroke="none" id="_83ADAF7A-34AB-42D7-86D6-FDAA626DF3FB_task__kr51__x4SI" paint-order="stroke fill markers" d=" M 0 0 M 16 445.2101 C 16 440.86867 18.784312 431.12906000000004 22.001325 424.21728 C 35.767643 394.6402 77.282944 359.28049 129 333.08362 C 144.51625 325.22398 157.34689 319.96394 167.80739 317.17416 C 171.93153 316.07426 175.72913 314.41389999999996 176.5251 313.36265 C 178.89361 310.23449999999997 180.91404 302.90781 181.72673 294.5 L 182.5 286.5 L 178.50715 283.45457 C 166.30327 274.14645 154.2837 251.67767 148.03953 226.5 C 145.61086 216.70715 145.05603000000002 215.46246 142.98364 215.1579 C 141.70332000000002 214.96974 138.08302 212.24302 134.93852 209.09852 C 123.23314 197.39314000000002 116.89146000000001 177.37556 121.43982000000001 166.48978 C 123.00204000000001 162.75088 128.15457 159.00970999999998 131.75 159.00374 C 134.44781 158.99974 134.47062 158.60296 132.91375 138.78796 C 130.92658 113.4962 134.27903 92.26542699999999 143.13217 74.075676 C 152.23162 55.379835 167.56889 42.88208 189.04934 36.659507000000005 C 210.20334 30.531504000000005 237.79666 30.531504000000005 258.95065999999997 36.659507000000005 C 300.04166 48.562968000000005 318.95842 83.80634 314.95504999999997 141 C 314.31982999999997 150.075 313.62402 157.78816 313.4088 158.14035 C 313.19359 158.49254000000002 314.57532 159.07295000000002 316.47931 159.43014000000002 C 328.92867 161.76565000000002 330.98619 177.01772000000003 321.49638 196.62092 C 316.90319 206.10912000000002 309.35724 214.50797 304.81732 215.18517000000003 C 303.02259 215.45289000000002 302.2931 217.14618000000002 299.94277999999997 226.50000000000003 C 296.65948 239.56693 294.47402 245.30522000000002 287.94764 257.99534000000006 C 282.49071999999995 268.60596000000004 273.03466 281.10922000000005 268.10756999999995 284.2288300000001 L 264.87062 286.27832000000006 L 265.51815999999997 292.88916000000006 C 266.34490999999997 301.32961000000006 268.63948999999997 309.8706000000001 270.87735999999995 312.83742000000007 C 272.06735 314.4150200000001 275.00244999999995 315.78963000000005 280.0630699999999 317.13941000000005 C 291.06929999999994 320.0750300000001 303.61700999999994 325.27420000000006 320.99999999999994 334.10171 C 369.81470999999993 358.89104000000003 410.84810999999996 393.75797 425.03216 422.5 C 429.06985999999995 430.68183 432 440.23198 432 445.2101 L 432 448 L 224 448 L 16 448 L 16 445.2101 Z"/></g></g></g><g transform="matrix(1,0,0,1,4.039999999999992,13.680000000000007)"><g transform="matrix(0.04,0,0,0.04,63.36,69.12)"><g transform="matrix(1,0,0,1,0,0)"><path fill="none" stroke="none"/></g><g transform="matrix(1,0,0,1,0,0)"><path fill="none" stroke="none"/></g></g></g><g transform="matrix(1,0,0,1,37.80078125,36)"><text fill="#000000" stroke="none" font-family="Open Sans" font-size="12pt" font-style="normal" font-weight="normal" text-decoration="normal" x="39.19921875" y="12" text-anchor="middle" dominant-baseline="alphabetic">    Plant      </text><text fill="#000000" stroke="none" font-family="Open Sans" font-size="12pt" font-style="normal" font-weight="normal" text-decoration="normal" x="39.19921875" y="27" text-anchor="middle" dominant-baseline="alphabetic">Technician</text></g></g><g id="_B0871A11-D66C-49F8-9E87-951DDAB748D3" bpmn2nodeid="_B0871A11-D66C-49F8-9E87-951DDAB748D3" transform="matrix(1,0,0,1,946,58.5)"><g><path fill="none" stroke="none"/></g><g transform="matrix(1,0,0,1,0,0)"><path fill="#ffffff" stroke="none" id="_B0871A11-D66C-49F8-9E87-951DDAB748D3?shapeType=BACKGROUND" paint-order="stroke fill markers" d=" M 2 0 L 152 0 L 152 0 A 2 2 0 0 1 154 2 L 154 100 L 154 100 A 2 2 0 0 1 152 102 L 2 102 L 2 102 A 2 2 0 0 1 0 100 L 0 2 L 0 2.0000000000000004 A 2 2 0 0 1 1.9999999999999996 0 Z"/></g><g transform="matrix(1,0,0,1,0,0)"><path fill="none" stroke="rgb(0,0,0)" id="_B0871A11-D66C-49F8-9E87-951DDAB748D3?shapeType=BORDER&amp;renderType=STROKE" paint-order="fill stroke markers" d=" M 2 0 L 152 0 L 152 0 A 2 2 0 0 1 154 2 L 154 100 L 154 100 A 2 2 0 0 1 152 102 L 2 102 L 2 102 A 2 2 0 0 1 0 100 L 0 2 L 0 2.0000000000000004 A 2 2 0 0 1 1.9999999999999996 0 Z" stroke-miterlimit="10" stroke-width="1.5" stroke-dasharray=""/></g><g transform="matrix(1,0,0,1,11.44921875,36)"><text fill="#000000" stroke="none" font-family="Open Sans" font-size="12pt" font-style="normal" font-weight="normal" text-decoration="normal" x="65.55078125" y="12" text-anchor="middle" dominant-baseline="alphabetic">   Create Drone     </text><text fill="#000000" stroke="none" font-family="Open Sans" font-size="12pt" font-style="normal" font-weight="normal" text-decoration="normal" x="65.55078125" y="27" text-anchor="middle" dominant-baseline="alphabetic">Opertational Task</text></g></g><g id="_E64B05BD-9006-43B3-B4B3-3EDCF96010C7" bpmn2nodeid="_E64B05BD-9006-43B3-B4B3-3EDCF96010C7" transform="matrix(1,0,0,1,348,235.5)"><g><path fill="none" stroke="none"/></g><g transform="matrix(1,0,0,1,0,0)"><path fill="#ffffff" stroke="none" id="_E64B05BD-9006-43B3-B4B3-3EDCF96010C7?shapeType=BACKGROUND" paint-order="stroke fill markers" d=" M 2 0 L 152 0 L 152 0 A 2 2 0 0 1 154 2 L 154 100 L 154 100 A 2 2 0 0 1 152 102 L 2 102 L 2 102 A 2 2 0 0 1 0 100 L 0 2 L 0 2.0000000000000004 A 2 2 0 0 1 1.9999999999999996 0 Z"/></g><g transform="matrix(1,0,0,1,0,0)"><path fill="none" stroke="rgb(0,0,0)" id="_E64B05BD-9006-43B3-B4B3-3EDCF96010C7?shapeType=BORDER&amp;renderType=STROKE" paint-order="fill stroke markers" d=" M 2 0 L 152 0 L 152 0 A 2 2 0 0 1 154 2 L 154 100 L 154 100 A 2 2 0 0 1 152 102 L 2 102 L 2 102 A 2 2 0 0 1 0 100 L 0 2 L 0 2.0000000000000004 A 2 2 0 0 1 1.9999999999999996 0 Z" stroke-miterlimit="10" stroke-width="1.5" stroke-dasharray=""/></g><g transform="matrix(1,0,0,1,14.43359375,36)"><text fill="#000000" stroke="none" font-family="Open Sans" font-size="12pt" font-style="normal" font-weight="normal" text-decoration="normal" x="62.56640625" y="12" text-anchor="middle" dominant-baseline="alphabetic">   Order Drone    </text><text fill="#000000" stroke="none" font-family="Open Sans" font-size="12pt" font-style="normal" font-weight="normal" text-decoration="normal" x="62.56640625" y="27" text-anchor="middle" dominant-baseline="alphabetic">Operational Task</text></g></g><g id="_9B698F0E-4E0B-40EE-A638-835EE3C539A7" bpmn2nodeid="_9B698F0E-4E0B-40EE-A638-835EE3C539A7" transform="matrix(1,0,0,1,252,190.5)"><g><path fill="none" stroke="none"/></g><g transform="matrix(0.1088409706437762,0,0,0.13071895424836602,0,0)"><g transform="matrix(1,0,0,1,0,0)"><path fill="rgb(255,255,255)" stroke="rgb(0,0,0)" id="_9B698F0E-4E0B-40EE-A638-835EE3C539A7?shapeType=BORDER&amp;renderType=STROKE" paint-order="fill stroke markers" d=" M 0 0 M 404.814 0 L 60.736 0 L 60.736 612 L 551.263 612 L 551.263 153 Z M 0 0 M 404.814 0 L 551.263 153 L 404.78839000000005 151.8588 Z" stroke-miterlimit="10" stroke-width="7" stroke-dasharray="0"/></g><g transform="matrix(1,0,0,1,0,0)"><path fill="#ffffff" stroke="none" id="_9B698F0E-4E0B-40EE-A638-835EE3C539A7_dataObject__LX2E" paint-order="stroke fill markers" d=" M 0 0 M 407.78 5.025422 L 408.62229 150.15254 L 545.9156 151 Z"/></g></g><g transform="matrix(1,0,0,1,-12.484375,85)"><text fill="#000000" stroke="none" font-family="Open Sans" font-size="12pt" font-style="normal" font-weight="normal" text-decoration="normal" x="42.484375" y="12" text-anchor="middle" dominant-baseline="alphabetic">CropHealth</text></g></g><g id="_20DCB93B-60BF-4A7C-93E8-61BDB988C9D2" bpmn2nodeid="_20DCB93B-60BF-4A7C-93E8-61BDB988C9D2" transform="matrix(1,0,0,1,580,157.5)"><g><path fill="none" stroke="none"/></g><g transform="matrix(0.1088409706437762,0,0,0.13071895424836602,0,0)"><g transform="matrix(1,0,0,1,0,0)"><path fill="rgb(255,255,255)" stroke="rgb(0,0,0)" id="_20DCB93B-60BF-4A7C-93E8-61BDB988C9D2?shapeType=BORDER&amp;renderType=STROKE" paint-order="fill stroke markers" d=" M 0 0 M 404.814 0 L 60.736 0 L 60.736 612 L 551.263 612 L 551.263 153 Z M 0 0 M 404.814 0 L 551.263 153 L 404.78839000000005 151.8588 Z" stroke-miterlimit="10" stroke-width="7" stroke-dasharray="0"/></g><g transform="matrix(1,0,0,1,0,0)"><path fill="#ffffff" stroke="none" id="_20DCB93B-60BF-4A7C-93E8-61BDB988C9D2_dataObject__LX2E" paint-order="stroke fill markers" d=" M 0 0 M 407.78 5.025422 L 408.62229 150.15254 L 545.9156 151 Z"/></g></g><g transform="matrix(1,0,0,1,-14.87890625,85)"><text fill="#000000" stroke="none" font-family="Open Sans" font-size="12pt" font-style="normal" font-weight="normal" text-decoration="normal" x="44.87890625" y="12" text-anchor="middle" dominant-baseline="alphabetic">CropSystem</text></g></g><g id="_E2DE31D6-4524-4A16-A594-5107B8647017" bpmn2nodeid="_E2DE31D6-4524-4A16-A594-5107B8647017" transform="matrix(1,0,0,1,778,147.5)"><g><path fill="none" stroke="none"/></g><g transform="matrix(0.1088409706437762,0,0,0.13071895424836602,0,0)"><g transform="matrix(1,0,0,1,0,0)"><path fill="rgb(255,255,255)" stroke="rgb(0,0,0)" id="_E2DE31D6-4524-4A16-A594-5107B8647017?shapeType=BORDER&amp;renderType=STROKE" paint-order="fill stroke markers" d=" M 0 0 M 404.814 0 L 60.736 0 L 60.736 612 L 551.263 612 L 551.263 153 Z M 0 0 M 404.814 0 L 551.263 153 L 404.78839000000005 151.8588 Z" stroke-miterlimit="10" stroke-width="7" stroke-dasharray="0"/></g><g transform="matrix(1,0,0,1,0,0)"><path fill="#ffffff" stroke="none" id="_E2DE31D6-4524-4A16-A594-5107B8647017_dataObject__LX2E" paint-order="stroke fill markers" d=" M 0 0 M 407.78 5.025422 L 408.62229 150.15254 L 545.9156 151 Z"/></g></g><g transform="matrix(1,0,0,1,-10.359375,85)"><text fill="#000000" stroke="none" font-family="Open Sans" font-size="12pt" font-style="normal" font-weight="normal" text-decoration="normal" x="40.359375" y="12" text-anchor="middle" dominant-baseline="alphabetic">CropSeries</text></g></g><g id="_52BA6BF1-0BEE-4488-A99A-0D0722870FCB" bpmn2nodeid="_52BA6BF1-0BEE-4488-A99A-0D0722870FCB" transform="matrix(1,0,0,1,441,89.35714285714286)"><g><path fill="none" stroke="none"/></g><g transform="matrix(0.1088409706437762,0,0,0.13071895424836602,0,0)"><g transform="matrix(1,0,0,1,0,0)"><path fill="rgb(255,255,255)" stroke="rgb(0,0,0)" id="_52BA6BF1-0BEE-4488-A99A-0D0722870FCB?shapeType=BORDER&amp;renderType=STROKE" paint-order="fill stroke markers" d=" M 0 0 M 404.814 0 L 60.736 0 L 60.736 612 L 551.263 612 L 551.263 153 Z M 0 0 M 404.814 0 L 551.263 153 L 404.78839000000005 151.8588 Z" stroke-miterlimit="10" stroke-width="7" stroke-dasharray="0"/></g><g transform="matrix(1,0,0,1,0,0)"><path fill="#ffffff" stroke="none" id="_52BA6BF1-0BEE-4488-A99A-0D0722870FCB_dataObject__LX2E" paint-order="stroke fill markers" d=" M 0 0 M 407.78 5.025422 L 408.62229 150.15254 L 545.9156 151 Z"/></g></g><g transform="matrix(1,0,0,1,-21.6796875,85)"><text fill="#000000" stroke="none" font-family="Open Sans" font-size="12pt" font-style="normal" font-weight="normal" text-decoration="normal" x="51.6796875" y="12" text-anchor="middle" dominant-baseline="alphabetic">CropItenerary</text></g></g><g id="_B367EB17-2015-42BA-9AF0-5BA1480A6AFB" bpmn2nodeid="_B367EB17-2015-42BA-9AF0-5BA1480A6AFB" transform="matrix(1,0,0,1,617,265.5)"><g><path fill="none" stroke="none"/></g><g transform="matrix(1,0,0,1,0,0)"><path fill="#ffffff" stroke="none" id="_B367EB17-2015-42BA-9AF0-5BA1480A6AFB?shapeType=BACKGROUND" paint-order="stroke fill markers" d=" M 2 0 L 152 0 L 152 0 A 2 2 0 0 1 154 2 L 154 100 L 154 100 A 2 2 0 0 1 152 102 L 2 102 L 2 102 A 2 2 0 0 1 0 100 L 0 2 L 0 2.0000000000000004 A 2 2 0 0 1 1.9999999999999996 0 Z"/></g><g transform="matrix(1,0,0,1,0,0)"><path fill="none" stroke="rgb(0,0,0)" id="_B367EB17-2015-42BA-9AF0-5BA1480A6AFB?shapeType=BORDER&amp;renderType=STROKE" paint-order="fill stroke markers" d=" M 2 0 L 152 0 L 152 0 A 2 2 0 0 1 154 2 L 154 100 L 154 100 A 2 2 0 0 1 152 102 L 2 102 L 2 102 A 2 2 0 0 1 0 100 L 0 2 L 0 2.0000000000000004 A 2 2 0 0 1 1.9999999999999996 0 Z" stroke-miterlimit="10" stroke-width="1.5" stroke-dasharray=""/></g><g transform="matrix(1,0,0,1,4.99609375,36)"><text fill="#000000" stroke="none" font-family="Open Sans" font-size="12pt" font-style="normal" font-weight="normal" text-decoration="normal" x="72.00390625" y="12" text-anchor="middle" dominant-baseline="alphabetic">Collect Drone Data </text><text fill="#000000" stroke="none" font-family="Open Sans" font-size="12pt" font-style="normal" font-weight="normal" text-decoration="normal" x="72.00390625" y="27" text-anchor="middle" dominant-baseline="alphabetic">             Task              </text></g></g><g id="_23D0A3C8-6450-4F85-A975-C3429EF0FBE4" bpmn2nodeid="_23D0A3C8-6450-4F85-A975-C3429EF0FBE4" transform="matrix(1,0,0,1,1211,71.5)"><g><path fill="none" stroke="none"/></g><g transform="matrix(0.125,0,0,0.125,0,0)"><g transform="matrix(1,0,0,1,0,0)"><path fill="#fef4ea" stroke="none" id="_23D0A3C8-6450-4F85-A975-C3429EF0FBE4?shapeType=BACKGROUND" paint-order="stroke fill markers" d=" M 0 0 M 224.4 4.3 C 216.4 4.3 208.4 7.3 202.3 13.399999999999999 L 13.5 202.2 C 1.3000000000000007 214.39999999999998 1.3000000000000007 234.2 13.5 246.39999999999998 L 202.2 435.09999999999997 C 208.29999999999998 441.2 216.39999999999998 444.2 224.29999999999998 444.2 C 232.2 444.2 240.29999999999998 441.2 246.39999999999998 435.09999999999997 L 435.09999999999997 246.39999999999998 C 447.29999999999995 234.2 447.29999999999995 214.39999999999998 435.09999999999997 202.2 L 246.5 13.4 C 240.4 7.3 232.4 4.3 224.4 4.3 L 224.4 4.3 Z"/></g><g><g transform="matrix(1,0,0,1,0,0)"><g transform="matrix(1,0,0,1,0,0)"><path fill="rgb(236,122,8)" stroke="none" id="_23D0A3C8-6450-4F85-A975-C3429EF0FBE4?shapeType=BORDER&amp;renderType=FILL" paint-order="stroke fill markers" d=" M 0 0 M 20.8 212.7 L 213.3 20.2 C 219.60000000000002 13.899999999999999 229.70000000000002 13.899999999999999 235.9 20.2 L 428.4 212.7 C 434.7 219 434.7 229.1 428.4 235.29999999999998 L 235.9 427.8 C 229.6 434.1 219.5 434.1 213.3 427.8 L 20.8 235.3 C 14.5 229.1 14.5 218.9 20.8 212.7 L 20.8 212.7 Z M 0 0 M 0 224 C 0 232.1 3.1 240.3 9.3 246.5 L 201.5 438.7 C 213.9 451.09999999999997 234.1 451.09999999999997 246.5 438.7 L 438.7 246.5 C 444.9 240.3 448 232.1 448 224 C 448 215.9 444.9 207.7 438.7 201.5 L 246.5 9.3 C 234.1 -3.0999999999999996 213.9 -3.0999999999999996 201.5 9.3 L 9.3 201.5 C 3.1 207.7 0 215.9 0 224 L 0 224 Z"/></g></g></g><g><g transform="matrix(1,0,0,1,0,0)"><g transform="matrix(1,0,0,1,0,0)"><path fill="#ec7a08" stroke="none" id="_23D0A3C8-6450-4F85-A975-C3429EF0FBE4_exclusive" paint-order="stroke fill markers" d=" M 0 0 M 298.2 269.2 C 298.2 272.59999999999997 297.09999999999997 275.3 294.7 277.7 L 277.7 294.7 C 275.3 297.09999999999997 272.59999999999997 298.2 269.2 298.2 C 265.8 298.2 263.09999999999997 297.09999999999997 260.7 294.7 L 224 258 L 187.2 294.8 C 184.79999999999998 297.2 182.1 298.3 178.7 298.3 C 175.29999999999998 298.3 172.6 297.2 170.2 294.8 L 153.2 277.8 C 150.79999999999998 275.40000000000003 149.7 272.7 149.7 269.3 C 149.7 265.90000000000003 150.79999999999998 263.2 153.2 260.8 L 190 224 L 153.2 187.2 C 150.79999999999998 184.79999999999998 149.7 182 149.7 178.7 C 149.7 175.29999999999998 150.79999999999998 172.5 153.2 170.2 L 170.2 153.2 C 172.6 150.79999999999998 175.29999999999998 149.7 178.7 149.7 C 182.1 149.7 184.79999999999998 150.79999999999998 187.2 153.2 L 224 190 L 260.8 153.2 C 263.2 150.79999999999998 265.90000000000003 149.7 269.3 149.7 C 272.7 149.7 275.40000000000003 150.79999999999998 277.8 153.2 L 294.8 170.2 C 297.2 172.5 298.3 175.29999999999998 298.3 178.7 C 298.3 182 297.2 184.79999999999998 294.8 187.2 L 258 224 L 294.8 260.8 C 297.1 263.1 298.2 265.9 298.2 269.2 Z"/></g></g></g></g><g transform="matrix(1,0,0,1,-60.5234375,61)"><text fill="#000000" stroke="none" font-family="Open Sans" font-size="12pt" font-style="normal" font-weight="normal" text-decoration="normal" x="88.5234375" y="12" text-anchor="middle" dominant-baseline="alphabetic">If drone data has direct </text><text fill="#000000" stroke="none" font-family="Open Sans" font-size="12pt" font-style="normal" font-weight="normal" text-decoration="normal" x="88.5234375" y="27" text-anchor="middle" dominant-baseline="alphabetic">              actions?              </text></g></g><g id="_0709ADCE-01F7-4667-B0D0-59CD376EE82A" bpmn2nodeid="_0709ADCE-01F7-4667-B0D0-59CD376EE82A" transform="matrix(1,0,0,1,1355.142857142857,73.70138451856513)"><g><path fill="none" stroke="none"/></g><g transform="matrix(1,0,0,1,0,0)"><path fill="#ffffff" stroke="none" id="_0709ADCE-01F7-4667-B0D0-59CD376EE82A?shapeType=BACKGROUND" paint-order="stroke fill markers" d=" M 2 0 L 152 0 L 152 0 A 2 2 0 0 1 154 2 L 154 100 L 154 100 A 2 2 0 0 1 152 102 L 2 102 L 2 102 A 2 2 0 0 1 0 100 L 0 2 L 0 2.0000000000000004 A 2 2 0 0 1 1.9999999999999996 0 Z"/></g><g transform="matrix(1,0,0,1,0,0)"><path fill="none" stroke="rgb(0,0,0)" id="_0709ADCE-01F7-4667-B0D0-59CD376EE82A?shapeType=BORDER&amp;renderType=STROKE" paint-order="fill stroke markers" d=" M 2 0 L 152 0 L 152 0 A 2 2 0 0 1 154 2 L 154 100 L 154 100 A 2 2 0 0 1 152 102 L 2 102 L 2 102 A 2 2 0 0 1 0 100 L 0 2 L 0 2.0000000000000004 A 2 2 0 0 1 1.9999999999999996 0 Z" stroke-miterlimit="10" stroke-width="1.5" stroke-dasharray=""/></g><g transform="matrix(1,0,0,1,4.81640625,28.5)"><text fill="#000000" stroke="none" font-family="Open Sans" font-size="12pt" font-style="normal" font-weight="normal" text-decoration="normal" x="72.18359375" y="12" text-anchor="middle" dominant-baseline="alphabetic">  Prepare for non    </text><text fill="#000000" stroke="none" font-family="Open Sans" font-size="12pt" font-style="normal" font-weight="normal" text-decoration="normal" x="72.18359375" y="27" text-anchor="middle" dominant-baseline="alphabetic">drone based direct </text><text fill="#000000" stroke="none" font-family="Open Sans" font-size="12pt" font-style="normal" font-weight="normal" text-decoration="normal" x="72.18359375" y="42" text-anchor="middle" dominant-baseline="alphabetic">           actions           </text></g></g><g id="_A5A58882-4ED8-4B84-B27C-48433882546A" bpmn2nodeid="_A5A58882-4ED8-4B84-B27C-48433882546A" transform="matrix(1,0,0,1,1289.142857142857,227.5)"><g><path fill="none" stroke="none"/></g><g transform="matrix(1,0,0,1,0,0)"><path fill="#ffffff" stroke="none" id="_A5A58882-4ED8-4B84-B27C-48433882546A?shapeType=BACKGROUND" paint-order="stroke fill markers" d=" M 2 0 L 151 0 L 151 0 A 2 2 0 0 1 153 2 L 153 99 L 153 99 A 2 2 0 0 1 151 101 L 2 101 L 2 101 A 2 2 0 0 1 0 99 L 0 2 L 0 2.0000000000000004 A 2 2 0 0 1 1.9999999999999996 0 Z"/></g><g transform="matrix(1,0,0,1,0,0)"><path fill="none" stroke="rgb(0,0,0)" id="_A5A58882-4ED8-4B84-B27C-48433882546A?shapeType=BORDER&amp;renderType=STROKE" paint-order="fill stroke markers" d=" M 2 0 L 151 0 L 151 0 A 2 2 0 0 1 153 2 L 153 99 L 153 99 A 2 2 0 0 1 151 101 L 2 101 L 2 101 A 2 2 0 0 1 0 99 L 0 2 L 0 2.0000000000000004 A 2 2 0 0 1 1.9999999999999996 0 Z" stroke-miterlimit="10" stroke-width="1.5" stroke-dasharray=""/></g><g transform="matrix(1,0,0,1,6.93359375,28)"><text fill="#000000" stroke="none" font-family="Open Sans" font-size="12pt" font-style="normal" font-weight="normal" text-decoration="normal" x="69.56640625" y="12" text-anchor="middle" dominant-baseline="alphabetic">Prepare for Drone </text><text fill="#000000" stroke="none" font-family="Open Sans" font-size="12pt" font-style="normal" font-weight="normal" text-decoration="normal" x="69.56640625" y="27" text-anchor="middle" dominant-baseline="alphabetic">     Based Direct      </text><text fill="#000000" stroke="none" font-family="Open Sans" font-size="12pt" font-style="normal" font-weight="normal" text-decoration="normal" x="69.56640625" y="42" text-anchor="middle" dominant-baseline="alphabetic">           Action           </text></g></g><g id="_174D01E0-44B4-4C8F-A39F-C6614CD94916" bpmn2nodeid="_174D01E0-44B4-4C8F-A39F-C6614CD94916" transform="matrix(1,0,0,1,1051,263.5)"><g><path fill="none" stroke="none"/></g><g transform="matrix(1,0,0,1,0,0)"><path fill="#ffffff" stroke="none" id="_174D01E0-44B4-4C8F-A39F-C6614CD94916?shapeType=BACKGROUND" paint-order="stroke fill markers" d=" M 2 0 L 151 0 L 151 0 A 2 2 0 0 1 153 2 L 153 99 L 153 99 A 2 2 0 0 1 151 101 L 2 101 L 2 101 A 2 2 0 0 1 0 99 L 0 2 L 0 2.0000000000000004 A 2 2 0 0 1 1.9999999999999996 0 Z"/></g><g transform="matrix(1,0,0,1,0,0)"><path fill="none" stroke="rgb(0,0,0)" id="_174D01E0-44B4-4C8F-A39F-C6614CD94916?shapeType=BORDER&amp;renderType=STROKE" paint-order="fill stroke markers" d=" M 2 0 L 151 0 L 151 0 A 2 2 0 0 1 153 2 L 153 99 L 153 99 A 2 2 0 0 1 151 101 L 2 101 L 2 101 A 2 2 0 0 1 0 99 L 0 2 L 0 2.0000000000000004 A 2 2 0 0 1 1.9999999999999996 0 Z" stroke-miterlimit="10" stroke-width="1.5" stroke-dasharray=""/></g><g transform="matrix(1,0,0,1,31.62109375,35.5)"><text fill="#000000" stroke="none" font-family="Open Sans" font-size="12pt" font-style="normal" font-weight="normal" text-decoration="normal" x="44.87890625" y="12" text-anchor="middle" dominant-baseline="alphabetic">Drone Data </text><text fill="#000000" stroke="none" font-family="Open Sans" font-size="12pt" font-style="normal" font-weight="normal" text-decoration="normal" x="44.87890625" y="27" text-anchor="middle" dominant-baseline="alphabetic">   Analysis    </text></g></g><g id="_5D809BC7-4801-4060-9C68-35E5207436F5" bpmn2nodeid="_5D809BC7-4801-4060-9C68-35E5207436F5" transform="matrix(1,0,0,1,834,265.5)"><g><path fill="none" stroke="none"/></g><g transform="matrix(1,0,0,1,0,0)"><path fill="#ffffff" stroke="none" id="_5D809BC7-4801-4060-9C68-35E5207436F5?shapeType=BACKGROUND" paint-order="stroke fill markers" d=" M 2 0 L 152 0 L 152 0 A 2 2 0 0 1 154 2 L 154 100 L 154 100 A 2 2 0 0 1 152 102 L 2 102 L 2 102 A 2 2 0 0 1 0 100 L 0 2 L 0 2.0000000000000004 A 2 2 0 0 1 1.9999999999999996 0 Z"/></g><g transform="matrix(1,0,0,1,0,0)"><path fill="none" stroke="rgb(0,0,0)" id="_5D809BC7-4801-4060-9C68-35E5207436F5?shapeType=BORDER&amp;renderType=STROKE" paint-order="fill stroke markers" d=" M 2 0 L 152 0 L 152 0 A 2 2 0 0 1 154 2 L 154 100 L 154 100 A 2 2 0 0 1 152 102 L 2 102 L 2 102 A 2 2 0 0 1 0 100 L 0 2 L 0 2.0000000000000004 A 2 2 0 0 1 1.9999999999999996 0 Z" stroke-miterlimit="10" stroke-width="1.5" stroke-dasharray=""/></g><g transform="matrix(1,0,0,1,-0.83203125,36)"><text fill="#000000" stroke="none" font-family="Open Sans" font-size="12pt" font-style="normal" font-weight="normal" text-decoration="normal" x="77.83203125" y="12" text-anchor="middle" dominant-baseline="alphabetic">Close Order Drone O</text><text fill="#000000" stroke="none" font-family="Open Sans" font-size="12pt" font-style="normal" font-weight="normal" text-decoration="normal" x="77.83203125" y="27" text-anchor="middle" dominant-baseline="alphabetic">     perational Task     </text></g></g></g><g id="_82187188-F608-47B2-A217-7C8B91F0FB9E" bpmn2nodeid="_82187188-F608-47B2-A217-7C8B91F0FB9E" transform="matrix(1,0,0,1,0,0)"><g><path fill="none" stroke="#000000" paint-order="fill stroke markers" d=" M 325 409.9576397254456 L 361 409.9378349217578 L 361 219 L 393 219" stroke-miterlimit="10" stroke-dasharray=""/></g><g transform="matrix(1,0,0,1,325,409.9576397254456)"/><g transform="matrix(6.123233995736766e-17,1,-1,6.123233995736766e-17,408,214)"><path fill="#000000" stroke="#000000" paint-order="fill stroke markers" d=" M 10 15 L 0 15 L 5 0 Z" stroke-miterlimit="10" stroke-dasharray=""/></g><g transform="matrix(1,0,0,1,325.0055013335252,399.94773883683536)"/></g><g id="_237BC260-F056-4A08-A5A8-D1C755C5B8CA" bpmn2nodeid="_237BC260-F056-4A08-A5A8-D1C755C5B8CA" transform="matrix(1,0,0,1,0,0)"><g><path fill="none" stroke="#000000" paint-order="fill stroke markers" d=" M 562 219 L 610 219" stroke-miterlimit="10" stroke-dasharray=""/></g><g transform="matrix(1,0,0,1,562,219)"/><g transform="matrix(6.123233995736766e-17,1,-1,6.123233995736766e-17,625,214)"><path fill="#000000" stroke="#000000" paint-order="fill stroke markers" d=" M 10 15 L 0 15 L 5 0 Z" stroke-miterlimit="10" stroke-dasharray=""/></g><g transform="matrix(1,0,0,1,562,209)"/></g><g id="_A9FC8227-7612-4C57-BEA4-0CC0F3B4165C" bpmn2nodeid="_A9FC8227-7612-4C57-BEA4-0CC0F3B4165C" transform="matrix(1,0,0,1,0,0)"><g><path fill="none" stroke="#000000" paint-order="fill stroke markers" d=" M 779 219 L 835 219" stroke-miterlimit="10" stroke-dasharray=""/></g><g transform="matrix(1,0,0,1,779,219)"/><g transform="matrix(6.123233995736766e-17,1,-1,6.123233995736766e-17,850,214)"><path fill="#000000" stroke="#000000" paint-order="fill stroke markers" d=" M 10 15 L 0 15 L 5 0 Z" stroke-miterlimit="10" stroke-dasharray=""/></g><g transform="matrix(1,0,0,1,779,209)"/></g><g id="_BF3C136F-F3CD-4793-9957-04D1D79E507F" bpmn2nodeid="_BF3C136F-F3CD-4793-9957-04D1D79E507F" transform="matrix(1,0,0,1,0,0)"><g><path fill="none" stroke="#000000" paint-order="fill stroke markers" d=" M 248 269.5 L 248 344" stroke-miterlimit="10" stroke-dasharray=""/></g><g transform="matrix(1,0,0,1,248,269.5)"/><g transform="matrix(-1,1.2246467991473532e-16,-1.2246467991473532e-16,-1,253,359)"><path fill="#000000" stroke="#000000" paint-order="fill stroke markers" d=" M 10 15 L 0 15 L 5 0 Z" stroke-miterlimit="10" stroke-dasharray=""/></g><g transform="matrix(1,0,0,1,258,314.25)"/></g><g id="_32B53AD5-5E4E-4CDF-A769-6BFADF3A434D" bpmn2nodeid="_32B53AD5-5E4E-4CDF-A769-6BFADF3A434D" transform="matrix(1,0,0,1,0,0)"><g><path fill="none" stroke="#000000" paint-order="fill stroke markers" d=" M 1004 219 L 1050 219" stroke-miterlimit="10" stroke-dasharray=""/></g><g transform="matrix(1,0,0,1,1004,219)"/><g transform="matrix(6.123233995736766e-17,1,-1,6.123233995736766e-17,1065,214)"><path fill="#000000" stroke="#000000" paint-order="fill stroke markers" d=" M 10 15 L 0 15 L 5 0 Z" stroke-miterlimit="10" stroke-dasharray=""/></g><g transform="matrix(1,0,0,1,1004,209)"/></g><g id="_A8FC3A2F-4E08-4B3A-9815-8EDF993BC32B" bpmn2nodeid="_A8FC3A2F-4E08-4B3A-9815-8EDF993BC32B"><g><path fill="none" stroke="#000000" paint-order="fill stroke markers" d=" M 229 50.99998636448637 L 248 50.999977111816406 L 248 152.5" stroke-miterlimit="10" stroke-dasharray=""/></g><g transform="matrix(1,0,0,1,229,50.99998636448637)"/><g transform="matrix(-1,1.2246467991473532e-16,-1.2246467991473532e-16,-1,253,167.5)"><path fill="#000000" stroke="#000000" paint-order="fill stroke markers" d=" M 10 15 L 0 15 L 5 0 Z" stroke-miterlimit="10" stroke-dasharray=""/></g><g transform="matrix(1,0,0,1,229.00000486982628,40.99998173815258)"/></g><g id="_E9A9ED85-B4B6-4153-8685-AA46E891067E" bpmn2nodeid="_E9A9ED85-B4B6-4153-8685-AA46E891067E" transform="matrix(1,0,0,1,0,0)"><g><path fill="none" stroke="rgb(0,0,0)" paint-order="fill stroke markers" d=" M 1141.6033275923594 270 L 1141.3144345223689 307.1428571428571 L 935.7142857142857 307.1428571428571 L 543.8125983148158 307.1428571428571 L 543.1419117572694 330.57142857142856 L 543.134434452852 330.0012898353362" stroke-miterlimit="10" stroke-dasharray=""/></g><g transform="matrix(1,0,0,1,1141.6033275923594,270)"/><g transform="matrix(-0.9999140109775885,0.013113758069721206,-0.013113758069721206,-0.9999140109775885,548.3307108787858,344.9344312096514)"><path fill="rgb(0,0,0)" stroke="rgb(0,0,0)" paint-order="fill stroke markers" d=" M 10 15 L 0 15 L 5 0 Z" stroke-miterlimit="10" stroke-dasharray=""/></g><g transform="matrix(1,0,0,1,1151.314132058201,288.4936520205027)"/></g><g id="_A67AA8BB-4E53-4679-8405-B8D07206A4DB" bpmn2nodeid="_A67AA8BB-4E53-4679-8405-B8D07206A4DB" transform="matrix(1,0,0,1,0,0)"><g><path fill="none" stroke="rgb(0,0,0)" paint-order="fill stroke markers" d=" M 1246.499949435481 373 L 1246.499785225954 209 L 1315 209" stroke-miterlimit="10" stroke-dasharray=""/></g><g transform="matrix(1,0,0,1,1246.499949435481,373)"/><g transform="matrix(6.123233995736766e-17,1,-1,6.123233995736766e-17,1330,204)"><path fill="rgb(0,0,0)" stroke="rgb(0,0,0)" paint-order="fill stroke markers" d=" M 10 15 L 0 15 L 5 0 Z" stroke-miterlimit="10" stroke-dasharray=""/></g><g transform="matrix(1,0,0,1,1256.499785225949,290.99998998722396)"/></g><g id="_C61C39C1-984D-4AC9-B9B9-B40992BA2466" bpmn2nodeid="_C61C39C1-984D-4AC9-B9B9-B40992BA2466" transform="matrix(1,0,0,1,0,0)"><g><path fill="none" stroke="rgb(0,0,0)" paint-order="fill stroke markers" d=" M 1358.0011995955406 237 L 1358.0045841686726 316 L 1484.642857142857 316 L 1484.642857142857 322" stroke-miterlimit="10" stroke-dasharray=""/></g><g transform="matrix(1,0,0,1,1358.0011995955406,237)"/><g transform="matrix(-1,1.2246467991473532e-16,-1.2246467991473532e-16,-1,1489.642857142857,337)"><path fill="rgb(0,0,0)" stroke="rgb(0,0,0)" paint-order="fill stroke markers" d=" M 10 15 L 0 15 L 5 0 Z" stroke-miterlimit="10" stroke-dasharray=""/></g><g transform="matrix(1,0,0,1,1368.0011995863633,276.4995715730216)"/></g><g transform="matrix(1,0,0,1,119,109.5)"/><g transform="matrix(1,0,0,1,408,168)"/><g transform="matrix(1,0,0,1,625,168)"/><g transform="matrix(1,0,0,1,171,359)"/><g transform="matrix(1,0,0,1,850,168)"/><g transform="matrix(1,0,0,1,171,167.5)"/><g transform="matrix(1,0,0,1,1065,168)"/><g transform="matrix(1,0,0,1,467,345)"/><g transform="matrix(1,0,0,1,371,300)"/><g transform="matrix(1,0,0,1,699,267)"/><g transform="matrix(1,0,0,1,897,257)"/><g transform="matrix(1,0,0,1,560,198.85714285714286)"/><g transform="matrix(1,0,0,1,736,375)"/><g transform="matrix(1,0,0,1,1330,181)"/><g transform="matrix(1,0,0,1,1474.142857142857,183.20138451856513)"/><g transform="matrix(1,0,0,1,1408.142857142857,337)"/><g transform="matrix(1,0,0,1,1170,373)"/><g id="_BF5F2B10-936B-4C2C-9332-98EC18B6F506" bpmn2nodeid="_BF5F2B10-936B-4C2C-9332-98EC18B6F506" transform="matrix(1,0,0,1,0,0)"><g><path fill="none" stroke="rgb(0,0,0)" paint-order="fill stroke markers" d=" M 890 426 L 938 426" stroke-miterlimit="10" stroke-dasharray=""/></g><g transform="matrix(1,0,0,1,890,426)"/><g transform="matrix(6.123233995736766e-17,1,-1,6.123233995736766e-17,953,421)"><path fill="rgb(0,0,0)" stroke="rgb(0,0,0)" paint-order="fill stroke markers" d=" M 10 15 L 0 15 L 5 0 Z" stroke-miterlimit="10" stroke-dasharray=""/></g><g transform="matrix(1,0,0,1,890,416)"/></g><g transform="matrix(1,0,0,1,953,375)"/><g id="_97092F33-D627-4342-A07B-687F5792C9E6" bpmn2nodeid="_97092F33-D627-4342-A07B-687F5792C9E6"><g><path fill="none" stroke="rgb(0,0,0)" paint-order="fill stroke markers" d=" M 1107 424.625 L 1155.0023910098184 423.7678144462532" stroke-miterlimit="10" stroke-dasharray=""/></g><g transform="matrix(1,0,0,1,1107,424.625)"/><g transform="matrix(0.01785429641688199,0.9998405993454447,-0.9998405993454447,0.01785429641688199,1169.9107285179157,418.5007970032728)"><path fill="rgb(0,0,0)" stroke="rgb(0,0,0)" paint-order="fill stroke markers" d=" M 10 15 L 0 15 L 5 0 Z" stroke-miterlimit="10" stroke-dasharray=""/></g><g transform="matrix(1,0,0,1,1107.1785429641689,414.06409400654553)"/></g><g id="_231CC96B-A733-4B56-A671-BDC1E8E41564" bpmn2nodeid="_231CC96B-A733-4B56-A671-BDC1E8E41564" transform="matrix(1,0,0,1,129.8571428571429,548)"><g><path fill="none" stroke="none"/></g><g transform="matrix(1,0,0,1,0,0)"><path fill="#f2f2f2" stroke="none" id="_231CC96B-A733-4B56-A671-BDC1E8E41564?shapeType=BACKGROUND" paint-order="stroke fill markers" d=" M 0 0 L 1584.2857142857142 0 L 1584.2857142857142 268.57142857142856 L 0 268.57142857142856 L 0 0 Z Z"/></g><g transform="matrix(1,0,0,1,0,0)"><path fill="none" stroke="rgb(0,136,206)" id="_231CC96B-A733-4B56-A671-BDC1E8E41564?shapeType=BORDER&amp;renderType=STROKE" paint-order="fill stroke markers" d=" M 0 0 L 1584.2857142857142 0 L 1584.2857142857142 268.57142857142856 L 0 268.57142857142856 L 0 0 Z Z" stroke-miterlimit="10" stroke-width="0.5" stroke-dasharray=""/></g><g transform="matrix(-1.8369701987210297e-16,-1,1,-1.8369701987210297e-16,0,152.28571428571428)"><text fill="#000000" stroke="none" font-family="Open Sans" font-size="12pt" font-style="normal" font-weight="normal" text-decoration="normal" x="18" y="12" text-anchor="middle" dominant-baseline="alphabetic">Lane</text></g><g id="_EE8E7782-0E8D-4A6E-AC83-7D62080DC299" bpmn2nodeid="_EE8E7782-0E8D-4A6E-AC83-7D62080DC299" transform="matrix(1,0,0,1,67.14285714285711,83)"><g><path fill="none" stroke="none"/></g><g transform="matrix(1,0,0,1,0,0)"><path fill="#ffffff" stroke="none" id="_EE8E7782-0E8D-4A6E-AC83-7D62080DC299?shapeType=BACKGROUND" paint-order="stroke fill markers" d=" M 2 0 L 152 0 L 152 0 A 2 2 0 0 1 154 2 L 154 100 L 154 100 A 2 2 0 0 1 152 102 L 2 102 L 2 102 A 2 2 0 0 1 0 100 L 0 2 L 0 2.0000000000000004 A 2 2 0 0 1 1.9999999999999996 0 Z"/></g><g transform="matrix(1,0,0,1,0,0)"><path fill="none" stroke="rgb(0,0,0)" id="_EE8E7782-0E8D-4A6E-AC83-7D62080DC299?shapeType=BORDER&amp;renderType=STROKE" paint-order="fill stroke markers" d=" M 2 0 L 152 0 L 152 0 A 2 2 0 0 1 154 2 L 154 100 L 154 100 A 2 2 0 0 1 152 102 L 2 102 L 2 102 A 2 2 0 0 1 0 100 L 0 2 L 0 2.0000000000000004 A 2 2 0 0 1 1.9999999999999996 0 Z" stroke-miterlimit="10" stroke-width="1.5" stroke-dasharray=""/></g><g><g transform="matrix(0.06,0,0,0.06,9.4,9.4)"><g transform="matrix(1,0,0,1,0,0)"><path fill="#393f44" stroke="none" id="_EE8E7782-0E8D-4A6E-AC83-7D62080DC299_task__kr51__x4SI" paint-order="stroke fill markers" d=" M 0 0 M 16 445.2101 C 16 440.86867 18.784312 431.12906000000004 22.001325 424.21728 C 35.767643 394.6402 77.282944 359.28049 129 333.08362 C 144.51625 325.22398 157.34689 319.96394 167.80739 317.17416 C 171.93153 316.07426 175.72913 314.41389999999996 176.5251 313.36265 C 178.89361 310.23449999999997 180.91404 302.90781 181.72673 294.5 L 182.5 286.5 L 178.50715 283.45457 C 166.30327 274.14645 154.2837 251.67767 148.03953 226.5 C 145.61086 216.70715 145.05603000000002 215.46246 142.98364 215.1579 C 141.70332000000002 214.96974 138.08302 212.24302 134.93852 209.09852 C 123.23314 197.39314000000002 116.89146000000001 177.37556 121.43982000000001 166.48978 C 123.00204000000001 162.75088 128.15457 159.00970999999998 131.75 159.00374 C 134.44781 158.99974 134.47062 158.60296 132.91375 138.78796 C 130.92658 113.4962 134.27903 92.26542699999999 143.13217 74.075676 C 152.23162 55.379835 167.56889 42.88208 189.04934 36.659507000000005 C 210.20334 30.531504000000005 237.79666 30.531504000000005 258.95065999999997 36.659507000000005 C 300.04166 48.562968000000005 318.95842 83.80634 314.95504999999997 141 C 314.31982999999997 150.075 313.62402 157.78816 313.4088 158.14035 C 313.19359 158.49254000000002 314.57532 159.07295000000002 316.47931 159.43014000000002 C 328.92867 161.76565000000002 330.98619 177.01772000000003 321.49638 196.62092 C 316.90319 206.10912000000002 309.35724 214.50797 304.81732 215.18517000000003 C 303.02259 215.45289000000002 302.2931 217.14618000000002 299.94277999999997 226.50000000000003 C 296.65948 239.56693 294.47402 245.30522000000002 287.94764 257.99534000000006 C 282.49071999999995 268.60596000000004 273.03466 281.10922000000005 268.10756999999995 284.2288300000001 L 264.87062 286.27832000000006 L 265.51815999999997 292.88916000000006 C 266.34490999999997 301.32961000000006 268.63948999999997 309.8706000000001 270.87735999999995 312.83742000000007 C 272.06735 314.4150200000001 275.00244999999995 315.78963000000005 280.0630699999999 317.13941000000005 C 291.06929999999994 320.0750300000001 303.61700999999994 325.27420000000006 320.99999999999994 334.10171 C 369.81470999999993 358.89104000000003 410.84810999999996 393.75797 425.03216 422.5 C 429.06985999999995 430.68183 432 440.23198 432 445.2101 L 432 448 L 224 448 L 16 448 L 16 445.2101 Z"/></g></g></g><g transform="matrix(1,0,0,1,4.039999999999992,13.680000000000007)"><g transform="matrix(0.04,0,0,0.04,63.36,69.12)"><g transform="matrix(1,0,0,1,0,0)"><path fill="none" stroke="none"/></g><g transform="matrix(1,0,0,1,0,0)"><path fill="none" stroke="none"/></g></g></g><g transform="matrix(1,0,0,1,42.90234375,36)"><text fill="#000000" stroke="none" font-family="Open Sans" font-size="12pt" font-style="normal" font-weight="normal" text-decoration="normal" x="34.09765625" y="12" text-anchor="middle" dominant-baseline="alphabetic">  Drone   </text><text fill="#000000" stroke="none" font-family="Open Sans" font-size="12pt" font-style="normal" font-weight="normal" text-decoration="normal" x="34.09765625" y="27" text-anchor="middle" dominant-baseline="alphabetic">Operator</text></g></g><g id="_DCE27CFE-BDEB-4EF4-9C59-BF3643187681" bpmn2nodeid="_DCE27CFE-BDEB-4EF4-9C59-BF3643187681" transform="matrix(1,0,0,1,346.71428571428567,83.42857142857133)"><g><path fill="none" stroke="none"/></g><g transform="matrix(1,0,0,1,0,0)"><path fill="#ffffff" stroke="none" id="_DCE27CFE-BDEB-4EF4-9C59-BF3643187681?shapeType=BACKGROUND" paint-order="stroke fill markers" d=" M 2 0 L 152 0 L 152 0 A 2 2 0 0 1 154 2 L 154 100 L 154 100 A 2 2 0 0 1 152 102 L 2 102 L 2 102 A 2 2 0 0 1 0 100 L 0 2 L 0 2.0000000000000004 A 2 2 0 0 1 1.9999999999999996 0 Z"/></g><g transform="matrix(1,0,0,1,0,0)"><path fill="none" stroke="rgb(0,0,0)" id="_DCE27CFE-BDEB-4EF4-9C59-BF3643187681?shapeType=BORDER&amp;renderType=STROKE" paint-order="fill stroke markers" d=" M 2 0 L 152 0 L 152 0 A 2 2 0 0 1 154 2 L 154 100 L 154 100 A 2 2 0 0 1 152 102 L 2 102 L 2 102 A 2 2 0 0 1 0 100 L 0 2 L 0 2.0000000000000004 A 2 2 0 0 1 1.9999999999999996 0 Z" stroke-miterlimit="10" stroke-width="1.5" stroke-dasharray=""/></g><g transform="matrix(1,0,0,1,14.43359375,36)"><text fill="#000000" stroke="none" font-family="Open Sans" font-size="12pt" font-style="normal" font-weight="normal" text-decoration="normal" x="62.56640625" y="12" text-anchor="middle" dominant-baseline="alphabetic"> Exceute Drone   </text><text fill="#000000" stroke="none" font-family="Open Sans" font-size="12pt" font-style="normal" font-weight="normal" text-decoration="normal" x="62.56640625" y="27" text-anchor="middle" dominant-baseline="alphabetic">Operational Task</text></g></g><g id="_3950E43C-C21D-4DDF-91DC-703BF46D4F90" bpmn2nodeid="_3950E43C-C21D-4DDF-91DC-703BF46D4F90" transform="matrix(1,0,0,1,606,83.28571428571422)"><g><path fill="none" stroke="none"/></g><g transform="matrix(1,0,0,1,0,0)"><path fill="#ffffff" stroke="none" id="_3950E43C-C21D-4DDF-91DC-703BF46D4F90?shapeType=BACKGROUND" paint-order="stroke fill markers" d=" M 2 0 L 152 0 L 152 0 A 2 2 0 0 1 154 2 L 154 100 L 154 100 A 2 2 0 0 1 152 102 L 2 102 L 2 102 A 2 2 0 0 1 0 100 L 0 2 L 0 2.0000000000000004 A 2 2 0 0 1 1.9999999999999996 0 Z"/></g><g transform="matrix(1,0,0,1,0,0)"><path fill="none" stroke="rgb(0,0,0)" id="_3950E43C-C21D-4DDF-91DC-703BF46D4F90?shapeType=BORDER&amp;renderType=STROKE" paint-order="fill stroke markers" d=" M 2 0 L 152 0 L 152 0 A 2 2 0 0 1 154 2 L 154 100 L 154 100 A 2 2 0 0 1 152 102 L 2 102 L 2 102 A 2 2 0 0 1 0 100 L 0 2 L 0 2.0000000000000004 A 2 2 0 0 1 1.9999999999999996 0 Z" stroke-miterlimit="10" stroke-width="1.5" stroke-dasharray=""/></g><g transform="matrix(1,0,0,1,28.51171875,36)"><text fill="#000000" stroke="none" font-family="Open Sans" font-size="12pt" font-style="normal" font-weight="normal" text-decoration="normal" x="48.48828125" y="12" text-anchor="middle" dominant-baseline="alphabetic"> Drone Data  </text><text fill="#000000" stroke="none" font-family="Open Sans" font-size="12pt" font-style="normal" font-weight="normal" text-decoration="normal" x="48.48828125" y="27" text-anchor="middle" dominant-baseline="alphabetic">Delivery Task</text></g></g><g id="_9FDFD83D-86B7-422C-BF20-8D68352ADB11" bpmn2nodeid="_9FDFD83D-86B7-422C-BF20-8D68352ADB11" transform="matrix(1,0,0,1,513.1428571428571,-19)"><g><path fill="none" stroke="none"/></g><g transform="matrix(0.1088409706437762,0,0,0.13071895424836602,0,0)"><g transform="matrix(1,0,0,1,0,0)"><path fill="rgb(255,255,255)" stroke="rgb(0,0,0)" id="_9FDFD83D-86B7-422C-BF20-8D68352ADB11?shapeType=BORDER&amp;renderType=STROKE" paint-order="fill stroke markers" d=" M 0 0 M 404.814 0 L 60.736 0 L 60.736 612 L 551.263 612 L 551.263 153 Z M 0 0 M 404.814 0 L 551.263 153 L 404.78839000000005 151.8588 Z" stroke-miterlimit="10" stroke-width="7" stroke-dasharray="0"/></g><g transform="matrix(1,0,0,1,0,0)"><path fill="#ffffff" stroke="none" id="_9FDFD83D-86B7-422C-BF20-8D68352ADB11_dataObject__LX2E" paint-order="stroke fill markers" d=" M 0 0 M 407.78 5.025422 L 408.62229 150.15254 L 545.9156 151 Z"/></g></g><g transform="matrix(1,0,0,1,-58.484375,85)"><text fill="#000000" stroke="none" font-family="Open Sans" font-size="12pt" font-style="normal" font-weight="normal" text-decoration="normal" x="88.484375" y="12" text-anchor="middle" dominant-baseline="alphabetic">Drone-Operational-Task</text></g></g></g><g id="_9CE09140-B439-4340-BBC4-9C36FA01417C" bpmn2nodeid="_9CE09140-B439-4340-BBC4-9C36FA01417C"><g><path fill="none" stroke="#000000" paint-order="fill stroke markers" d=" M 544.0003491093697 447 L 544.0011813000523 568.5714285714286 L 276 568.5714285714286 L 274.48030278421305 616.0076916642074" stroke-miterlimit="10" stroke-dasharray=""/></g><g transform="matrix(1,0,0,1,544.0003491093697,447)"/><g transform="matrix(-0.9994872223861754,-0.03202018561420366,0.03202018561420366,-0.9994872223861754,278.9974361119309,631.1601009280711)"><path fill="#000000" stroke="#000000" paint-order="fill stroke markers" d=" M 10 15 L 0 15 L 5 0 Z" stroke-miterlimit="10" stroke-dasharray=""/></g><g transform="matrix(1,0,0,1,554.0003491091354,507.7856458328967)"/></g><g id="_AEE32CD2-3977-4D49-9E43-DCBBBD489B45" bpmn2nodeid="_AEE32CD2-3977-4D49-9E43-DCBBBD489B45" transform="matrix(1,0,0,1,0,0)"><g><path fill="none" stroke="rgb(0,0,0)" paint-order="fill stroke markers" d=" M 351 682.1629055007052 L 461.57146214131353 682.3968366617939" stroke-miterlimit="10" stroke-dasharray=""/></g><g transform="matrix(1,0,0,1,351,682.1629055007052)"/><g transform="matrix(-0.002115651118492702,0.9999977620076681,-0.9999977620076681,-0.002115651118492702,476.582006827021,677.428582618533)"><path fill="rgb(0,0,0)" stroke="rgb(0,0,0)" paint-order="fill stroke markers" d=" M 10 15 L 0 15 L 5 0 Z" stroke-miterlimit="10" stroke-dasharray=""/></g><g transform="matrix(1,0,0,1,351.0211565111849,672.2957608445615)"/></g><g id="_045A91EC-5AA8-49ED-B54F-139DAB5A2FB2" bpmn2nodeid="_045A91EC-5AA8-49ED-B54F-139DAB5A2FB2" transform="matrix(1,0,0,1,0,0)"><g><path fill="none" stroke="rgb(0,0,0)" paint-order="fill stroke markers" d=" M 630.5714285714286 682.3682266009852 L 720.8571474635224 682.2974697679977" stroke-miterlimit="10" stroke-dasharray=""/></g><g transform="matrix(1,0,0,1,630.5714285714286,682.3682266009852)"/><g transform="matrix(0.0007836988188956269,0.9999996929080335,-0.9999996929080335,0.0007836988188956269,735.8532243630484,677.2857158211741)"><path fill="rgb(0,0,0)" stroke="rgb(0,0,0)" paint-order="fill stroke markers" d=" M 10 15 L 0 15 L 5 0 Z" stroke-miterlimit="10" stroke-dasharray=""/></g><g transform="matrix(1,0,0,1,630.5792655596176,672.3269735142693)"/></g><g id="_C55E2111-DB5E-4FE0-AAAD-39B849AA358D" bpmn2nodeid="_C55E2111-DB5E-4FE0-AAAD-39B849AA358D"><g><path fill="none" stroke="rgb(0,0,0)" paint-order="fill stroke markers" d=" M 812.8926334625709 631.2857142857142 L 812.9895615891663 491.99999636798555" stroke-miterlimit="10" stroke-dasharray=""/></g><g transform="matrix(1,0,0,1,812.8926334625709,631.2857142857142)"/><g transform="matrix(0.9999997578657024,0.0006958940555781433,-0.0006958940555781433,0.9999997578657024,808.0000012106715,476.9965205297221)"><path fill="rgb(0,0,0)" stroke="rgb(0,0,0)" paint-order="fill stroke markers" d=" M 10 15 L 0 15 L 5 0 Z" stroke-miterlimit="10" stroke-dasharray=""/></g><g transform="matrix(1,0,0,1,822.8926310412278,554.1358982023013)"/></g><g transform="matrix(1,0,0,1,129.8571428571429,548)"/><g transform="matrix(1,0,0,1,197,631)"/><g transform="matrix(1,0,0,1,476.57142857142856,631.4285714285713)"/><g transform="matrix(1,0,0,1,735.8571428571429,631.2857142857142)"/><g transform="matrix(1,0,0,1,643,529)"/></g></g></svg>