<svg version="1.1" xmlns="http://www.w3.org/2000/svg" xmlns:xlink="http://www.w3.org/1999/xlink" width="1968" height="828" viewBox="0 0 1968 828"><defs/><g transform="matrix(1,0,0,1,0,0)"><g><g><g><path fill="none" stroke="#d3d3d3" paint-order="fill stroke markers" d=" M 0 0 L 1200 0" stroke-miterlimit="10" stroke-opacity="0.8" stroke-dasharray="5"/></g><g><path fill="none" stroke="#d3d3d3" paint-order="fill stroke markers" d=" M 0 0 L 0 800" stroke-miterlimit="10" stroke-opacity="0.8" stroke-dasharray="5"/></g></g><g id="_039B0157-A956-408F-BD76-BFBDB4F35EC1" bpmn2nodeid="_039B0157-A956-408F-BD76-BFBDB4F35EC1" transform="matrix(1,0,0,1,160,408)"><g><path fill="none" stroke="none"/></g><g transform="matrix(0.125,0,0,0.125,0,0)"><g transform="matrix(1,0,0,1,0,0)"><path fill="#e8fae6" stroke="none" id="_039B0157-A956-408F-BD76-BFBDB4F35EC1?shapeType=BACKGROUND" paint-order="stroke fill markers" d=" M 0 0 M 444 224 C 444 263.9 434.2 300.8 414.4 334.5 C 394.7 368.2 368 394.9 334.4 414.5 C 300.79999999999995 434.1 263.9 444 224 444 C 184.10000000000002 444 147.2 434.2 113.5 414.4 C 79.8 394.7 53.1 368 33.5 334.4 C 13.899999999999999 300.79999999999995 4 263.9 4 224 C 4 184.10000000000002 13.8 147.2 33.6 113.5 C 53.400000000000006 79.80000000000001 80.1 53.1 113.6 33.5 C 147.1 13.899999999999999 184.1 4 224 4 C 263.9 4 300.8 13.8 334.5 33.6 C 368.2 53.400000000000006 394.9 80.1 414.5 113.6 C 434.1 147.1 444 184.1 444 224 Z"/></g><g><g transform="matrix(1,0,0,1,0,0)"><g transform="matrix(1,0,0,1,0,0)"><path fill="rgb(74,162,65)" stroke="none" id="_039B0157-A956-408F-BD76-BFBDB4F35EC1?shapeType=BORDER&amp;renderType=FILL" paint-order="stroke fill markers" d=" M 0 0 M 224 0 C 100.3 0 0 100.3 0 224 C 0 347.7 100.3 448 224 448 C 347.7 448 448 347.7 448 224 C 448 100.30000000000001 347.7 0 224 0 Z M 0 0 M 224 432 C 109.1 432 16 338.9 16 224 C 16 109.10000000000002 109.1 16 224 16 C 338.9 16 432 109.1 432 224 C 432 338.9 338.9 432 224 432 Z"/></g></g></g></g><g transform="matrix(1,0,0,1,-40.51171875,61)"><text fill="#000000" stroke="none" font-family="Open Sans" font-size="12pt" font-style="normal" font-weight="normal" text-decoration="normal" x="68.51171875" y="12" text-anchor="middle" dominant-baseline="alphabetic">crop management</text></g></g><g id="_C4161BAF-A92A-4FAC-9B18-B0D0863AF4DD" bpmn2nodeid="_C4161BAF-A92A-4FAC-9B18-B0D0863AF4DD" transform="matrix(1,0,0,1,508.5,250)"><g><path fill="none" stroke="none"/></g><g transform="matrix(1,0,0,1,0,0)"><path fill="#ffffff" stroke="none" id="_C4161BAF-A92A-4FAC-9B18-B0D0863AF4DD?shapeType=BACKGROUND" paint-order="stroke fill markers" d=" M 2 0 L 127 0 L 127 0 A 2 2 0 0 1 129 2 L 129 62 L 129 62 A 2 2 0 0 1 127 64 L 2 64 L 2 64 A 2 2 0 0 1 0 62 L 0 2 L 0 2.0000000000000004 A 2 2 0 0 1 1.9999999999999996 0 Z"/></g><g transform="matrix(1,0,0,1,0,0)"><path fill="none" stroke="rgb(255,0,0)" id="_C4161BAF-A92A-4FAC-9B18-B0D0863AF4DD?shapeType=BORDER&amp;renderType=STROKE" paint-order="fill stroke markers" d=" M 2 0 L 127 0 L 127 0 A 2 2 0 0 1 129 2 L 129 62 L 129 62 A 2 2 0 0 1 127 64 L 2 64 L 2 64 A 2 2 0 0 1 0 62 L 0 2 L 0 2.0000000000000004 A 2 2 0 0 1 1.9999999999999996 0 Z" stroke-miterlimit="10" stroke-width="5" stroke-dasharray=""/></g><g transform="matrix(1,0,0,1,-11,-27)"><g transform="matrix(1,0,0,1,0,0)"><g transform="matrix(1,0,0,1,63,66)"><path fill="none" stroke="#393f44" id="_C4161BAF-A92A-4FAC-9B18-B0D0863AF4DD_subProcessReusableNormalBoundingBox" paint-order="fill stroke markers" d=" M 0 0 L 25 0 L 25 25 L 0 25 L 0 0 Z Z" stroke-miterlimit="10" stroke-width="1.5" stroke-dasharray=""/></g><g transform="matrix(0.04,0,0,0.04,68.64,69.6)"><path fill="#000000" stroke="#000000" id="_C4161BAF-A92A-4FAC-9B18-B0D0863AF4DD_subProcessReusableNormalReusableIcon" paint-order="fill stroke markers" d=" M 0 0 M 352 184 L 352 232 C 352 238.7 349.7 244.3 345 249 C 340.3 253.7 334.7 256 328 256 L 224 256 L 224 360 C 224 366.7 221.7 372.3 217 377 C 212.3 381.7 206.7 384 200 384 L 152 384 C 145.3 384 139.7 381.7 135 377 C 130.3 372.3 128 366.7 128 360 L 128 256 L 24 256 C 17.3 256 11.7 253.7 7 249 C 2.3000000000000007 244.3 0 238.7 0 232 L 0 184 C 0 177.3 2.3 171.7 7 167 C 11.7 162.3 17.3 160 24 160 L 128 160 L 128 56 C 128 49.3 130.3 43.7 135 39 C 139.7 34.3 145.3 32 152 32 L 200 32 C 206.7 32 212.3 34.3 217 39 C 221.7 43.7 224 49.3 224 56 L 224 160 L 328 160 C 334.7 160 340.3 162.3 345 167 C 349.7 171.7 352 177.3 352 184 Z" stroke-miterlimit="10" stroke-dasharray=""/></g></g></g><g transform="matrix(1,0,0,1,0.8200000000000003,-27)"><g transform="matrix(1,0,0,1,0,0)"><g transform="matrix(1,0,0,1,63,66)"><path fill="none" stroke="none"/></g><g transform="matrix(0.04,0,0,0.04,68.64,69.6)"><path fill="none" stroke="none"/></g><g transform="matrix(0.04,0,0,0.04,40.32,71.04)"><path fill="none" stroke="none"/></g><g transform="matrix(0.04,0,0,0.04,39.36,72)"><path fill="none" stroke="none"/></g></g></g><g transform="matrix(1,0,0,1,12.109375,24.5)"><text fill="#000000" stroke="none" font-family="Open Sans" font-size="12pt" font-style="normal" font-weight="normal" text-decoration="normal" x="52.390625" y="12" text-anchor="middle" dominant-baseline="alphabetic">Crop Planning</text></g></g><g id="_FAEB0D78-1239-48D8-B022-4ACA31522282" bpmn2nodeid="_FAEB0D78-1239-48D8-B022-4ACA31522282" transform="matrix(1,0,0,1,509,345.5)"><g><path fill="none" stroke="none"/></g><g transform="matrix(1,0,0,1,0,0)"><path fill="#ffffff" stroke="none" id="_FAEB0D78-1239-48D8-B022-4ACA31522282?shapeType=BACKGROUND" paint-order="stroke fill markers" d=" M 2 0 L 127 0 L 127 0 A 2 2 0 0 1 129 2 L 129 61 L 129 61 A 2 2 0 0 1 127 63 L 2 63 L 2 63 A 2 2 0 0 1 0 61 L 0 2 L 0 2.0000000000000004 A 2 2 0 0 1 1.9999999999999996 0 Z"/></g><g transform="matrix(1,0,0,1,0,0)"><path fill="none" stroke="rgb(57,63,68)" id="_FAEB0D78-1239-48D8-B022-4ACA31522282?shapeType=BORDER&amp;renderType=STROKE" paint-order="fill stroke markers" d=" M 2 0 L 127 0 L 127 0 A 2 2 0 0 1 129 2 L 129 61 L 129 61 A 2 2 0 0 1 127 63 L 2 63 L 2 63 A 2 2 0 0 1 0 61 L 0 2 L 0 2.0000000000000004 A 2 2 0 0 1 1.9999999999999996 0 Z" stroke-miterlimit="10" stroke-width="5" stroke-dasharray=""/></g><g transform="matrix(1,0,0,1,-11,-28)"><g transform="matrix(1,0,0,1,0,0)"><g transform="matrix(1,0,0,1,63,66)"><path fill="none" stroke="#393f44" id="_FAEB0D78-1239-48D8-B022-4ACA31522282_subProcessReusableNormalBoundingBox" paint-order="fill stroke markers" d=" M 0 0 L 25 0 L 25 25 L 0 25 L 0 0 Z Z" stroke-miterlimit="10" stroke-width="1.5" stroke-dasharray=""/></g><g transform="matrix(0.04,0,0,0.04,68.64,69.6)"><path fill="#000000" stroke="#000000" id="_FAEB0D78-1239-48D8-B022-4ACA31522282_subProcessReusableNormalReusableIcon" paint-order="fill stroke markers" d=" M 0 0 M 352 184 L 352 232 C 352 238.7 349.7 244.3 345 249 C 340.3 253.7 334.7 256 328 256 L 224 256 L 224 360 C 224 366.7 221.7 372.3 217 377 C 212.3 381.7 206.7 384 200 384 L 152 384 C 145.3 384 139.7 381.7 135 377 C 130.3 372.3 128 366.7 128 360 L 128 256 L 24 256 C 17.3 256 11.7 253.7 7 249 C 2.3000000000000007 244.3 0 238.7 0 232 L 0 184 C 0 177.3 2.3 171.7 7 167 C 11.7 162.3 17.3 160 24 160 L 128 160 L 128 56 C 128 49.3 130.3 43.7 135 39 C 139.7 34.3 145.3 32 152 32 L 200 32 C 206.7 32 212.3 34.3 217 39 C 221.7 43.7 224 49.3 224 56 L 224 160 L 328 160 C 334.7 160 340.3 162.3 345 167 C 349.7 171.7 352 177.3 352 184 Z" stroke-miterlimit="10" stroke-dasharray=""/></g></g></g><g transform="matrix(1,0,0,1,0.8200000000000003,-28)"><g transform="matrix(1,0,0,1,0,0)"><g transform="matrix(1,0,0,1,63,66)"><path fill="none" stroke="none"/></g><g transform="matrix(0.04,0,0,0.04,68.64,69.6)"><path fill="none" stroke="none"/></g><g transform="matrix(0.04,0,0,0.04,40.32,71.04)"><path fill="none" stroke="none"/></g><g transform="matrix(0.04,0,0,0.04,39.36,72)"><path fill="none" stroke="none"/></g></g></g><g transform="matrix(1,0,0,1,16.9765625,24)"><text fill="#000000" stroke="none" font-family="Open Sans" font-size="12pt" font-style="normal" font-weight="normal" text-decoration="normal" x="47.5234375" y="12" text-anchor="middle" dominant-baseline="alphabetic">Crop Growth</text></g></g><g id="_8CA362B5-6286-4B89-A39C-BC9D43D9E00A" bpmn2nodeid="_8CA362B5-6286-4B89-A39C-BC9D43D9E00A" transform="matrix(1,0,0,1,509.5,435)"><g><path fill="none" stroke="none"/></g><g transform="matrix(1,0,0,1,0,0)"><path fill="#ffffff" stroke="none" id="_8CA362B5-6286-4B89-A39C-BC9D43D9E00A?shapeType=BACKGROUND" paint-order="stroke fill markers" d=" M 2 0 L 125 0 L 125 0 A 2 2 0 0 1 127 2 L 127 78 L 127 78 A 2 2 0 0 1 125 80 L 2 80 L 2 80 A 2 2 0 0 1 0 78 L 0 2 L 0 2.0000000000000004 A 2 2 0 0 1 1.9999999999999996 0 Z"/></g><g transform="matrix(1,0,0,1,0,0)"><path fill="none" stroke="rgb(57,63,68)" id="_8CA362B5-6286-4B89-A39C-BC9D43D9E00A?shapeType=BORDER&amp;renderType=STROKE" paint-order="fill stroke markers" d=" M 2 0 L 125 0 L 125 0 A 2 2 0 0 1 127 2 L 127 78 L 127 78 A 2 2 0 0 1 125 80 L 2 80 L 2 80 A 2 2 0 0 1 0 78 L 0 2 L 0 2.0000000000000004 A 2 2 0 0 1 1.9999999999999996 0 Z" stroke-miterlimit="10" stroke-width="5" stroke-dasharray=""/></g><g transform="matrix(1,0,0,1,-12,-11)"><g transform="matrix(1,0,0,1,0,0)"><g transform="matrix(1,0,0,1,63,66)"><path fill="none" stroke="#393f44" id="_8CA362B5-6286-4B89-A39C-BC9D43D9E00A_subProcessReusableNormalBoundingBox" paint-order="fill stroke markers" d=" M 0 0 L 25 0 L 25 25 L 0 25 L 0 0 Z Z" stroke-miterlimit="10" stroke-width="1.5" stroke-dasharray=""/></g><g transform="matrix(0.04,0,0,0.04,68.64,69.6)"><path fill="#000000" stroke="#000000" id="_8CA362B5-6286-4B89-A39C-BC9D43D9E00A_subProcessReusableNormalReusableIcon" paint-order="fill stroke markers" d=" M 0 0 M 352 184 L 352 232 C 352 238.7 349.7 244.3 345 249 C 340.3 253.7 334.7 256 328 256 L 224 256 L 224 360 C 224 366.7 221.7 372.3 217 377 C 212.3 381.7 206.7 384 200 384 L 152 384 C 145.3 384 139.7 381.7 135 377 C 130.3 372.3 128 366.7 128 360 L 128 256 L 24 256 C 17.3 256 11.7 253.7 7 249 C 2.3000000000000007 244.3 0 238.7 0 232 L 0 184 C 0 177.3 2.3 171.7 7 167 C 11.7 162.3 17.3 160 24 160 L 128 160 L 128 56 C 128 49.3 130.3 43.7 135 39 C 139.7 34.3 145.3 32 152 32 L 200 32 C 206.7 32 212.3 34.3 217 39 C 221.7 43.7 224 49.3 224 56 L 224 160 L 328 160 C 334.7 160 340.3 162.3 345 167 C 349.7 171.7 352 177.3 352 184 Z" stroke-miterlimit="10" stroke-dasharray=""/></g></g></g><g transform="matrix(1,0,0,1,-0.17999999999999972,-11)"><g transform="matrix(1,0,0,1,0,0)"><g transform="matrix(1,0,0,1,63,66)"><path fill="none" stroke="none"/></g><g transform="matrix(0.04,0,0,0.04,68.64,69.6)"><path fill="none" stroke="none"/></g><g transform="matrix(0.04,0,0,0.04,40.32,71.04)"><path fill="none" stroke="none"/></g><g transform="matrix(0.04,0,0,0.04,39.36,72)"><path fill="none" stroke="none"/></g></g></g><g transform="matrix(1,0,0,1,15.015625,25)"><text fill="#000000" stroke="none" font-family="Open Sans" font-size="12pt" font-style="normal" font-weight="normal" text-decoration="normal" x="48.484375" y="12" text-anchor="middle" dominant-baseline="alphabetic">       Crop        </text><text fill="#000000" stroke="none" font-family="Open Sans" font-size="12pt" font-style="normal" font-weight="normal" text-decoration="normal" x="48.484375" y="27" text-anchor="middle" dominant-baseline="alphabetic">Maintenance</text></g></g><g id="_66F1EDFC-F712-47BC-82E3-68453084DDD0" bpmn2nodeid="_66F1EDFC-F712-47BC-82E3-68453084DDD0" transform="matrix(1,0,0,1,509,538)"><g><path fill="none" stroke="none"/></g><g transform="matrix(1,0,0,1,0,0)"><path fill="#ffffff" stroke="none" id="_66F1EDFC-F712-47BC-82E3-68453084DDD0?shapeType=BACKGROUND" paint-order="stroke fill markers" d=" M 2 0 L 127 0 L 127 0 A 2 2 0 0 1 129 2 L 129 64 L 129 64 A 2 2 0 0 1 127 66 L 2 66 L 2 66 A 2 2 0 0 1 0 64 L 0 2 L 0 2.0000000000000004 A 2 2 0 0 1 1.9999999999999996 0 Z"/></g><g transform="matrix(1,0,0,1,0,0)"><path fill="none" stroke="rgb(57,63,68)" id="_66F1EDFC-F712-47BC-82E3-68453084DDD0?shapeType=BORDER&amp;renderType=STROKE" paint-order="fill stroke markers" d=" M 2 0 L 127 0 L 127 0 A 2 2 0 0 1 129 2 L 129 64 L 129 64 A 2 2 0 0 1 127 66 L 2 66 L 2 66 A 2 2 0 0 1 0 64 L 0 2 L 0 2.0000000000000004 A 2 2 0 0 1 1.9999999999999996 0 Z" stroke-miterlimit="10" stroke-width="5" stroke-dasharray=""/></g><g transform="matrix(1,0,0,1,-11,-25)"><g transform="matrix(1,0,0,1,0,0)"><g transform="matrix(1,0,0,1,63,66)"><path fill="none" stroke="#393f44" id="_66F1EDFC-F712-47BC-82E3-68453084DDD0_subProcessReusableNormalBoundingBox" paint-order="fill stroke markers" d=" M 0 0 L 25 0 L 25 25 L 0 25 L 0 0 Z Z" stroke-miterlimit="10" stroke-width="1.5" stroke-dasharray=""/></g><g transform="matrix(0.04,0,0,0.04,68.64,69.6)"><path fill="#000000" stroke="#000000" id="_66F1EDFC-F712-47BC-82E3-68453084DDD0_subProcessReusableNormalReusableIcon" paint-order="fill stroke markers" d=" M 0 0 M 352 184 L 352 232 C 352 238.7 349.7 244.3 345 249 C 340.3 253.7 334.7 256 328 256 L 224 256 L 224 360 C 224 366.7 221.7 372.3 217 377 C 212.3 381.7 206.7 384 200 384 L 152 384 C 145.3 384 139.7 381.7 135 377 C 130.3 372.3 128 366.7 128 360 L 128 256 L 24 256 C 17.3 256 11.7 253.7 7 249 C 2.3000000000000007 244.3 0 238.7 0 232 L 0 184 C 0 177.3 2.3 171.7 7 167 C 11.7 162.3 17.3 160 24 160 L 128 160 L 128 56 C 128 49.3 130.3 43.7 135 39 C 139.7 34.3 145.3 32 152 32 L 200 32 C 206.7 32 212.3 34.3 217 39 C 221.7 43.7 224 49.3 224 56 L 224 160 L 328 160 C 334.7 160 340.3 162.3 345 167 C 349.7 171.7 352 177.3 352 184 Z" stroke-miterlimit="10" stroke-dasharray=""/></g></g></g><g transform="matrix(1,0,0,1,0.8200000000000003,-25)"><g transform="matrix(1,0,0,1,0,0)"><g transform="matrix(1,0,0,1,63,66)"><path fill="none" stroke="none"/></g><g transform="matrix(0.04,0,0,0.04,68.64,69.6)"><path fill="none" stroke="none"/></g><g transform="matrix(0.04,0,0,0.04,40.32,71.04)"><path fill="none" stroke="none"/></g><g transform="matrix(0.04,0,0,0.04,39.36,72)"><path fill="none" stroke="none"/></g></g></g><g transform="matrix(1,0,0,1,15.78125,25.5)"><text fill="#000000" stroke="none" font-family="Open Sans" font-size="12pt" font-style="normal" font-weight="normal" text-decoration="normal" x="48.71875" y="12" text-anchor="middle" dominant-baseline="alphabetic">Crop Harvest</text></g></g><g id="_55D6D5AA-5EF3-4988-9836-9688C97F1EAE" bpmn2nodeid="_55D6D5AA-5EF3-4988-9836-9688C97F1EAE" transform="matrix(1,0,0,1,418,407)"><g><path fill="none" stroke="none"/></g><g transform="matrix(0.125,0,0,0.125,0,0)"><g transform="matrix(1,0,0,1,0,0)"><path fill="#fef4ea" stroke="none" id="_55D6D5AA-5EF3-4988-9836-9688C97F1EAE?shapeType=BACKGROUND" paint-order="stroke fill markers" d=" M 0 0 M 224.4 4.3 C 216.4 4.3 208.4 7.3 202.3 13.399999999999999 L 13.5 202.2 C 1.3000000000000007 214.39999999999998 1.3000000000000007 234.2 13.5 246.39999999999998 L 202.2 435.09999999999997 C 208.29999999999998 441.2 216.39999999999998 444.2 224.29999999999998 444.2 C 232.2 444.2 240.29999999999998 441.2 246.39999999999998 435.09999999999997 L 435.09999999999997 246.39999999999998 C 447.29999999999995 234.2 447.29999999999995 214.39999999999998 435.09999999999997 202.2 L 246.5 13.4 C 240.4 7.3 232.4 4.3 224.4 4.3 L 224.4 4.3 Z"/></g><g><g transform="matrix(1,0,0,1,0,0)"><g transform="matrix(1,0,0,1,0,0)"><path fill="rgb(236,122,8)" stroke="none" id="_55D6D5AA-5EF3-4988-9836-9688C97F1EAE?shapeType=BORDER&amp;renderType=FILL" paint-order="stroke fill markers" d=" M 0 0 M 20.8 212.7 L 213.3 20.2 C 219.60000000000002 13.899999999999999 229.70000000000002 13.899999999999999 235.9 20.2 L 428.4 212.7 C 434.7 219 434.7 229.1 428.4 235.29999999999998 L 235.9 427.8 C 229.6 434.1 219.5 434.1 213.3 427.8 L 20.8 235.3 C 14.5 229.1 14.5 218.9 20.8 212.7 L 20.8 212.7 Z M 0 0 M 0 224 C 0 232.1 3.1 240.3 9.3 246.5 L 201.5 438.7 C 213.9 451.09999999999997 234.1 451.09999999999997 246.5 438.7 L 438.7 246.5 C 444.9 240.3 448 232.1 448 224 C 448 215.9 444.9 207.7 438.7 201.5 L 246.5 9.3 C 234.1 -3.0999999999999996 213.9 -3.0999999999999996 201.5 9.3 L 9.3 201.5 C 3.1 207.7 0 215.9 0 224 L 0 224 Z"/></g></g></g><g><g transform="matrix(1,0,0,1,0,0)"><g transform="matrix(1,0,0,1,0,0)"><path fill="#ec7a08" stroke="none" id="_55D6D5AA-5EF3-4988-9836-9688C97F1EAE_parallel" paint-order="stroke fill markers" d=" M 0 0 M 312 212 L 312 236 C 312 239.4 310.9 242.1 308.5 244.5 C 306.1 246.9 303.4 248 300 248 L 248 248 L 248 300 C 248 303.4 246.9 306.1 244.5 308.5 C 242.1 310.9 239.4 312 236 312 L 212 312 C 208.6 312 205.9 310.9 203.5 308.5 C 201.1 306.1 200 303.4 200 300 L 200 248 L 148 248 C 144.6 248 141.9 246.9 139.5 244.5 C 137.1 242.1 136 239.4 136 236 L 136 212 C 136 208.6 137.1 205.9 139.5 203.5 C 141.9 201.1 144.6 200 148 200 L 200 200 L 200 148 C 200 144.6 201.1 141.9 203.5 139.5 C 205.9 137.1 208.6 136 212 136 L 236 136 C 239.4 136 242.1 137.1 244.5 139.5 C 246.9 141.9 248 144.6 248 148 L 248 200 L 300 200 C 303.4 200 306.1 201.1 308.5 203.5 C 310.9 205.9 312 208.6 312 212 Z"/></g></g></g></g><g transform="matrix(1,0,0,1,28,61)"/></g><g id="_728EBFF4-97D9-4E85-9B84-93926561744C" bpmn2nodeid="_728EBFF4-97D9-4E85-9B84-93926561744C" transform="matrix(1,0,0,1,250,396)"><g><path fill="none" stroke="none"/></g><g transform="matrix(1,0,0,1,0,0)"><path fill="#ffffff" stroke="none" id="_728EBFF4-97D9-4E85-9B84-93926561744C?shapeType=BACKGROUND" paint-order="stroke fill markers" d=" M 2 0 L 114 0 L 114 0 A 2 2 0 0 1 116 2 L 116 75.00000000000001 L 116 75.00000000000001 A 2 2 0 0 1 114 77.00000000000001 L 2 77.00000000000001 L 2 77.00000000000001 A 2 2 0 0 1 0 75.00000000000001 L 0 2 L 0 2.0000000000000004 A 2 2 0 0 1 1.9999999999999996 0 Z"/></g><g transform="matrix(1,0,0,1,0,0)"><path fill="none" stroke="rgb(0,0,0)" id="_728EBFF4-97D9-4E85-9B84-93926561744C?shapeType=BORDER&amp;renderType=STROKE" paint-order="fill stroke markers" d=" M 2 0 L 114 0 L 114 0 A 2 2 0 0 1 116 2 L 116 75.00000000000001 L 116 75.00000000000001 A 2 2 0 0 1 114 77.00000000000001 L 2 77.00000000000001 L 2 77.00000000000001 A 2 2 0 0 1 0 75.00000000000001 L 0 2 L 0 2.0000000000000004 A 2 2 0 0 1 1.9999999999999996 0 Z" stroke-miterlimit="10" stroke-width="1.5" stroke-dasharray=""/></g><g><g transform="matrix(0.06,0,0,0.06,9.4,9.4)"><g transform="matrix(1,0,0,1,0,0)"><path fill="#393f44" stroke="none" id="_728EBFF4-97D9-4E85-9B84-93926561744C_task__kr51__x4SI" paint-order="stroke fill markers" d=" M 0 0 M 16 445.2101 C 16 440.86867 18.784312 431.12906000000004 22.001325 424.21728 C 35.767643 394.6402 77.282944 359.28049 129 333.08362 C 144.51625 325.22398 157.34689 319.96394 167.80739 317.17416 C 171.93153 316.07426 175.72913 314.41389999999996 176.5251 313.36265 C 178.89361 310.23449999999997 180.91404 302.90781 181.72673 294.5 L 182.5 286.5 L 178.50715 283.45457 C 166.30327 274.14645 154.2837 251.67767 148.03953 226.5 C 145.61086 216.70715 145.05603000000002 215.46246 142.98364 215.1579 C 141.70332000000002 214.96974 138.08302 212.24302 134.93852 209.09852 C 123.23314 197.39314000000002 116.89146000000001 177.37556 121.43982000000001 166.48978 C 123.00204000000001 162.75088 128.15457 159.00970999999998 131.75 159.00374 C 134.44781 158.99974 134.47062 158.60296 132.91375 138.78796 C 130.92658 113.4962 134.27903 92.26542699999999 143.13217 74.075676 C 152.23162 55.379835 167.56889 42.88208 189.04934 36.659507000000005 C 210.20334 30.531504000000005 237.79666 30.531504000000005 258.95065999999997 36.659507000000005 C 300.04166 48.562968000000005 318.95842 83.80634 314.95504999999997 141 C 314.31982999999997 150.075 313.62402 157.78816 313.4088 158.14035 C 313.19359 158.49254000000002 314.57532 159.07295000000002 316.47931 159.43014000000002 C 328.92867 161.76565000000002 330.98619 177.01772000000003 321.49638 196.62092 C 316.90319 206.10912000000002 309.35724 214.50797 304.81732 215.18517000000003 C 303.02259 215.45289000000002 302.2931 217.14618000000002 299.94277999999997 226.50000000000003 C 296.65948 239.56693 294.47402 245.30522000000002 287.94764 257.99534000000006 C 282.49071999999995 268.60596000000004 273.03466 281.10922000000005 268.10756999999995 284.2288300000001 L 264.87062 286.27832000000006 L 265.51815999999997 292.88916000000006 C 266.34490999999997 301.32961000000006 268.63948999999997 309.8706000000001 270.87735999999995 312.83742000000007 C 272.06735 314.4150200000001 275.00244999999995 315.78963000000005 280.0630699999999 317.13941000000005 C 291.06929999999994 320.0750300000001 303.61700999999994 325.27420000000006 320.99999999999994 334.10171 C 369.81470999999993 358.89104000000003 410.84810999999996 393.75797 425.03216 422.5 C 429.06985999999995 430.68183 432 440.23198 432 445.2101 L 432 448 L 224 448 L 16 448 L 16 445.2101 Z"/></g></g></g><g transform="matrix(1,0,0,1,-14.960000000000008,-11.319999999999993)"><g transform="matrix(0.04,0,0,0.04,63.36,69.12)"><g transform="matrix(1,0,0,1,0,0)"><path fill="none" stroke="none"/></g><g transform="matrix(1,0,0,1,0,0)"><path fill="none" stroke="none"/></g></g></g><g transform="matrix(1,0,0,1,35,23.500000000000007)"><text fill="#000000" stroke="none" font-family="Open Sans" font-size="12pt" font-style="normal" font-weight="normal" text-decoration="normal" x="33.16796875" y="12" text-anchor="middle" dominant-baseline="alphabetic">   Farm    </text><text fill="#000000" stroke="none" font-family="Open Sans" font-size="12pt" font-style="normal" font-weight="normal" text-decoration="normal" x="33.16796875" y="27" text-anchor="middle" dominant-baseline="alphabetic">Manager</text></g></g><g id="_277BDC80-8AA3-454A-A923-4095010507EF" bpmn2nodeid="_277BDC80-8AA3-454A-A923-4095010507EF" transform="matrix(1,0,0,1,704.5,437)"><g><path fill="none" stroke="none"/></g><g transform="matrix(1,0,0,1,0,0)"><path fill="#ffffff" stroke="none" id="_277BDC80-8AA3-454A-A923-4095010507EF?shapeType=BACKGROUND" paint-order="stroke fill markers" d=" M 2 0 L 132 0 L 132 0 A 2 2 0 0 1 134 2 L 134 74 L 134 74 A 2 2 0 0 1 132 76 L 2 76 L 2 76 A 2 2 0 0 1 0 74 L 0 2 L 0 2.0000000000000004 A 2 2 0 0 1 1.9999999999999996 0 Z"/></g><g transform="matrix(1,0,0,1,0,0)"><path fill="none" stroke="rgb(0,0,0)" id="_277BDC80-8AA3-454A-A923-4095010507EF?shapeType=BORDER&amp;renderType=STROKE" paint-order="fill stroke markers" d=" M 2 0 L 132 0 L 132 0 A 2 2 0 0 1 134 2 L 134 74 L 134 74 A 2 2 0 0 1 132 76 L 2 76 L 2 76 A 2 2 0 0 1 0 74 L 0 2 L 0 2.0000000000000004 A 2 2 0 0 1 1.9999999999999996 0 Z" stroke-miterlimit="10" stroke-width="1.5" stroke-dasharray=""/></g><g transform="matrix(1,0,0,1,23.984375,23)"><text fill="#000000" stroke="none" font-family="Open Sans" font-size="12pt" font-style="normal" font-weight="normal" text-decoration="normal" x="43.015625" y="12" text-anchor="middle" dominant-baseline="alphabetic">Processing </text><text fill="#000000" stroke="none" font-family="Open Sans" font-size="12pt" font-style="normal" font-weight="normal" text-decoration="normal" x="43.015625" y="27" text-anchor="middle" dominant-baseline="alphabetic">Technicians</text></g></g><g id="_D9EFE32A-69C1-43F2-811A-08A35EDB31D1" bpmn2nodeid="_D9EFE32A-69C1-43F2-811A-08A35EDB31D1" transform="matrix(1,0,0,1,886.5,447)"><g><path fill="none" stroke="none"/></g><g transform="matrix(0.125,0,0,0.125,0,0)"><g transform="matrix(1,0,0,1,0,0)"><path fill="#fef4ea" stroke="none" id="_D9EFE32A-69C1-43F2-811A-08A35EDB31D1?shapeType=BACKGROUND" paint-order="stroke fill markers" d=" M 0 0 M 224.4 4.3 C 216.4 4.3 208.4 7.3 202.3 13.399999999999999 L 13.5 202.2 C 1.3000000000000007 214.39999999999998 1.3000000000000007 234.2 13.5 246.39999999999998 L 202.2 435.09999999999997 C 208.29999999999998 441.2 216.39999999999998 444.2 224.29999999999998 444.2 C 232.2 444.2 240.29999999999998 441.2 246.39999999999998 435.09999999999997 L 435.09999999999997 246.39999999999998 C 447.29999999999995 234.2 447.29999999999995 214.39999999999998 435.09999999999997 202.2 L 246.5 13.4 C 240.4 7.3 232.4 4.3 224.4 4.3 L 224.4 4.3 Z"/></g><g><g transform="matrix(1,0,0,1,0,0)"><g transform="matrix(1,0,0,1,0,0)"><path fill="rgb(236,122,8)" stroke="none" id="_D9EFE32A-69C1-43F2-811A-08A35EDB31D1?shapeType=BORDER&amp;renderType=FILL" paint-order="stroke fill markers" d=" M 0 0 M 20.8 212.7 L 213.3 20.2 C 219.60000000000002 13.899999999999999 229.70000000000002 13.899999999999999 235.9 20.2 L 428.4 212.7 C 434.7 219 434.7 229.1 428.4 235.29999999999998 L 235.9 427.8 C 229.6 434.1 219.5 434.1 213.3 427.8 L 20.8 235.3 C 14.5 229.1 14.5 218.9 20.8 212.7 L 20.8 212.7 Z M 0 0 M 0 224 C 0 232.1 3.1 240.3 9.3 246.5 L 201.5 438.7 C 213.9 451.09999999999997 234.1 451.09999999999997 246.5 438.7 L 438.7 246.5 C 444.9 240.3 448 232.1 448 224 C 448 215.9 444.9 207.7 438.7 201.5 L 246.5 9.3 C 234.1 -3.0999999999999996 213.9 -3.0999999999999996 201.5 9.3 L 9.3 201.5 C 3.1 207.7 0 215.9 0 224 L 0 224 Z"/></g></g></g><g><g transform="matrix(1,0,0,1,0,0)"><g transform="matrix(1,0,0,1,0,0)"><path fill="#ec7a08" stroke="none" id="_D9EFE32A-69C1-43F2-811A-08A35EDB31D1_parallel" paint-order="stroke fill markers" d=" M 0 0 M 312 212 L 312 236 C 312 239.4 310.9 242.1 308.5 244.5 C 306.1 246.9 303.4 248 300 248 L 248 248 L 248 300 C 248 303.4 246.9 306.1 244.5 308.5 C 242.1 310.9 239.4 312 236 312 L 212 312 C 208.6 312 205.9 310.9 203.5 308.5 C 201.1 306.1 200 303.4 200 300 L 200 248 L 148 248 C 144.6 248 141.9 246.9 139.5 244.5 C 137.1 242.1 136 239.4 136 236 L 136 212 C 136 208.6 137.1 205.9 139.5 203.5 C 141.9 201.1 144.6 200 148 200 L 200 200 L 200 148 C 200 144.6 201.1 141.9 203.5 139.5 C 205.9 137.1 208.6 136 212 136 L 236 136 C 239.4 136 242.1 137.1 244.5 139.5 C 246.9 141.9 248 144.6 248 148 L 248 200 L 300 200 C 303.4 200 306.1 201.1 308.5 203.5 C 310.9 205.9 312 208.6 312 212 Z"/></g></g></g></g><g transform="matrix(1,0,0,1,28,61)"/></g><g id="_E6B628EC-D40B-4CCC-8B40-74F20EE5A57A" bpmn2nodeid="_E6B628EC-D40B-4CCC-8B40-74F20EE5A57A" transform="matrix(1,0,0,1,988.5,583)"><g><path fill="none" stroke="none"/></g><g transform="matrix(1,0,0,1,0,0)"><path fill="#ffffff" stroke="none" id="_E6B628EC-D40B-4CCC-8B40-74F20EE5A57A?shapeType=BACKGROUND" paint-order="stroke fill markers" d=" M 2 0 L 115 0 L 115 0 A 2 2 0 0 1 117 2 L 117 77 L 117 77 A 2 2 0 0 1 115 79 L 2 79 L 2 79 A 2 2 0 0 1 0 77 L 0 2 L 0 2.0000000000000004 A 2 2 0 0 1 1.9999999999999996 0 Z"/></g><g transform="matrix(1,0,0,1,0,0)"><path fill="none" stroke="rgb(57,63,68)" id="_E6B628EC-D40B-4CCC-8B40-74F20EE5A57A?shapeType=BORDER&amp;renderType=STROKE" paint-order="fill stroke markers" d=" M 2 0 L 115 0 L 115 0 A 2 2 0 0 1 117 2 L 117 77 L 117 77 A 2 2 0 0 1 115 79 L 2 79 L 2 79 A 2 2 0 0 1 0 77 L 0 2 L 0 2.0000000000000004 A 2 2 0 0 1 1.9999999999999996 0 Z" stroke-miterlimit="10" stroke-width="5" stroke-dasharray=""/></g><g transform="matrix(1,0,0,1,-17,-12)"><g transform="matrix(1,0,0,1,0,0)"><g transform="matrix(1,0,0,1,63,66)"><path fill="none" stroke="#393f44" id="_E6B628EC-D40B-4CCC-8B40-74F20EE5A57A_subProcessReusableNormalBoundingBox" paint-order="fill stroke markers" d=" M 0 0 L 25 0 L 25 25 L 0 25 L 0 0 Z Z" stroke-miterlimit="10" stroke-width="1.5" stroke-dasharray=""/></g><g transform="matrix(0.04,0,0,0.04,68.64,69.6)"><path fill="#000000" stroke="#000000" id="_E6B628EC-D40B-4CCC-8B40-74F20EE5A57A_subProcessReusableNormalReusableIcon" paint-order="fill stroke markers" d=" M 0 0 M 352 184 L 352 232 C 352 238.7 349.7 244.3 345 249 C 340.3 253.7 334.7 256 328 256 L 224 256 L 224 360 C 224 366.7 221.7 372.3 217 377 C 212.3 381.7 206.7 384 200 384 L 152 384 C 145.3 384 139.7 381.7 135 377 C 130.3 372.3 128 366.7 128 360 L 128 256 L 24 256 C 17.3 256 11.7 253.7 7 249 C 2.3000000000000007 244.3 0 238.7 0 232 L 0 184 C 0 177.3 2.3 171.7 7 167 C 11.7 162.3 17.3 160 24 160 L 128 160 L 128 56 C 128 49.3 130.3 43.7 135 39 C 139.7 34.3 145.3 32 152 32 L 200 32 C 206.7 32 212.3 34.3 217 39 C 221.7 43.7 224 49.3 224 56 L 224 160 L 328 160 C 334.7 160 340.3 162.3 345 167 C 349.7 171.7 352 177.3 352 184 Z" stroke-miterlimit="10" stroke-dasharray=""/></g></g></g><g transform="matrix(1,0,0,1,-5.18,-12)"><g transform="matrix(1,0,0,1,0,0)"><g transform="matrix(1,0,0,1,63,66)"><path fill="none" stroke="none"/></g><g transform="matrix(0.04,0,0,0.04,68.64,69.6)"><path fill="none" stroke="none"/></g><g transform="matrix(0.04,0,0,0.04,40.32,71.04)"><path fill="none" stroke="none"/></g><g transform="matrix(0.04,0,0,0.04,39.36,72)"><path fill="none" stroke="none"/></g></g></g><g transform="matrix(1,0,0,1,12.953125,32)"><text fill="#000000" stroke="none" font-family="Open Sans" font-size="12pt" font-style="normal" font-weight="normal" text-decoration="normal" x="45.546875" y="12" text-anchor="middle" dominant-baseline="alphabetic">Sub-process</text></g></g><g id="_264D6C1C-455F-46F2-A86E-C49CCB4EA455" bpmn2nodeid="_264D6C1C-455F-46F2-A86E-C49CCB4EA455" transform="matrix(1,0,0,1,988.5,707)"><g><path fill="none" stroke="none"/></g><g transform="matrix(1,0,0,1,0,0)"><path fill="#ffffff" stroke="none" id="_264D6C1C-455F-46F2-A86E-C49CCB4EA455?shapeType=BACKGROUND" paint-order="stroke fill markers" d=" M 2 0 L 115 0 L 115 0 A 2 2 0 0 1 117 2 L 117 69 L 117 69 A 2 2 0 0 1 115 71 L 2 71 L 2 71 A 2 2 0 0 1 0 69 L 0 2 L 0 2.0000000000000004 A 2 2 0 0 1 1.9999999999999996 0 Z"/></g><g transform="matrix(1,0,0,1,0,0)"><path fill="none" stroke="rgb(57,63,68)" id="_264D6C1C-455F-46F2-A86E-C49CCB4EA455?shapeType=BORDER&amp;renderType=STROKE" paint-order="fill stroke markers" d=" M 2 0 L 115 0 L 115 0 A 2 2 0 0 1 117 2 L 117 69 L 117 69 A 2 2 0 0 1 115 71 L 2 71 L 2 71 A 2 2 0 0 1 0 69 L 0 2 L 0 2.0000000000000004 A 2 2 0 0 1 1.9999999999999996 0 Z" stroke-miterlimit="10" stroke-width="5" stroke-dasharray=""/></g><g transform="matrix(1,0,0,1,-17,-20)"><g transform="matrix(1,0,0,1,0,0)"><g transform="matrix(1,0,0,1,63,66)"><path fill="none" stroke="#393f44" id="_264D6C1C-455F-46F2-A86E-C49CCB4EA455_subProcessReusableNormalBoundingBox" paint-order="fill stroke markers" d=" M 0 0 L 25 0 L 25 25 L 0 25 L 0 0 Z Z" stroke-miterlimit="10" stroke-width="1.5" stroke-dasharray=""/></g><g transform="matrix(0.04,0,0,0.04,68.64,69.6)"><path fill="#000000" stroke="#000000" id="_264D6C1C-455F-46F2-A86E-C49CCB4EA455_subProcessReusableNormalReusableIcon" paint-order="fill stroke markers" d=" M 0 0 M 352 184 L 352 232 C 352 238.7 349.7 244.3 345 249 C 340.3 253.7 334.7 256 328 256 L 224 256 L 224 360 C 224 366.7 221.7 372.3 217 377 C 212.3 381.7 206.7 384 200 384 L 152 384 C 145.3 384 139.7 381.7 135 377 C 130.3 372.3 128 366.7 128 360 L 128 256 L 24 256 C 17.3 256 11.7 253.7 7 249 C 2.3000000000000007 244.3 0 238.7 0 232 L 0 184 C 0 177.3 2.3 171.7 7 167 C 11.7 162.3 17.3 160 24 160 L 128 160 L 128 56 C 128 49.3 130.3 43.7 135 39 C 139.7 34.3 145.3 32 152 32 L 200 32 C 206.7 32 212.3 34.3 217 39 C 221.7 43.7 224 49.3 224 56 L 224 160 L 328 160 C 334.7 160 340.3 162.3 345 167 C 349.7 171.7 352 177.3 352 184 Z" stroke-miterlimit="10" stroke-dasharray=""/></g></g></g><g transform="matrix(1,0,0,1,-5.18,-20)"><g transform="matrix(1,0,0,1,0,0)"><g transform="matrix(1,0,0,1,63,66)"><path fill="none" stroke="none"/></g><g transform="matrix(0.04,0,0,0.04,68.64,69.6)"><path fill="none" stroke="none"/></g><g transform="matrix(0.04,0,0,0.04,40.32,71.04)"><path fill="none" stroke="none"/></g><g transform="matrix(0.04,0,0,0.04,39.36,72)"><path fill="none" stroke="none"/></g></g></g><g transform="matrix(1,0,0,1,12.953125,28)"><text fill="#000000" stroke="none" font-family="Open Sans" font-size="12pt" font-style="normal" font-weight="normal" text-decoration="normal" x="45.546875" y="12" text-anchor="middle" dominant-baseline="alphabetic">Sub-process</text></g></g><g id="_49D21C06-EF90-48DA-84DD-C438FDECB929" bpmn2nodeid="_49D21C06-EF90-48DA-84DD-C438FDECB929" transform="matrix(1,0,0,1,1186,595)"><g><path fill="none" stroke="none"/></g><g transform="matrix(0.125,0,0,0.125,0,0)"><g transform="matrix(1,0,0,1,0,0)"><path fill="#fef4ea" stroke="none" id="_49D21C06-EF90-48DA-84DD-C438FDECB929?shapeType=BACKGROUND" paint-order="stroke fill markers" d=" M 0 0 M 224.4 4.3 C 216.4 4.3 208.4 7.3 202.3 13.399999999999999 L 13.5 202.2 C 1.3000000000000007 214.39999999999998 1.3000000000000007 234.2 13.5 246.39999999999998 L 202.2 435.09999999999997 C 208.29999999999998 441.2 216.39999999999998 444.2 224.29999999999998 444.2 C 232.2 444.2 240.29999999999998 441.2 246.39999999999998 435.09999999999997 L 435.09999999999997 246.39999999999998 C 447.29999999999995 234.2 447.29999999999995 214.39999999999998 435.09999999999997 202.2 L 246.5 13.4 C 240.4 7.3 232.4 4.3 224.4 4.3 L 224.4 4.3 Z"/></g><g><g transform="matrix(1,0,0,1,0,0)"><g transform="matrix(1,0,0,1,0,0)"><path fill="rgb(236,122,8)" stroke="none" id="_49D21C06-EF90-48DA-84DD-C438FDECB929?shapeType=BORDER&amp;renderType=FILL" paint-order="stroke fill markers" d=" M 0 0 M 20.8 212.7 L 213.3 20.2 C 219.60000000000002 13.899999999999999 229.70000000000002 13.899999999999999 235.9 20.2 L 428.4 212.7 C 434.7 219 434.7 229.1 428.4 235.29999999999998 L 235.9 427.8 C 229.6 434.1 219.5 434.1 213.3 427.8 L 20.8 235.3 C 14.5 229.1 14.5 218.9 20.8 212.7 L 20.8 212.7 Z M 0 0 M 0 224 C 0 232.1 3.1 240.3 9.3 246.5 L 201.5 438.7 C 213.9 451.09999999999997 234.1 451.09999999999997 246.5 438.7 L 438.7 246.5 C 444.9 240.3 448 232.1 448 224 C 448 215.9 444.9 207.7 438.7 201.5 L 246.5 9.3 C 234.1 -3.0999999999999996 213.9 -3.0999999999999996 201.5 9.3 L 9.3 201.5 C 3.1 207.7 0 215.9 0 224 L 0 224 Z"/></g></g></g><g><g transform="matrix(1,0,0,1,0,0)"><g transform="matrix(1,0,0,1,0,0)"><path fill="#ec7a08" stroke="none" id="_49D21C06-EF90-48DA-84DD-C438FDECB929_parallel" paint-order="stroke fill markers" d=" M 0 0 M 312 212 L 312 236 C 312 239.4 310.9 242.1 308.5 244.5 C 306.1 246.9 303.4 248 300 248 L 248 248 L 248 300 C 248 303.4 246.9 306.1 244.5 308.5 C 242.1 310.9 239.4 312 236 312 L 212 312 C 208.6 312 205.9 310.9 203.5 308.5 C 201.1 306.1 200 303.4 200 300 L 200 248 L 148 248 C 144.6 248 141.9 246.9 139.5 244.5 C 137.1 242.1 136 239.4 136 236 L 136 212 C 136 208.6 137.1 205.9 139.5 203.5 C 141.9 201.1 144.6 200 148 200 L 200 200 L 200 148 C 200 144.6 201.1 141.9 203.5 139.5 C 205.9 137.1 208.6 136 212 136 L 236 136 C 239.4 136 242.1 137.1 244.5 139.5 C 246.9 141.9 248 144.6 248 148 L 248 200 L 300 200 C 303.4 200 306.1 201.1 308.5 203.5 C 310.9 205.9 312 208.6 312 212 Z"/></g></g></g></g><g transform="matrix(1,0,0,1,28,61)"/></g><g id="_0B710BA7-D7A9-46F8-93A7-C672001C6937" bpmn2nodeid="_0B710BA7-D7A9-46F8-93A7-C672001C6937" transform="matrix(1,0,0,1,0,0)"><g><path fill="none" stroke="rgb(0,0,0)" paint-order="fill stroke markers" d=" M 216 435.3225806451613 L 235.00438803214277 434.86279706373847" stroke-miterlimit="10" stroke-dasharray=""/></g><g transform="matrix(1,0,0,1,216,435.3225806451613)"/><g transform="matrix(0.024186470915897994,0.9997074645238148,-0.9997074645238148,0.024186470915897994,249.87906764542052,429.5014626773809)"><path fill="rgb(0,0,0)" stroke="rgb(0,0,0)" paint-order="fill stroke markers" d=" M 10 15 L 0 15 L 5 0 Z" stroke-miterlimit="10" stroke-dasharray=""/></g><g transform="matrix(1,0,0,1,216.241864709159,424.91421567734244)"/></g><g id="_B9C0AACD-1563-4EEC-ACAE-FA7C24BA84FB" bpmn2nodeid="_B9C0AACD-1563-4EEC-ACAE-FA7C24BA84FB" transform="matrix(1,0,0,1,0,0)"><g><path fill="none" stroke="rgb(0,0,0)" paint-order="fill stroke markers" d=" M 446 407 L 446 282 L 493.5 282" stroke-miterlimit="10" stroke-dasharray=""/></g><g transform="matrix(1,0,0,1,446,407)"/><g transform="matrix(6.123233995736766e-17,1,-1,6.123233995736766e-17,508.5,277)"><path fill="rgb(0,0,0)" stroke="rgb(0,0,0)" paint-order="fill stroke markers" d=" M 10 15 L 0 15 L 5 0 Z" stroke-miterlimit="10" stroke-dasharray=""/></g><g transform="matrix(1,0,0,1,456,344.5)"/></g><g id="_09D26A3D-9A86-408A-B50D-FA4AE8B863E4" bpmn2nodeid="_09D26A3D-9A86-408A-B50D-FA4AE8B863E4" transform="matrix(1,0,0,1,0,0)"><g><path fill="none" stroke="rgb(0,0,0)" paint-order="fill stroke markers" d=" M 446 463 L 445 512 L 445 571 L 494 571" stroke-miterlimit="10" stroke-dasharray=""/></g><g transform="matrix(1,0,0,1,446,463)"/><g transform="matrix(6.123233995736766e-17,1,-1,6.123233995736766e-17,509,566)"><path fill="rgb(0,0,0)" stroke="rgb(0,0,0)" paint-order="fill stroke markers" d=" M 10 15 L 0 15 L 5 0 Z" stroke-miterlimit="10" stroke-dasharray=""/></g><g transform="matrix(1,0,0,1,454.99791818463444,487.2959608533748)"/></g><g id="_5A784401-80AC-4732-9BCD-AEB90A2B2A94" bpmn2nodeid="_5A784401-80AC-4732-9BCD-AEB90A2B2A94" transform="matrix(1,0,0,1,0,0)"><g><path fill="none" stroke="rgb(0,0,0)" paint-order="fill stroke markers" d=" M 446 407 L 473 377 L 494 377" stroke-miterlimit="10" stroke-dasharray=""/></g><g transform="matrix(1,0,0,1,446,407)"/><g transform="matrix(6.123233995736766e-17,1,-1,6.123233995736766e-17,509,372)"><path fill="rgb(0,0,0)" stroke="rgb(0,0,0)" paint-order="fill stroke markers" d=" M 10 15 L 0 15 L 5 0 Z" stroke-miterlimit="10" stroke-dasharray=""/></g><g transform="matrix(1,0,0,1,453.43294146247166,385.3103526837755)"/></g><g id="_BFBC7D79-C777-46BC-BFAF-41C3474E624D" bpmn2nodeid="_BFBC7D79-C777-46BC-BFAF-41C3474E624D" transform="matrix(1,0,0,1,0,0)"><g><path fill="none" stroke="rgb(0,0,0)" paint-order="fill stroke markers" d=" M 474 435 L 474 479.5 L 494.6190786709385 476.8863139712895" stroke-miterlimit="10" stroke-dasharray=""/></g><g transform="matrix(1,0,0,1,474,435)"/><g transform="matrix(0.12575426475263327,0.9920614219374346,-0.9920614219374346,0.12575426475263327,508.87122867623685,470.03969289031284)"><path fill="rgb(0,0,0)" stroke="rgb(0,0,0)" paint-order="fill stroke markers" d=" M 10 15 L 0 15 L 5 0 Z" stroke-miterlimit="10" stroke-dasharray=""/></g><g transform="matrix(1,0,0,1,484,457.25)"/></g><g id="_ECA5C242-79D3-4715-A0D5-B1B939F7EB3E" bpmn2nodeid="_ECA5C242-79D3-4715-A0D5-B1B939F7EB3E" transform="matrix(1,0,0,1,0,0)"><g><path fill="none" stroke="rgb(0,0,0)" paint-order="fill stroke markers" d=" M 366 434.76363636363635 L 403.0001549562765 434.9318188861649" stroke-miterlimit="10" stroke-dasharray=""/></g><g transform="matrix(1,0,0,1,366,434.76363636363635)"/><g transform="matrix(-0.004545407589008255,0.9999896695815661,-0.9999896695815661,-0.004545407589008255,418.02272703794506,430.00005165209217)"><path fill="rgb(0,0,0)" stroke="rgb(0,0,0)" paint-order="fill stroke markers" d=" M 10 15 L 0 15 L 5 0 Z" stroke-miterlimit="10" stroke-dasharray=""/></g><g transform="matrix(1,0,0,1,366.04545407589006,424.8819214860025)"/></g><g id="_A076C1AC-80D0-4C40-8D2D-4195E64CBA11" bpmn2nodeid="_A076C1AC-80D0-4C40-8D2D-4195E64CBA11" transform="matrix(1,0,0,1,0,0)"><g><path fill="none" stroke="rgb(0,0,0)" paint-order="fill stroke markers" d=" M 636.5 475 L 689.5 475" stroke-miterlimit="10" stroke-dasharray=""/></g><g transform="matrix(1,0,0,1,636.5,475)"/><g transform="matrix(6.123233995736766e-17,1,-1,6.123233995736766e-17,704.5,470)"><path fill="rgb(0,0,0)" stroke="rgb(0,0,0)" paint-order="fill stroke markers" d=" M 10 15 L 0 15 L 5 0 Z" stroke-miterlimit="10" stroke-dasharray=""/></g><g transform="matrix(1,0,0,1,636.5,465)"/></g><g id="_1EBE7D6A-3985-4FD9-AD4C-7D70F0C7D85E" bpmn2nodeid="_1EBE7D6A-3985-4FD9-AD4C-7D70F0C7D85E" transform="matrix(1,0,0,1,0,0)"><g><path fill="none" stroke="rgb(0,0,0)" paint-order="fill stroke markers" d=" M 838.5 475 L 871.5 475" stroke-miterlimit="10" stroke-dasharray=""/></g><g transform="matrix(1,0,0,1,838.5,475)"/><g transform="matrix(6.123233995736766e-17,1,-1,6.123233995736766e-17,886.5,470)"><path fill="rgb(0,0,0)" stroke="rgb(0,0,0)" paint-order="fill stroke markers" d=" M 10 15 L 0 15 L 5 0 Z" stroke-miterlimit="10" stroke-dasharray=""/></g><g transform="matrix(1,0,0,1,838.5,465)"/></g><g id="_B3C43204-5F05-4CCD-AB22-958E6799489D" bpmn2nodeid="_B3C43204-5F05-4CCD-AB22-958E6799489D" transform="matrix(1,0,0,1,0,0)"><g><path fill="none" stroke="rgb(0,0,0)" paint-order="fill stroke markers" d=" M 914.5 503 L 980.6028439078639 609.7471600944559" stroke-miterlimit="10" stroke-dasharray=""/></g><g transform="matrix(1,0,0,1,914.5,503)"/><g transform="matrix(-0.8501893270362714,0.5264770728090751,-0.5264770728090751,-0.8501893270362714,992.7509466351813,619.8676146359546)"><path fill="rgb(0,0,0)" stroke="rgb(0,0,0)" paint-order="fill stroke markers" d=" M 10 15 L 0 15 L 5 0 Z" stroke-miterlimit="10" stroke-dasharray=""/></g><g transform="matrix(1,0,0,1,923.0018932703628,557.4852292719092)"/></g><g id="_CD14F280-6D49-45BC-B188-8600A81AD683" bpmn2nodeid="_CD14F280-6D49-45BC-B188-8600A81AD683" transform="matrix(1,0,0,1,0,0)"><g><path fill="none" stroke="rgb(0,0,0)" paint-order="fill stroke markers" d=" M 914.5 503 L 913 742.5 L 973.5 742.5" stroke-miterlimit="10" stroke-dasharray=""/></g><g transform="matrix(1,0,0,1,914.5,503)"/><g transform="matrix(6.123233995736766e-17,1,-1,6.123233995736766e-17,988.5,737.5)"><path fill="rgb(0,0,0)" stroke="rgb(0,0,0)" paint-order="fill stroke markers" d=" M 10 15 L 0 15 L 5 0 Z" stroke-miterlimit="10" stroke-dasharray=""/></g><g transform="matrix(1,0,0,1,923.1235113585301,622.6873707481612)"/></g><g id="_930BBAE9-5BA9-4B45-A278-D78D27989677" bpmn2nodeid="_930BBAE9-5BA9-4B45-A278-D78D27989677" transform="matrix(1,0,0,1,0,0)"><g><path fill="none" stroke="rgb(0,0,0)" paint-order="fill stroke markers" d=" M 1105.5 622.7104316546763 L 1171.0000970437247 622.9460435145457" stroke-miterlimit="10" stroke-dasharray=""/></g><g transform="matrix(1,0,0,1,1105.5,622.7104316546763)"/><g transform="matrix(-0.003597099030283234,0.9999935304183554,-0.9999935304183554,-0.003597099030283234,1186.0179854951514,618.0000323479082)"><path fill="rgb(0,0,0)" stroke="rgb(0,0,0)" paint-order="fill stroke markers" d=" M 10 15 L 0 15 L 5 0 Z" stroke-miterlimit="10" stroke-dasharray=""/></g><g transform="matrix(1,0,0,1,1105.5359709903028,612.8552805231546)"/></g><g id="_7CED821E-89EB-4E16-9FAC-04106E387913" bpmn2nodeid="_7CED821E-89EB-4E16-9FAC-04106E387913" transform="matrix(1,0,0,1,0,0)"><g><path fill="none" stroke="rgb(0,0,0)" paint-order="fill stroke markers" d=" M 1105.5 710.4476047904192 L 1200.845136541022 658.2076048293203" stroke-miterlimit="10" stroke-dasharray=""/></g><g transform="matrix(1,0,0,1,1105.5,710.4476047904192)"/><g transform="matrix(0.48050698862135593,0.8769908972652088,-0.8769908972652088,0.48050698862135593,1211.5974650568933,646.615045513674)"><path fill="rgb(0,0,0)" stroke="rgb(0,0,0)" paint-order="fill stroke markers" d=" M 10 15 L 0 15 L 5 0 Z" stroke-miterlimit="10" stroke-dasharray=""/></g><g transform="matrix(1,0,0,1,1110.3050698862135,671.9538934225575)"/></g><g transform="matrix(1,0,0,1,160,408)"/><g transform="matrix(1,0,0,1,508.5,250)"/><g transform="matrix(1,0,0,1,509,345.5)"/><g transform="matrix(1,0,0,1,509.5,435)"/><g transform="matrix(1,0,0,1,509,538)"/><g transform="matrix(1,0,0,1,418,407)"/><g transform="matrix(1,0,0,1,250,396)"/><g transform="matrix(1,0,0,1,704.5,437)"/><g transform="matrix(1,0,0,1,886.5,447)"/><g transform="matrix(1,0,0,1,988.5,583)"/><g transform="matrix(1,0,0,1,988.5,707)"/><g transform="matrix(1,0,0,1,1186,595)"/><g id="_090EDA48-68A4-484F-AB15-5DF6D7A9AF01" bpmn2nodeid="_090EDA48-68A4-484F-AB15-5DF6D7A9AF01" transform="matrix(1,0,0,1,995,268)"><g><path fill="none" stroke="none"/></g><g transform="matrix(1,0,0,1,0,0)"><path fill="#ffffff" stroke="none" id="_090EDA48-68A4-484F-AB15-5DF6D7A9AF01?shapeType=BACKGROUND" paint-order="stroke fill markers" d=" M 2 0 L 118 0 L 118 0 A 2 2 0 0 1 120 2 L 120 71 L 120 71 A 2 2 0 0 1 118 73 L 2 73 L 2 73 A 2 2 0 0 1 0 71 L 0 2 L 0 2.0000000000000004 A 2 2 0 0 1 1.9999999999999996 0 Z"/></g><g transform="matrix(1,0,0,1,0,0)"><path fill="none" stroke="rgb(57,63,68)" id="_090EDA48-68A4-484F-AB15-5DF6D7A9AF01?shapeType=BORDER&amp;renderType=STROKE" paint-order="fill stroke markers" d=" M 2 0 L 118 0 L 118 0 A 2 2 0 0 1 120 2 L 120 71 L 120 71 A 2 2 0 0 1 118 73 L 2 73 L 2 73 A 2 2 0 0 1 0 71 L 0 2 L 0 2.0000000000000004 A 2 2 0 0 1 1.9999999999999996 0 Z" stroke-miterlimit="10" stroke-width="5" stroke-dasharray=""/></g><g transform="matrix(1,0,0,1,-15.5,-18)"><g transform="matrix(1,0,0,1,0,0)"><g transform="matrix(1,0,0,1,63,66)"><path fill="none" stroke="#393f44" id="_090EDA48-68A4-484F-AB15-5DF6D7A9AF01_subProcessReusableNormalBoundingBox" paint-order="fill stroke markers" d=" M 0 0 L 25 0 L 25 25 L 0 25 L 0 0 Z Z" stroke-miterlimit="10" stroke-width="1.5" stroke-dasharray=""/></g><g transform="matrix(0.04,0,0,0.04,68.64,69.6)"><path fill="#000000" stroke="#000000" id="_090EDA48-68A4-484F-AB15-5DF6D7A9AF01_subProcessReusableNormalReusableIcon" paint-order="fill stroke markers" d=" M 0 0 M 352 184 L 352 232 C 352 238.7 349.7 244.3 345 249 C 340.3 253.7 334.7 256 328 256 L 224 256 L 224 360 C 224 366.7 221.7 372.3 217 377 C 212.3 381.7 206.7 384 200 384 L 152 384 C 145.3 384 139.7 381.7 135 377 C 130.3 372.3 128 366.7 128 360 L 128 256 L 24 256 C 17.3 256 11.7 253.7 7 249 C 2.3000000000000007 244.3 0 238.7 0 232 L 0 184 C 0 177.3 2.3 171.7 7 167 C 11.7 162.3 17.3 160 24 160 L 128 160 L 128 56 C 128 49.3 130.3 43.7 135 39 C 139.7 34.3 145.3 32 152 32 L 200 32 C 206.7 32 212.3 34.3 217 39 C 221.7 43.7 224 49.3 224 56 L 224 160 L 328 160 C 334.7 160 340.3 162.3 345 167 C 349.7 171.7 352 177.3 352 184 Z" stroke-miterlimit="10" stroke-dasharray=""/></g></g></g><g transform="matrix(1,0,0,1,-3.6799999999999997,-18)"><g transform="matrix(1,0,0,1,0,0)"><g transform="matrix(1,0,0,1,63,66)"><path fill="none" stroke="none"/></g><g transform="matrix(0.04,0,0,0.04,68.64,69.6)"><path fill="none" stroke="none"/></g><g transform="matrix(0.04,0,0,0.04,40.32,71.04)"><path fill="none" stroke="none"/></g><g transform="matrix(0.04,0,0,0.04,39.36,72)"><path fill="none" stroke="none"/></g></g></g><g transform="matrix(1,0,0,1,16.95703125,21.5)"><text fill="#000000" stroke="none" font-family="Open Sans" font-size="12pt" font-style="normal" font-weight="normal" text-decoration="normal" x="43.04296875" y="12" text-anchor="middle" dominant-baseline="alphabetic">Production </text><text fill="#000000" stroke="none" font-family="Open Sans" font-size="12pt" font-style="normal" font-weight="normal" text-decoration="normal" x="43.04296875" y="27" text-anchor="middle" dominant-baseline="alphabetic">       cell        </text></g></g><g id="_99A7526A-0D12-4114-8ED8-9A0EAA5AC3A5" bpmn2nodeid="_99A7526A-0D12-4114-8ED8-9A0EAA5AC3A5" transform="matrix(1,0,0,1,1192,170)"><g><path fill="none" stroke="none"/></g><g transform="matrix(0.125,0,0,0.125,0,0)"><g transform="matrix(1,0,0,1,0,0)"><path fill="#fef4ea" stroke="none" id="_99A7526A-0D12-4114-8ED8-9A0EAA5AC3A5?shapeType=BACKGROUND" paint-order="stroke fill markers" d=" M 0 0 M 224.4 4.3 C 216.4 4.3 208.4 7.3 202.3 13.399999999999999 L 13.5 202.2 C 1.3000000000000007 214.39999999999998 1.3000000000000007 234.2 13.5 246.39999999999998 L 202.2 435.09999999999997 C 208.29999999999998 441.2 216.39999999999998 444.2 224.29999999999998 444.2 C 232.2 444.2 240.29999999999998 441.2 246.39999999999998 435.09999999999997 L 435.09999999999997 246.39999999999998 C 447.29999999999995 234.2 447.29999999999995 214.39999999999998 435.09999999999997 202.2 L 246.5 13.4 C 240.4 7.3 232.4 4.3 224.4 4.3 L 224.4 4.3 Z"/></g><g><g transform="matrix(1,0,0,1,0,0)"><g transform="matrix(1,0,0,1,0,0)"><path fill="rgb(236,122,8)" stroke="none" id="_99A7526A-0D12-4114-8ED8-9A0EAA5AC3A5?shapeType=BORDER&amp;renderType=FILL" paint-order="stroke fill markers" d=" M 0 0 M 20.8 212.7 L 213.3 20.2 C 219.60000000000002 13.899999999999999 229.70000000000002 13.899999999999999 235.9 20.2 L 428.4 212.7 C 434.7 219 434.7 229.1 428.4 235.29999999999998 L 235.9 427.8 C 229.6 434.1 219.5 434.1 213.3 427.8 L 20.8 235.3 C 14.5 229.1 14.5 218.9 20.8 212.7 L 20.8 212.7 Z M 0 0 M 0 224 C 0 232.1 3.1 240.3 9.3 246.5 L 201.5 438.7 C 213.9 451.09999999999997 234.1 451.09999999999997 246.5 438.7 L 438.7 246.5 C 444.9 240.3 448 232.1 448 224 C 448 215.9 444.9 207.7 438.7 201.5 L 246.5 9.3 C 234.1 -3.0999999999999996 213.9 -3.0999999999999996 201.5 9.3 L 9.3 201.5 C 3.1 207.7 0 215.9 0 224 L 0 224 Z"/></g></g></g><g><g transform="matrix(1,0,0,1,0,0)"><g transform="matrix(1,0,0,1,0,0)"><path fill="#ec7a08" stroke="none" id="_99A7526A-0D12-4114-8ED8-9A0EAA5AC3A5_parallel" paint-order="stroke fill markers" d=" M 0 0 M 312 212 L 312 236 C 312 239.4 310.9 242.1 308.5 244.5 C 306.1 246.9 303.4 248 300 248 L 248 248 L 248 300 C 248 303.4 246.9 306.1 244.5 308.5 C 242.1 310.9 239.4 312 236 312 L 212 312 C 208.6 312 205.9 310.9 203.5 308.5 C 201.1 306.1 200 303.4 200 300 L 200 248 L 148 248 C 144.6 248 141.9 246.9 139.5 244.5 C 137.1 242.1 136 239.4 136 236 L 136 212 C 136 208.6 137.1 205.9 139.5 203.5 C 141.9 201.1 144.6 200 148 200 L 200 200 L 200 148 C 200 144.6 201.1 141.9 203.5 139.5 C 205.9 137.1 208.6 136 212 136 L 236 136 C 239.4 136 242.1 137.1 244.5 139.5 C 246.9 141.9 248 144.6 248 148 L 248 200 L 300 200 C 303.4 200 306.1 201.1 308.5 203.5 C 310.9 205.9 312 208.6 312 212 Z"/></g></g></g></g><g transform="matrix(1,0,0,1,28,61)"/></g><g id="_16727B66-B00A-4222-AE1E-1ADFC4D4D0F9" bpmn2nodeid="_16727B66-B00A-4222-AE1E-1ADFC4D4D0F9" transform="matrix(1,0,0,1,0,0)"><g><path fill="none" stroke="rgb(0,0,0)" paint-order="fill stroke markers" d=" M 1115 275.95454545454544 L 1206.4548169423306 232.44422345470937" stroke-miterlimit="10" stroke-dasharray=""/></g><g transform="matrix(1,0,0,1,1115,275.95454545454544)"/><g transform="matrix(0.42961489698062383,0.9030122038446258,-0.9030122038446258,0.42961489698062383,1217.8519255150968,221.48493898077686)"><path fill="rgb(0,0,0)" stroke="rgb(0,0,0)" paint-order="fill stroke markers" d=" M 10 15 L 0 15 L 5 0 Z" stroke-miterlimit="10" stroke-dasharray=""/></g><g transform="matrix(1,0,0,1,1119.2961489698062,241.94715068882647)"/></g><g transform="matrix(1,0,0,1,995,268)"/><g transform="matrix(1,0,0,1,1192,170)"/><g id="_182EB558-545D-49C3-A1AA-D91EAAD8F811" bpmn2nodeid="_182EB558-545D-49C3-A1AA-D91EAAD8F811" transform="matrix(1,0,0,1,886,170)"><g><path fill="none" stroke="none"/></g><g transform="matrix(0.125,0,0,0.125,0,0)"><g transform="matrix(1,0,0,1,0,0)"><path fill="#fef4ea" stroke="none" id="_182EB558-545D-49C3-A1AA-D91EAAD8F811?shapeType=BACKGROUND" paint-order="stroke fill markers" d=" M 0 0 M 224.4 4.3 C 216.4 4.3 208.4 7.3 202.3 13.399999999999999 L 13.5 202.2 C 1.3000000000000007 214.39999999999998 1.3000000000000007 234.2 13.5 246.39999999999998 L 202.2 435.09999999999997 C 208.29999999999998 441.2 216.39999999999998 444.2 224.29999999999998 444.2 C 232.2 444.2 240.29999999999998 441.2 246.39999999999998 435.09999999999997 L 435.09999999999997 246.39999999999998 C 447.29999999999995 234.2 447.29999999999995 214.39999999999998 435.09999999999997 202.2 L 246.5 13.4 C 240.4 7.3 232.4 4.3 224.4 4.3 L 224.4 4.3 Z"/></g><g><g transform="matrix(1,0,0,1,0,0)"><g transform="matrix(1,0,0,1,0,0)"><path fill="rgb(236,122,8)" stroke="none" id="_182EB558-545D-49C3-A1AA-D91EAAD8F811?shapeType=BORDER&amp;renderType=FILL" paint-order="stroke fill markers" d=" M 0 0 M 20.8 212.7 L 213.3 20.2 C 219.60000000000002 13.899999999999999 229.70000000000002 13.899999999999999 235.9 20.2 L 428.4 212.7 C 434.7 219 434.7 229.1 428.4 235.29999999999998 L 235.9 427.8 C 229.6 434.1 219.5 434.1 213.3 427.8 L 20.8 235.3 C 14.5 229.1 14.5 218.9 20.8 212.7 L 20.8 212.7 Z M 0 0 M 0 224 C 0 232.1 3.1 240.3 9.3 246.5 L 201.5 438.7 C 213.9 451.09999999999997 234.1 451.09999999999997 246.5 438.7 L 438.7 246.5 C 444.9 240.3 448 232.1 448 224 C 448 215.9 444.9 207.7 438.7 201.5 L 246.5 9.3 C 234.1 -3.0999999999999996 213.9 -3.0999999999999996 201.5 9.3 L 9.3 201.5 C 3.1 207.7 0 215.9 0 224 L 0 224 Z"/></g></g></g><g><g transform="matrix(1,0,0,1,0,0)"><g transform="matrix(1,0,0,1,0,0)"><path fill="#ec7a08" stroke="none" id="_182EB558-545D-49C3-A1AA-D91EAAD8F811_parallel" paint-order="stroke fill markers" d=" M 0 0 M 312 212 L 312 236 C 312 239.4 310.9 242.1 308.5 244.5 C 306.1 246.9 303.4 248 300 248 L 248 248 L 248 300 C 248 303.4 246.9 306.1 244.5 308.5 C 242.1 310.9 239.4 312 236 312 L 212 312 C 208.6 312 205.9 310.9 203.5 308.5 C 201.1 306.1 200 303.4 200 300 L 200 248 L 148 248 C 144.6 248 141.9 246.9 139.5 244.5 C 137.1 242.1 136 239.4 136 236 L 136 212 C 136 208.6 137.1 205.9 139.5 203.5 C 141.9 201.1 144.6 200 148 200 L 200 200 L 200 148 C 200 144.6 201.1 141.9 203.5 139.5 C 205.9 137.1 208.6 136 212 136 L 236 136 C 239.4 136 242.1 137.1 244.5 139.5 C 246.9 141.9 248 144.6 248 148 L 248 200 L 300 200 C 303.4 200 306.1 201.1 308.5 203.5 C 310.9 205.9 312 208.6 312 212 Z"/></g></g></g></g><g transform="matrix(1,0,0,1,28,61)"/></g><g id="_BCA5716C-5879-4755-B402-1E83B604C790" bpmn2nodeid="_BCA5716C-5879-4755-B402-1E83B604C790" transform="matrix(1,0,0,1,0,0)"><g><path fill="none" stroke="rgb(0,0,0)" paint-order="fill stroke markers" d=" M 914 226 L 1040.624214746206 263.71785120099753" stroke-miterlimit="10" stroke-dasharray=""/></g><g transform="matrix(1,0,0,1,914,226)"/><g transform="matrix(-0.2854765866001652,0.9583856835862681,-0.9583856835862681,-0.2854765866001652,1056.427382933001,263.20807158206867)"><path fill="rgb(0,0,0)" stroke="rgb(0,0,0)" paint-order="fill stroke markers" d=" M 10 15 L 0 15 L 5 0 Z" stroke-miterlimit="10" stroke-dasharray=""/></g><g transform="matrix(1,0,0,1,916.8547658660017,237.4161431641373)"/></g><g transform="matrix(1,0,0,1,886,170)"/><g id="_692C312D-A529-4343-9161-159D33C274C9" bpmn2nodeid="_692C312D-A529-4343-9161-159D33C274C9" transform="matrix(1,0,0,1,1540.7692307692307,383)"><g><path fill="none" stroke="none"/></g><g transform="matrix(1,0,0,1,0,0)"><path fill="#ffffff" stroke="none" id="_692C312D-A529-4343-9161-159D33C274C9?shapeType=BACKGROUND" paint-order="stroke fill markers" d=" M 2 0 L 152 0 L 152 0 A 2 2 0 0 1 154 2 L 154 100.00000000000001 L 154 100.00000000000001 A 2 2 0 0 1 152 102.00000000000001 L 2 102.00000000000001 L 2 102.00000000000001 A 2 2 0 0 1 0 100.00000000000001 L 0 2 L 0 2.0000000000000004 A 2 2 0 0 1 1.9999999999999996 0 Z"/></g><g transform="matrix(1,0,0,1,0,0)"><path fill="none" stroke="rgb(0,0,0)" id="_692C312D-A529-4343-9161-159D33C274C9?shapeType=BORDER&amp;renderType=STROKE" paint-order="fill stroke markers" d=" M 2 0 L 152 0 L 152 0 A 2 2 0 0 1 154 2 L 154 100.00000000000001 L 154 100.00000000000001 A 2 2 0 0 1 152 102.00000000000001 L 2 102.00000000000001 L 2 102.00000000000001 A 2 2 0 0 1 0 100.00000000000001 L 0 2 L 0 2.0000000000000004 A 2 2 0 0 1 1.9999999999999996 0 Z" stroke-miterlimit="10" stroke-width="1.5" stroke-dasharray=""/></g><g><g transform="matrix(0.06,0,0,0.06,9.4,9.4)"><g transform="matrix(1,0,0,1,0,0)"><path fill="#393f44" stroke="none" id="_692C312D-A529-4343-9161-159D33C274C9_task__kr51__x4SI" paint-order="stroke fill markers" d=" M 0 0 M 16 445.2101 C 16 440.86867 18.784312 431.12906000000004 22.001325 424.21728 C 35.767643 394.6402 77.282944 359.28049 129 333.08362 C 144.51625 325.22398 157.34689 319.96394 167.80739 317.17416 C 171.93153 316.07426 175.72913 314.41389999999996 176.5251 313.36265 C 178.89361 310.23449999999997 180.91404 302.90781 181.72673 294.5 L 182.5 286.5 L 178.50715 283.45457 C 166.30327 274.14645 154.2837 251.67767 148.03953 226.5 C 145.61086 216.70715 145.05603000000002 215.46246 142.98364 215.1579 C 141.70332000000002 214.96974 138.08302 212.24302 134.93852 209.09852 C 123.23314 197.39314000000002 116.89146000000001 177.37556 121.43982000000001 166.48978 C 123.00204000000001 162.75088 128.15457 159.00970999999998 131.75 159.00374 C 134.44781 158.99974 134.47062 158.60296 132.91375 138.78796 C 130.92658 113.4962 134.27903 92.26542699999999 143.13217 74.075676 C 152.23162 55.379835 167.56889 42.88208 189.04934 36.659507000000005 C 210.20334 30.531504000000005 237.79666 30.531504000000005 258.95065999999997 36.659507000000005 C 300.04166 48.562968000000005 318.95842 83.80634 314.95504999999997 141 C 314.31982999999997 150.075 313.62402 157.78816 313.4088 158.14035 C 313.19359 158.49254000000002 314.57532 159.07295000000002 316.47931 159.43014000000002 C 328.92867 161.76565000000002 330.98619 177.01772000000003 321.49638 196.62092 C 316.90319 206.10912000000002 309.35724 214.50797 304.81732 215.18517000000003 C 303.02259 215.45289000000002 302.2931 217.14618000000002 299.94277999999997 226.50000000000003 C 296.65948 239.56693 294.47402 245.30522000000002 287.94764 257.99534000000006 C 282.49071999999995 268.60596000000004 273.03466 281.10922000000005 268.10756999999995 284.2288300000001 L 264.87062 286.27832000000006 L 265.51815999999997 292.88916000000006 C 266.34490999999997 301.32961000000006 268.63948999999997 309.8706000000001 270.87735999999995 312.83742000000007 C 272.06735 314.4150200000001 275.00244999999995 315.78963000000005 280.0630699999999 317.13941000000005 C 291.06929999999994 320.0750300000001 303.61700999999994 325.27420000000006 320.99999999999994 334.10171 C 369.81470999999993 358.89104000000003 410.84810999999996 393.75797 425.03216 422.5 C 429.06985999999995 430.68183 432 440.23198 432 445.2101 L 432 448 L 224 448 L 16 448 L 16 445.2101 Z"/></g></g></g><g transform="matrix(1,0,0,1,4.039999999999992,13.680000000000007)"><g transform="matrix(0.04,0,0,0.04,63.36,69.12)"><g transform="matrix(1,0,0,1,0,0)"><path fill="none" stroke="none"/></g><g transform="matrix(1,0,0,1,0,0)"><path fill="none" stroke="none"/></g></g></g><g transform="matrix(1,0,0,1,60.75,43.50000000000001)"><text fill="#000000" stroke="none" font-family="Open Sans" font-size="12pt" font-style="normal" font-weight="normal" text-decoration="normal" x="16.25" y="12" text-anchor="middle" dominant-baseline="alphabetic">Task</text></g></g><g transform="matrix(1,0,0,1,1540.7692307692307,383)"/><g id="_B4BE7524-3080-490E-81C5-0C6D4FE26BDC" bpmn2nodeid="_B4BE7524-3080-490E-81C5-0C6D4FE26BDC" transform="matrix(1,0,0,1,1328,147)"><g><path fill="none" stroke="none"/></g><g transform="matrix(1,0,0,1,0,0)"><path fill="#ffffff" stroke="none" id="_B4BE7524-3080-490E-81C5-0C6D4FE26BDC?shapeType=BACKGROUND" paint-order="stroke fill markers" d=" M 2 0 L 145.8461538461538 0 L 145.8461538461538 0 A 2 2 0 0 1 147.8461538461538 2 L 147.8461538461538 95.38461538461539 L 147.8461538461538 95.38461538461539 A 2 2 0 0 1 145.8461538461538 97.38461538461539 L 2 97.38461538461539 L 2 97.38461538461539 A 2 2 0 0 1 0 95.38461538461539 L 0 2 L 0 2.0000000000000004 A 2 2 0 0 1 1.9999999999999996 0 Z"/></g><g transform="matrix(1,0,0,1,0,0)"><path fill="none" stroke="rgb(0,0,0)" id="_B4BE7524-3080-490E-81C5-0C6D4FE26BDC?shapeType=BORDER&amp;renderType=STROKE" paint-order="fill stroke markers" d=" M 2 0 L 145.8461538461538 0 L 145.8461538461538 0 A 2 2 0 0 1 147.8461538461538 2 L 147.8461538461538 95.38461538461539 L 147.8461538461538 95.38461538461539 A 2 2 0 0 1 145.8461538461538 97.38461538461539 L 2 97.38461538461539 L 2 97.38461538461539 A 2 2 0 0 1 0 95.38461538461539 L 0 2 L 0 2.0000000000000004 A 2 2 0 0 1 1.9999999999999996 0 Z" stroke-miterlimit="10" stroke-width="1.5" stroke-dasharray=""/></g><g transform="matrix(1,0,0,1,19.387920673076906,41.19230769230769)"><text fill="#000000" stroke="none" font-family="Open Sans" font-size="12pt" font-style="normal" font-weight="normal" text-decoration="normal" x="54.53515625" y="12" text-anchor="middle" dominant-baseline="alphabetic">Review Output</text></g></g><g id="_EE7C662C-A7E1-49E9-9A34-E267833F1716" bpmn2nodeid="_EE7C662C-A7E1-49E9-9A34-E267833F1716"><g><path fill="none" stroke="rgb(0,136,206)" paint-order="fill stroke markers" d=" M 1248 198 L 1313.006236862435 196.12482009050666" stroke-miterlimit="10" stroke-dasharray=""/></g><g transform="matrix(1,0,0,1,1248,198)"/><g transform="matrix(0.02883415987993196,0.9995842091710025,-0.9995842091710025,0.02883415987993196,1327.8558292006003,190.69438664645267)"><path fill="rgb(0,0,0)" stroke="rgb(0,136,206)" paint-order="fill stroke markers" d=" M 10 15 L 0 15 L 5 0 Z" stroke-miterlimit="10" stroke-dasharray=""/></g><g transform="matrix(1,0,0,1,1248.2883415987994,186.85031175444382)"/></g><g id="_6D161A11-A0AA-4557-B58B-A0BDA0376710" bpmn2nodeid="_6D161A11-A0AA-4557-B58B-A0BDA0376710" transform="matrix(1,0,0,1,1562,170)"><g><path fill="none" stroke="none"/></g><g transform="matrix(0.125,0,0,0.125,0,0)"><g transform="matrix(1,0,0,1,0,0)"><path fill="#fce7e7" stroke="none" id="_6D161A11-A0AA-4557-B58B-A0BDA0376710?shapeType=BACKGROUND" paint-order="stroke fill markers" d=" M 0 0 M 444 224 C 444 263.9 434.2 300.8 414.4 334.5 C 394.7 368.2 368 394.9 334.4 414.5 C 300.79999999999995 434.1 263.9 444 224 444 C 184.10000000000002 444 147.2 434.2 113.5 414.4 C 79.8 394.7 53.1 368 33.5 334.4 C 13.899999999999999 300.79999999999995 4 263.9 4 224 C 4 184.10000000000002 13.8 147.2 33.6 113.5 C 53.400000000000006 79.80000000000001 80.1 53.1 113.6 33.5 C 147.1 13.899999999999999 184.1 4 224 4 C 263.9 4 300.8 13.8 334.5 33.6 C 368.2 53.400000000000006 394.9 80.1 414.5 113.6 C 434.1 147.1 444 184.1 444 224 Z"/></g><g><g transform="matrix(1,0,0,1,0,0)"><g transform="matrix(1,0,0,1,0,0)"><path fill="rgb(163,0,0)" stroke="none" id="_6D161A11-A0AA-4557-B58B-A0BDA0376710?shapeType=BORDER&amp;renderType=FILL" paint-order="stroke fill markers" d=" M 0 0 M 224 0 C 100.3 0 0 100.3 0 224 C 0 347.7 100.3 448 224 448 C 347.7 448 448 347.7 448 224 C 448 100.30000000000001 347.7 0 224 0 Z M 0 0 M 224 400 C 126.8 400 48 321.2 48 224 C 48 126.80000000000001 126.8 48 224 48 C 321.2 48 400 126.8 400 224 C 400 321.2 321.2 400 224 400 Z"/></g></g></g></g><g transform="matrix(1,0,0,1,28,61)"/></g><g id="_CF199892-3722-4E8A-A34F-1F184AF796AA" bpmn2nodeid="_CF199892-3722-4E8A-A34F-1F184AF796AA"><g><path fill="none" stroke="#000000" paint-order="fill stroke markers" d=" M 1475.8461538461538 195.69230769230768 L 1547.0053781648244 197.59835834370065" stroke-miterlimit="10" stroke-dasharray=""/></g><g transform="matrix(1,0,0,1,1475.8461538461538,195.69230769230768)"/><g transform="matrix(-0.026776110419956426,0.9996414556783738,-0.9996414556783738,-0.026776110419956426,1562.1338805520998,193.00179272160813)"><path fill="#000000" stroke="#000000" paint-order="fill stroke markers" d=" M 10 15 L 0 15 L 5 0 Z" stroke-miterlimit="10" stroke-dasharray=""/></g><g transform="matrix(1,0,0,1,1476.1139149503533,186.8497392893701)"/></g><g transform="matrix(1,0,0,1,1562,170)"/><g transform="matrix(1,0,0,1,1328,147)"/><g id="_CA0B58B2-D75C-48FC-8359-9DB8668CE24C" bpmn2nodeid="_CA0B58B2-D75C-48FC-8359-9DB8668CE24C"><g><path fill="none" stroke="rgb(0,0,0)" paint-order="fill stroke markers" d=" M 1458.0342126046437 244.38461538461536 L 1606.4401579446774 373.16881955531454" stroke-miterlimit="10" stroke-dasharray=""/></g><g transform="matrix(1,0,0,1,1458.0342126046437,244.38461538461536)"/><g transform="matrix(-0.6554120296456988,0.7552715216368916,-0.7552715216368916,-0.6554120296456988,1621.0462909174591,379.22364239181553)"><path fill="rgb(0,0,0)" stroke="rgb(0,0,0)" paint-order="fill stroke markers" d=" M 10 15 L 0 15 L 5 0 Z" stroke-miterlimit="10" stroke-dasharray=""/></g><g transform="matrix(1,0,0,1,1468.9286898197051,306.13959247593874)"/></g><g id="_28478D70-4922-496B-85BD-9D6D1E068FDF" bpmn2nodeid="_28478D70-4922-496B-85BD-9D6D1E068FDF"><g><path fill="none" stroke="rgb(0,0,0)" paint-order="fill stroke markers" d=" M 638 380.8009065966838 L 1525.7952076455388 433.11759901907385" stroke-miterlimit="10" stroke-dasharray=""/></g><g transform="matrix(1,0,0,1,638,380.8009065966838)"/><g transform="matrix(-0.05882673206174322,0.9982682082461285,-0.9982682082461285,-0.05882673206174322,1541.0633644295394,429.00865895876933)"><path fill="rgb(0,0,0)" stroke="rgb(0,0,0)" paint-order="fill stroke markers" d=" M 10 15 L 0 15 L 5 0 Z" stroke-miterlimit="10" stroke-dasharray=""/></g><g transform="matrix(1,0,0,1,990.1460618806198,397.4177712158806)"/></g><g id="_96579C65-9478-44AC-8A44-5B9326071CAC" bpmn2nodeid="_96579C65-9478-44AC-8A44-5B9326071CAC" transform="matrix(1,0,0,1,1322,572)"><g><path fill="none" stroke="none"/></g><g transform="matrix(1,0,0,1,0,0)"><path fill="#ffffff" stroke="none" id="_96579C65-9478-44AC-8A44-5B9326071CAC?shapeType=BACKGROUND" paint-order="stroke fill markers" d=" M 2 0 L 152 0 L 152 0 A 2 2 0 0 1 154 2 L 154 100 L 154 100 A 2 2 0 0 1 152 102 L 2 102 L 2 102 A 2 2 0 0 1 0 100 L 0 2 L 0 2.0000000000000004 A 2 2 0 0 1 1.9999999999999996 0 Z"/></g><g transform="matrix(1,0,0,1,0,0)"><path fill="none" stroke="rgb(0,0,0)" id="_96579C65-9478-44AC-8A44-5B9326071CAC?shapeType=BORDER&amp;renderType=STROKE" paint-order="fill stroke markers" d=" M 2 0 L 152 0 L 152 0 A 2 2 0 0 1 154 2 L 154 100 L 154 100 A 2 2 0 0 1 152 102 L 2 102 L 2 102 A 2 2 0 0 1 0 100 L 0 2 L 0 2.0000000000000004 A 2 2 0 0 1 1.9999999999999996 0 Z" stroke-miterlimit="10" stroke-width="1.5" stroke-dasharray=""/></g><g transform="matrix(1,0,0,1,24.54296875,43.5)"><text fill="#000000" stroke="none" font-family="Open Sans" font-size="12pt" font-style="normal" font-weight="normal" text-decoration="normal" x="52.45703125" y="12" text-anchor="middle" dominant-baseline="alphabetic">ReviewOutput</text></g></g><g id="_915947F2-D22C-48E6-BD56-D0EFF483E230" bpmn2nodeid="_915947F2-D22C-48E6-BD56-D0EFF483E230"><g><path fill="none" stroke="#000000" paint-order="fill stroke markers" d=" M 1242 623 L 1307 623" stroke-miterlimit="10" stroke-dasharray=""/></g><g transform="matrix(1,0,0,1,1242,623)"/><g transform="matrix(6.123233995736766e-17,1,-1,6.123233995736766e-17,1322,618)"><path fill="#000000" stroke="#000000" paint-order="fill stroke markers" d=" M 10 15 L 0 15 L 5 0 Z" stroke-miterlimit="10" stroke-dasharray=""/></g><g transform="matrix(1,0,0,1,1242,613)"/></g><g transform="matrix(1,0,0,1,1322,572)"/><g id="_490E8F26-ED5B-441C-833E-5424ECD1ECFF" bpmn2nodeid="_490E8F26-ED5B-441C-833E-5424ECD1ECFF" transform="matrix(1,0,0,1,1556,595)"><g><path fill="none" stroke="none"/></g><g transform="matrix(0.125,0,0,0.125,0,0)"><g transform="matrix(1,0,0,1,0,0)"><path fill="#fce7e7" stroke="none" id="_490E8F26-ED5B-441C-833E-5424ECD1ECFF?shapeType=BACKGROUND" paint-order="stroke fill markers" d=" M 0 0 M 444 224 C 444 263.9 434.2 300.8 414.4 334.5 C 394.7 368.2 368 394.9 334.4 414.5 C 300.79999999999995 434.1 263.9 444 224 444 C 184.10000000000002 444 147.2 434.2 113.5 414.4 C 79.8 394.7 53.1 368 33.5 334.4 C 13.899999999999999 300.79999999999995 4 263.9 4 224 C 4 184.10000000000002 13.8 147.2 33.6 113.5 C 53.400000000000006 79.80000000000001 80.1 53.1 113.6 33.5 C 147.1 13.899999999999999 184.1 4 224 4 C 263.9 4 300.8 13.8 334.5 33.6 C 368.2 53.400000000000006 394.9 80.1 414.5 113.6 C 434.1 147.1 444 184.1 444 224 Z"/></g><g><g transform="matrix(1,0,0,1,0,0)"><g transform="matrix(1,0,0,1,0,0)"><path fill="rgb(163,0,0)" stroke="none" id="_490E8F26-ED5B-441C-833E-5424ECD1ECFF?shapeType=BORDER&amp;renderType=FILL" paint-order="stroke fill markers" d=" M 0 0 M 224 0 C 100.3 0 0 100.3 0 224 C 0 347.7 100.3 448 224 448 C 347.7 448 448 347.7 448 224 C 448 100.30000000000001 347.7 0 224 0 Z M 0 0 M 224 400 C 126.8 400 48 321.2 48 224 C 48 126.80000000000001 126.8 48 224 48 C 321.2 48 400 126.8 400 224 C 400 321.2 321.2 400 224 400 Z"/></g></g></g></g><g transform="matrix(1,0,0,1,28,61)"/></g><g id="_71B5216F-C158-44FF-B94C-CB59639C0E48" bpmn2nodeid="_71B5216F-C158-44FF-B94C-CB59639C0E48"><g><path fill="none" stroke="#000000" paint-order="fill stroke markers" d=" M 1476 623 L 1541 623" stroke-miterlimit="10" stroke-dasharray=""/></g><g transform="matrix(1,0,0,1,1476,623)"/><g transform="matrix(6.123233995736766e-17,1,-1,6.123233995736766e-17,1556,618)"><path fill="#000000" stroke="#000000" paint-order="fill stroke markers" d=" M 10 15 L 0 15 L 5 0 Z" stroke-miterlimit="10" stroke-dasharray=""/></g><g transform="matrix(1,0,0,1,1476,613)"/></g><g transform="matrix(1,0,0,1,1556,595)"/><g id="_CCA2E4E7-8CAA-4FD4-B043-A081460F83ED" bpmn2nodeid="_CCA2E4E7-8CAA-4FD4-B043-A081460F83ED"><g><path fill="none" stroke="rgb(0,0,0)" paint-order="fill stroke markers" d=" M 1476 574.4282700421941 L 1605.0824471218448 493.00284453706416" stroke-miterlimit="10" stroke-dasharray=""/></g><g transform="matrix(1,0,0,1,1476,574.4282700421941)"/><g transform="matrix(0.5335229691376145,0.8457855764924015,-0.8457855764924015,0.5335229691376145,1615.1016159235426,480.771072117538)"><path fill="rgb(0,0,0)" stroke="rgb(0,0,0)" paint-order="fill stroke markers" d=" M 10 15 L 0 15 L 5 0 Z" stroke-miterlimit="10" stroke-dasharray=""/></g><g transform="matrix(1,0,0,1,1481.335229691376,521.256279256173)"/></g><g id="_228555ED-1739-4104-B1D5-62AE4F50A8A4" bpmn2nodeid="_228555ED-1739-4104-B1D5-62AE4F50A8A4"><g><path fill="none" stroke="rgb(0,0,0)" paint-order="fill stroke markers" d=" M 573.4999999764536 604 L 573.4999998333093 804.6153846153848 L 1617.7692307692307 804.6153846153848 L 1617.7692307692307 500" stroke-miterlimit="10" stroke-dasharray=""/></g><g transform="matrix(1,0,0,1,573.4999999764536,604)"/><g transform="matrix(1,0,0,1,1612.7692307692307,485)"><path fill="rgb(0,0,0)" stroke="rgb(0,0,0)" paint-order="fill stroke markers" d=" M 10 15 L 0 15 L 5 0 Z" stroke-miterlimit="10" stroke-dasharray=""/></g><g transform="matrix(1,0,0,1,583.4999998335288,704.3076923005572)"/></g><g id="_B8946852-BEFE-4223-972F-6807A04BE009" bpmn2nodeid="_B8946852-BEFE-4223-972F-6807A04BE009" transform="matrix(1,0,0,1,1862,407.6446886446886)"><g><path fill="none" stroke="none"/></g><g transform="matrix(0.125,0,0,0.125,0,0)"><g transform="matrix(1,0,0,1,0,0)"><path fill="#fce7e7" stroke="none" id="_B8946852-BEFE-4223-972F-6807A04BE009?shapeType=BACKGROUND" paint-order="stroke fill markers" d=" M 0 0 M 444 224 C 444 263.9 434.2 300.8 414.4 334.5 C 394.7 368.2 368 394.9 334.4 414.5 C 300.79999999999995 434.1 263.9 444 224 444 C 184.10000000000002 444 147.2 434.2 113.5 414.4 C 79.8 394.7 53.1 368 33.5 334.4 C 13.899999999999999 300.79999999999995 4 263.9 4 224 C 4 184.10000000000002 13.8 147.2 33.6 113.5 C 53.400000000000006 79.80000000000001 80.1 53.1 113.6 33.5 C 147.1 13.899999999999999 184.1 4 224 4 C 263.9 4 300.8 13.8 334.5 33.6 C 368.2 53.400000000000006 394.9 80.1 414.5 113.6 C 434.1 147.1 444 184.1 444 224 Z"/></g><g><g transform="matrix(1,0,0,1,0,0)"><g transform="matrix(1,0,0,1,0,0)"><path fill="rgb(163,0,0)" stroke="none" id="_B8946852-BEFE-4223-972F-6807A04BE009?shapeType=BORDER&amp;renderType=FILL" paint-order="stroke fill markers" d=" M 0 0 M 224 0 C 100.3 0 0 100.3 0 224 C 0 347.7 100.3 448 224 448 C 347.7 448 448 347.7 448 224 C 448 100.30000000000001 347.7 0 224 0 Z M 0 0 M 224 400 C 126.8 400 48 321.2 48 224 C 48 126.80000000000001 126.8 48 224 48 C 321.2 48 400 126.8 400 224 C 400 321.2 321.2 400 224 400 Z"/></g></g></g><g><g transform="matrix(1,0,0,1,0,0)"><g transform="matrix(1,0,0,1,0,0)"><path fill="#a30000" stroke="none" id="_B8946852-BEFE-4223-972F-6807A04BE009_end_1_" paint-order="stroke fill markers" d=" M 0 0 M 320.2 220.7 C 320.2 238.1 315.9 254.2 307.3 268.9 C 298.7 283.59999999999997 287.1 295.29999999999995 272.40000000000003 303.79999999999995 C 257.70000000000005 312.4 241.60000000000002 316.69999999999993 224.20000000000005 316.69999999999993 C 206.80000000000007 316.69999999999993 190.70000000000005 312.3999999999999 176.00000000000006 303.79999999999995 C 161.30000000000007 295.19999999999993 149.70000000000005 283.59999999999997 141.10000000000005 268.9 C 132.50000000000006 254.2 128.30000000000004 238.09999999999997 128.30000000000004 220.7 C 128.30000000000004 203.3 132.60000000000005 187.2 141.20000000000005 172.5 C 149.80000000000004 157.8 161.40000000000003 146.1 176.10000000000005 137.5 C 190.80000000000004 128.9 206.90000000000006 124.7 224.30000000000007 124.7 C 241.70000000000007 124.7 257.80000000000007 129 272.50000000000006 137.6 C 287.20000000000005 146.2 298.90000000000003 157.9 307.40000000000003 172.5 C 316 187.2 320.2 203.3 320.2 220.7 Z"/></g></g></g></g><g transform="matrix(1,0,0,1,28,61)"/></g><g transform="matrix(1,0,0,1,1862,407.6446886446886)"/><g id="_FD86A911-CC32-4FAA-A1A4-7A6353AB8338" bpmn2nodeid="_FD86A911-CC32-4FAA-A1A4-7A6353AB8338"><g><path fill="none" stroke="rgb(0,0,0)" paint-order="fill stroke markers" d=" M 1694.7692307692307 434.518530183727 L 1847.0003401050856 435.54367856155676" stroke-miterlimit="10" stroke-dasharray=""/></g><g transform="matrix(1,0,0,1,1694.7692307692307,434.518530183727)"/><g transform="matrix(-0.006734005542121714,0.9999773263276316,-0.9999773263276316,-0.006734005542121714,1862.0336700277105,430.6448020130504)"><path fill="rgb(0,0,0)" stroke="rgb(0,0,0)" paint-order="fill stroke markers" d=" M 10 15 L 0 15 L 5 0 Z" stroke-miterlimit="10" stroke-dasharray=""/></g><g transform="matrix(1,0,0,1,1694.836570824652,425.0818361509315)"/></g><g id="_3A4A7089-12F3-432E-AB3E-952B947C9E94" bpmn2nodeid="_3A4A7089-12F3-432E-AB3E-952B947C9E94" transform="matrix(1,0,0,1,995,72)"><g><path fill="none" stroke="none"/></g><g transform="matrix(1,0,0,1,0,0)"><path fill="#ffffff" stroke="none" id="_3A4A7089-12F3-432E-AB3E-952B947C9E94?shapeType=BACKGROUND" paint-order="stroke fill markers" d=" M 2 0 L 112 0 L 112 0 A 2 2 0 0 1 114 2 L 114 53 L 114 53 A 2 2 0 0 1 112 55 L 2 55 L 2 55 A 2 2 0 0 1 0 53 L 0 2 L 0 2.0000000000000004 A 2 2 0 0 1 1.9999999999999996 0 Z"/></g><g transform="matrix(1,0,0,1,0,0)"><path fill="none" stroke="rgb(57,63,68)" id="_3A4A7089-12F3-432E-AB3E-952B947C9E94?shapeType=BORDER&amp;renderType=STROKE" paint-order="fill stroke markers" d=" M 2 0 L 112 0 L 112 0 A 2 2 0 0 1 114 2 L 114 53 L 114 53 A 2 2 0 0 1 112 55 L 2 55 L 2 55 A 2 2 0 0 1 0 53 L 0 2 L 0 2.0000000000000004 A 2 2 0 0 1 1.9999999999999996 0 Z" stroke-miterlimit="10" stroke-width="1.5" stroke-dasharray=""/></g><g transform="matrix(1,0,0,1,14.35546875,0)"><text fill="#000000" stroke="none" font-family="Open Sans" font-size="12pt" font-style="normal" font-weight="normal" text-decoration="normal" x="42.64453125" y="12" text-anchor="middle" dominant-baseline="alphabetic">Work force </text><text fill="#000000" stroke="none" font-family="Open Sans" font-size="12pt" font-style="normal" font-weight="normal" text-decoration="normal" x="42.64453125" y="27" text-anchor="middle" dominant-baseline="alphabetic">  planning   </text></g></g><g id="_A4B86A48-2A97-4C54-9753-3060F481C62F" bpmn2nodeid="_A4B86A48-2A97-4C54-9753-3060F481C62F" transform="matrix(1,0,0,1,0,0)"><g><path fill="none" stroke="rgb(0,0,0)" paint-order="fill stroke markers" d=" M 942 198 L 987.8925014865712 112.70921893533476" stroke-miterlimit="10" stroke-dasharray=""/></g><g transform="matrix(1,0,0,1,942,198)"/><g transform="matrix(0.8806145956889854,0.47383323422858886,-0.47383323422858886,0.8806145956889854,990.5969270215551,97.13083382885705)"><path fill="rgb(0,0,0)" stroke="rgb(0,0,0)" paint-order="fill stroke markers" d=" M 10 15 L 0 15 L 5 0 Z" stroke-miterlimit="10" stroke-dasharray=""/></g><g transform="matrix(1,0,0,1,950.8061459568898,144.0116676577141)"/></g><g id="_67A29BC3-CF92-4800-ADBD-D3B9146902A4" bpmn2nodeid="_67A29BC3-CF92-4800-ADBD-D3B9146902A4" transform="matrix(1,0,0,1,0,0)"><g><path fill="none" stroke="rgb(0,0,0)" paint-order="fill stroke markers" d=" M 1109 99.50000000165599 L 1180 99.5000000037187 L 1212.5978087295562 156.9536378865308" stroke-miterlimit="10" stroke-dasharray=""/></g><g transform="matrix(1,0,0,1,1109,99.50000000165599)"/><g transform="matrix(-0.869757474231281,0.4934794180295897,-0.4934794180295897,-0.869757474231281,1224.3487873711565,167.53260290985205)"><path fill="rgb(0,0,0)" stroke="rgb(0,0,0)" paint-order="fill stroke markers" d=" M 10 15 L 0 15 L 5 0 Z" stroke-miterlimit="10" stroke-dasharray=""/></g><g transform="matrix(1,0,0,1,1109.0000000002906,89.50000000268734)"/></g><g transform="matrix(1,0,0,1,995,72)"/><g id="_A2F07089-4B76-4299-9169-E59DCF6742C9" bpmn2nodeid="_A2F07089-4B76-4299-9169-E59DCF6742C9" transform="matrix(1,0,0,1,989,468.5)"><g><path fill="none" stroke="none"/></g><g transform="matrix(1,0,0,1,0,0)"><path fill="#ffffff" stroke="none" id="_A2F07089-4B76-4299-9169-E59DCF6742C9?shapeType=BACKGROUND" paint-order="stroke fill markers" d=" M 2 0 L 121 0 L 121 0 A 2 2 0 0 1 123 2 L 123 73 L 123 73 A 2 2 0 0 1 121 75 L 2 75 L 2 75 A 2 2 0 0 1 0 73 L 0 2 L 0 2.0000000000000004 A 2 2 0 0 1 1.9999999999999996 0 Z"/></g><g transform="matrix(1,0,0,1,0,0)"><path fill="none" stroke="rgb(57,63,68)" id="_A2F07089-4B76-4299-9169-E59DCF6742C9?shapeType=BORDER&amp;renderType=STROKE" paint-order="fill stroke markers" d=" M 2 0 L 121 0 L 121 0 A 2 2 0 0 1 123 2 L 123 73 L 123 73 A 2 2 0 0 1 121 75 L 2 75 L 2 75 A 2 2 0 0 1 0 73 L 0 2 L 0 2.0000000000000004 A 2 2 0 0 1 1.9999999999999996 0 Z" stroke-miterlimit="10" stroke-width="5" stroke-dasharray=""/></g><g transform="matrix(1,0,0,1,-14,-16)"><g transform="matrix(1,0,0,1,0,0)"><g transform="matrix(1,0,0,1,63,66)"><path fill="none" stroke="#393f44" id="_A2F07089-4B76-4299-9169-E59DCF6742C9_subProcessReusableNormalBoundingBox" paint-order="fill stroke markers" d=" M 0 0 L 25 0 L 25 25 L 0 25 L 0 0 Z Z" stroke-miterlimit="10" stroke-width="1.5" stroke-dasharray=""/></g><g transform="matrix(0.04,0,0,0.04,68.64,69.6)"><path fill="#000000" stroke="#000000" id="_A2F07089-4B76-4299-9169-E59DCF6742C9_subProcessReusableNormalReusableIcon" paint-order="fill stroke markers" d=" M 0 0 M 352 184 L 352 232 C 352 238.7 349.7 244.3 345 249 C 340.3 253.7 334.7 256 328 256 L 224 256 L 224 360 C 224 366.7 221.7 372.3 217 377 C 212.3 381.7 206.7 384 200 384 L 152 384 C 145.3 384 139.7 381.7 135 377 C 130.3 372.3 128 366.7 128 360 L 128 256 L 24 256 C 17.3 256 11.7 253.7 7 249 C 2.3000000000000007 244.3 0 238.7 0 232 L 0 184 C 0 177.3 2.3 171.7 7 167 C 11.7 162.3 17.3 160 24 160 L 128 160 L 128 56 C 128 49.3 130.3 43.7 135 39 C 139.7 34.3 145.3 32 152 32 L 200 32 C 206.7 32 212.3 34.3 217 39 C 221.7 43.7 224 49.3 224 56 L 224 160 L 328 160 C 334.7 160 340.3 162.3 345 167 C 349.7 171.7 352 177.3 352 184 Z" stroke-miterlimit="10" stroke-dasharray=""/></g></g></g><g transform="matrix(1,0,0,1,-2.1799999999999997,-16)"><g transform="matrix(1,0,0,1,0,0)"><g transform="matrix(1,0,0,1,63,66)"><path fill="none" stroke="none"/></g><g transform="matrix(0.04,0,0,0.04,68.64,69.6)"><path fill="none" stroke="none"/></g><g transform="matrix(0.04,0,0,0.04,40.32,71.04)"><path fill="none" stroke="none"/></g><g transform="matrix(0.04,0,0,0.04,39.36,72)"><path fill="none" stroke="none"/></g></g></g><g transform="matrix(1,0,0,1,15.953125,30)"><text fill="#000000" stroke="none" font-family="Open Sans" font-size="12pt" font-style="normal" font-weight="normal" text-decoration="normal" x="45.546875" y="12" text-anchor="middle" dominant-baseline="alphabetic">Sub-process</text></g></g><g id="_056AAE72-AA2D-46C1-960A-3C9931F559CC" bpmn2nodeid="_056AAE72-AA2D-46C1-960A-3C9931F559CC" transform="matrix(1,0,0,1,0,0)"><g><path fill="none" stroke="rgb(0,0,0)" paint-order="fill stroke markers" d=" M 942.5 475 L 976.5192455849324 497.6794970566216" stroke-miterlimit="10" stroke-dasharray=""/></g><g transform="matrix(1,0,0,1,942.5,475)"/><g transform="matrix(-0.5547001962252289,0.8320502943378438,-0.8320502943378438,-0.5547001962252289,991.7735009811262,501.8397485283108)"><path fill="rgb(0,0,0)" stroke="rgb(0,0,0)" paint-order="fill stroke markers" d=" M 10 15 L 0 15 L 5 0 Z" stroke-miterlimit="10" stroke-dasharray=""/></g><g transform="matrix(1,0,0,1,948.0470019622522,482.1794970566216)"/></g><g id="_EB301291-DF7A-4798-AE59-0C7095749702" bpmn2nodeid="_EB301291-DF7A-4798-AE59-0C7095749702" transform="matrix(1,0,0,1,0,0)"><g><path fill="none" stroke="rgb(0,0,0)" paint-order="fill stroke markers" d=" M 1112 505.9976464280295 L 1214 505.99374294281006 L 1214 580" stroke-miterlimit="10" stroke-dasharray=""/></g><g transform="matrix(1,0,0,1,1112,505.9976464280295)"/><g transform="matrix(-1,1.2246467991473532e-16,-1.2246467991473532e-16,-1,1219,595)"><path fill="rgb(0,0,0)" stroke="rgb(0,0,0)" paint-order="fill stroke markers" d=" M 10 15 L 0 15 L 5 0 Z" stroke-miterlimit="10" stroke-dasharray=""/></g><g transform="matrix(1,0,0,1,1112.000382694629,495.9956946927425)"/></g><g transform="matrix(1,0,0,1,989,468.5)"/><g id="_9CE3FD0E-E195-46C0-8F58-24ACEE6887FA" bpmn2nodeid="_9CE3FD0E-E195-46C0-8F58-24ACEE6887FA" transform="matrix(1,0,0,1,995,162.5)"><g><path fill="none" stroke="none"/></g><g transform="matrix(1,0,0,1,0,0)"><path fill="#ffffff" stroke="none" id="_9CE3FD0E-E195-46C0-8F58-24ACEE6887FA?shapeType=BACKGROUND" paint-order="stroke fill markers" d=" M 2 0 L 115 0 L 115 0 A 2 2 0 0 1 117 2 L 117 69 L 117 69 A 2 2 0 0 1 115 71 L 2 71 L 2 71 A 2 2 0 0 1 0 69 L 0 2 L 0 2.0000000000000004 A 2 2 0 0 1 1.9999999999999996 0 Z"/></g><g transform="matrix(1,0,0,1,0,0)"><path fill="none" stroke="rgb(57,63,68)" id="_9CE3FD0E-E195-46C0-8F58-24ACEE6887FA?shapeType=BORDER&amp;renderType=STROKE" paint-order="fill stroke markers" d=" M 2 0 L 115 0 L 115 0 A 2 2 0 0 1 117 2 L 117 69 L 117 69 A 2 2 0 0 1 115 71 L 2 71 L 2 71 A 2 2 0 0 1 0 69 L 0 2 L 0 2.0000000000000004 A 2 2 0 0 1 1.9999999999999996 0 Z" stroke-miterlimit="10" stroke-width="5" stroke-dasharray=""/></g><g transform="matrix(1,0,0,1,-17,-20)"><g transform="matrix(1,0,0,1,0,0)"><g transform="matrix(1,0,0,1,63,66)"><path fill="none" stroke="#393f44" id="_9CE3FD0E-E195-46C0-8F58-24ACEE6887FA_subProcessReusableNormalBoundingBox" paint-order="fill stroke markers" d=" M 0 0 L 25 0 L 25 25 L 0 25 L 0 0 Z Z" stroke-miterlimit="10" stroke-width="1.5" stroke-dasharray=""/></g><g transform="matrix(0.04,0,0,0.04,68.64,69.6)"><path fill="#000000" stroke="#000000" id="_9CE3FD0E-E195-46C0-8F58-24ACEE6887FA_subProcessReusableNormalReusableIcon" paint-order="fill stroke markers" d=" M 0 0 M 352 184 L 352 232 C 352 238.7 349.7 244.3 345 249 C 340.3 253.7 334.7 256 328 256 L 224 256 L 224 360 C 224 366.7 221.7 372.3 217 377 C 212.3 381.7 206.7 384 200 384 L 152 384 C 145.3 384 139.7 381.7 135 377 C 130.3 372.3 128 366.7 128 360 L 128 256 L 24 256 C 17.3 256 11.7 253.7 7 249 C 2.3000000000000007 244.3 0 238.7 0 232 L 0 184 C 0 177.3 2.3 171.7 7 167 C 11.7 162.3 17.3 160 24 160 L 128 160 L 128 56 C 128 49.3 130.3 43.7 135 39 C 139.7 34.3 145.3 32 152 32 L 200 32 C 206.7 32 212.3 34.3 217 39 C 221.7 43.7 224 49.3 224 56 L 224 160 L 328 160 C 334.7 160 340.3 162.3 345 167 C 349.7 171.7 352 177.3 352 184 Z" stroke-miterlimit="10" stroke-dasharray=""/></g></g></g><g transform="matrix(1,0,0,1,-5.18,-20)"><g transform="matrix(1,0,0,1,0,0)"><g transform="matrix(1,0,0,1,63,66)"><path fill="none" stroke="none"/></g><g transform="matrix(0.04,0,0,0.04,68.64,69.6)"><path fill="none" stroke="none"/></g><g transform="matrix(0.04,0,0,0.04,40.32,71.04)"><path fill="none" stroke="none"/></g><g transform="matrix(0.04,0,0,0.04,39.36,72)"><path fill="none" stroke="none"/></g></g></g><g transform="matrix(1,0,0,1,12.953125,28)"><text fill="#000000" stroke="none" font-family="Open Sans" font-size="12pt" font-style="normal" font-weight="normal" text-decoration="normal" x="45.546875" y="12" text-anchor="middle" dominant-baseline="alphabetic">Sub-process</text></g></g><g id="_E6A1D483-54D3-4CFA-9E87-E257D3203406" bpmn2nodeid="_E6A1D483-54D3-4CFA-9E87-E257D3203406" transform="matrix(1,0,0,1,0,0)"><g><path fill="none" stroke="rgb(0,0,0)" paint-order="fill stroke markers" d=" M 942 198 L 980 198" stroke-miterlimit="10" stroke-dasharray=""/></g><g transform="matrix(1,0,0,1,942,198)"/><g transform="matrix(6.123233995736766e-17,1,-1,6.123233995736766e-17,995,193)"><path fill="rgb(0,0,0)" stroke="rgb(0,0,0)" paint-order="fill stroke markers" d=" M 10 15 L 0 15 L 5 0 Z" stroke-miterlimit="10" stroke-dasharray=""/></g><g transform="matrix(1,0,0,1,942,188)"/></g><g id="_F1202DA1-9EF2-45FD-A306-4DDB9974DF8B" bpmn2nodeid="_F1202DA1-9EF2-45FD-A306-4DDB9974DF8B" transform="matrix(1,0,0,1,0,0)"><g><path fill="none" stroke="rgb(0,0,0)" paint-order="fill stroke markers" d=" M 1112 198 L 1177 198" stroke-miterlimit="10" stroke-dasharray=""/></g><g transform="matrix(1,0,0,1,1112,198)"/><g transform="matrix(6.123233995736766e-17,1,-1,6.123233995736766e-17,1192,193)"><path fill="rgb(0,0,0)" stroke="rgb(0,0,0)" paint-order="fill stroke markers" d=" M 10 15 L 0 15 L 5 0 Z" stroke-miterlimit="10" stroke-dasharray=""/></g><g transform="matrix(1,0,0,1,1112,188)"/></g><g transform="matrix(1,0,0,1,995,162.5)"/><g id="_109742E6-ED06-4B80-BD57-F28B0AD07BA3" bpmn2nodeid="_109742E6-ED06-4B80-BD57-F28B0AD07BA3" transform="matrix(1,0,0,1,705,253.5)"><g><path fill="none" stroke="none"/></g><g transform="matrix(1,0,0,1,0,0)"><path fill="#ffffff" stroke="none" id="_109742E6-ED06-4B80-BD57-F28B0AD07BA3?shapeType=BACKGROUND" paint-order="stroke fill markers" d=" M 2 0 L 128 0 L 128 0 A 2 2 0 0 1 130 2 L 130 55 L 130 55 A 2 2 0 0 1 128 57 L 2 57 L 2 57 A 2 2 0 0 1 0 55 L 0 2 L 0 2.0000000000000004 A 2 2 0 0 1 1.9999999999999996 0 Z"/></g><g transform="matrix(1,0,0,1,0,0)"><path fill="none" stroke="rgb(0,0,0)" id="_109742E6-ED06-4B80-BD57-F28B0AD07BA3?shapeType=BORDER&amp;renderType=STROKE" paint-order="fill stroke markers" d=" M 2 0 L 128 0 L 128 0 A 2 2 0 0 1 130 2 L 130 55 L 130 55 A 2 2 0 0 1 128 57 L 2 57 L 2 57 A 2 2 0 0 1 0 55 L 0 2 L 0 2.0000000000000004 A 2 2 0 0 1 1.9999999999999996 0 Z" stroke-miterlimit="10" stroke-width="1.5" stroke-dasharray=""/></g><g transform="matrix(1,0,0,1,21.984375,13.5)"><text fill="#000000" stroke="none" font-family="Open Sans" font-size="12pt" font-style="normal" font-weight="normal" text-decoration="normal" x="43.015625" y="12" text-anchor="middle" dominant-baseline="alphabetic">  Planting    </text><text fill="#000000" stroke="none" font-family="Open Sans" font-size="12pt" font-style="normal" font-weight="normal" text-decoration="normal" x="43.015625" y="27" text-anchor="middle" dominant-baseline="alphabetic">Technicians</text></g></g><g id="_091CEB65-369F-4530-9859-A1554CCA08F7" bpmn2nodeid="_091CEB65-369F-4530-9859-A1554CCA08F7" transform="matrix(1,0,0,1,0,0)"><g><path fill="none" stroke="rgb(0,0,0)" paint-order="fill stroke markers" d=" M 637.5 282 L 690 282" stroke-miterlimit="10" stroke-dasharray=""/></g><g transform="matrix(1,0,0,1,637.5,282)"/><g transform="matrix(6.123233995736766e-17,1,-1,6.123233995736766e-17,705,277)"><path fill="rgb(0,0,0)" stroke="rgb(0,0,0)" paint-order="fill stroke markers" d=" M 10 15 L 0 15 L 5 0 Z" stroke-miterlimit="10" stroke-dasharray=""/></g><g transform="matrix(1,0,0,1,637.5,272)"/></g><g id="_0ABA9A29-2816-4880-98F7-70E89A8176A7" bpmn2nodeid="_0ABA9A29-2816-4880-98F7-70E89A8176A7" transform="matrix(1,0,0,1,0,0)"><g><path fill="none" stroke="rgb(0,0,0)" paint-order="fill stroke markers" d=" M 835 256.72222222222223 L 900.0199299268805 231.43669391732422" stroke-miterlimit="10" stroke-dasharray=""/></g><g transform="matrix(1,0,0,1,835,256.72222222222223)"/><g transform="matrix(0.3624462611549476,0.9320046715412963,-0.9320046715412963,0.3624462611549476,912.1877686942253,221.33997664229352)"><path fill="rgb(0,0,0)" stroke="rgb(0,0,0)" paint-order="fill stroke markers" d=" M 10 15 L 0 15 L 5 0 Z" stroke-miterlimit="10" stroke-dasharray=""/></g><g transform="matrix(1,0,0,1,838.6244626115495,232.04106439569816)"/></g><g transform="matrix(1,0,0,1,705,253.5)"/></g></g></svg>