<svg version="1.1" xmlns="http://www.w3.org/2000/svg" xmlns:xlink="http://www.w3.org/1999/xlink" width="1662" height="700" viewBox="0 0 1662 700"><defs/><g transform="matrix(1,0,0,1,0,0)"><g><g><g><path fill="none" stroke="#d3d3d3" paint-order="fill stroke markers" d=" M 0 0 L 1200 0" stroke-miterlimit="10" stroke-opacity="0.8" stroke-dasharray="5"/></g><g><path fill="none" stroke="#d3d3d3" paint-order="fill stroke markers" d=" M 0 0 L 0 800" stroke-miterlimit="10" stroke-opacity="0.8" stroke-dasharray="5"/></g></g><g id="_233E621D-70CE-4117-90DE-A5C3275BE363" bpmn2nodeid="_233E621D-70CE-4117-90DE-A5C3275BE363" transform="matrix(1,0,0,1,81,168)"><g><path fill="none" stroke="none"/></g><g transform="matrix(0.125,0,0,0.125,0,0)"><g transform="matrix(1,0,0,1,0,0)"><path fill="#e8fae6" stroke="none" id="_233E621D-70CE-4117-90DE-A5C3275BE363?shapeType=BACKGROUND" paint-order="stroke fill markers" d=" M 0 0 M 444 224 C 444 263.9 434.2 300.8 414.4 334.5 C 394.7 368.2 368 394.9 334.4 414.5 C 300.79999999999995 434.1 263.9 444 224 444 C 184.10000000000002 444 147.2 434.2 113.5 414.4 C 79.8 394.7 53.1 368 33.5 334.4 C 13.899999999999999 300.79999999999995 4 263.9 4 224 C 4 184.10000000000002 13.8 147.2 33.6 113.5 C 53.400000000000006 79.80000000000001 80.1 53.1 113.6 33.5 C 147.1 13.899999999999999 184.1 4 224 4 C 263.9 4 300.8 13.8 334.5 33.6 C 368.2 53.400000000000006 394.9 80.1 414.5 113.6 C 434.1 147.1 444 184.1 444 224 Z"/></g><g><g transform="matrix(1,0,0,1,0,0)"><g transform="matrix(1,0,0,1,0,0)"><path fill="#4aa241" stroke="none" id="_233E621D-70CE-4117-90DE-A5C3275BE363?shapeType=BORDER&amp;renderType=FILL" paint-order="stroke fill markers" d=" M 0 0 M 224 0 C 100.3 0 0 100.3 0 224 C 0 347.7 100.3 448 224 448 C 347.7 448 448 347.7 448 224 C 448 100.30000000000001 347.7 0 224 0 Z M 0 0 M 224 432 C 109.1 432 16 338.9 16 224 C 16 109.10000000000002 109.1 16 224 16 C 338.9 16 432 109.1 432 224 C 432 338.9 338.9 432 224 432 Z"/></g></g></g></g><g transform="matrix(1,0,0,1,28,61)"/></g><g transform="matrix(1,0,0,1,81,168)"/><g id="_5964F266-C1A2-4B6F-B707-CAC66DBB533B" bpmn2nodeid="_5964F266-C1A2-4B6F-B707-CAC66DBB533B" transform="matrix(1,0,0,1,354,570)"><g><path fill="none" stroke="none"/></g><g transform="matrix(0.1088409706437762,0,0,0.13071895424836602,0,0)"><g transform="matrix(1,0,0,1,0,0)"><path fill="rgb(255,255,255)" stroke="rgb(0,0,0)" id="_5964F266-C1A2-4B6F-B707-CAC66DBB533B?shapeType=BORDER&amp;renderType=STROKE" paint-order="fill stroke markers" d=" M 0 0 M 404.814 0 L 60.736 0 L 60.736 612 L 551.263 612 L 551.263 153 Z M 0 0 M 404.814 0 L 551.263 153 L 404.78839000000005 151.8588 Z" stroke-miterlimit="10" stroke-width="7" stroke-dasharray="0"/></g><g transform="matrix(1,0,0,1,0,0)"><path fill="#ffffff" stroke="none" id="_5964F266-C1A2-4B6F-B707-CAC66DBB533B_dataObject__LX2E" paint-order="stroke fill markers" d=" M 0 0 M 407.78 5.025422 L 408.62229 150.15254 L 545.9156 151 Z"/></g></g><g transform="matrix(1,0,0,1,-15.05859375,85)"><text fill="#000000" stroke="none" font-family="Open Sans" font-size="12pt" font-style="normal" font-weight="normal" text-decoration="normal" x="45.05859375" y="12" text-anchor="middle" dominant-baseline="alphabetic">Crop-Health</text></g></g><g transform="matrix(1,0,0,1,354,570)"/><g id="_72754778-0D07-48E8-8829-A87BA122F633" bpmn2nodeid="_72754778-0D07-48E8-8829-A87BA122F633" transform="matrix(1,0,0,1,567,570)"><g><path fill="none" stroke="none"/></g><g transform="matrix(0.1088409706437762,0,0,0.13071895424836602,0,0)"><g transform="matrix(1,0,0,1,0,0)"><path fill="rgb(255,255,255)" stroke="rgb(0,0,0)" id="_72754778-0D07-48E8-8829-A87BA122F633?shapeType=BORDER&amp;renderType=STROKE" paint-order="fill stroke markers" d=" M 0 0 M 404.814 0 L 60.736 0 L 60.736 612 L 551.263 612 L 551.263 153 Z M 0 0 M 404.814 0 L 551.263 153 L 404.78839000000005 151.8588 Z" stroke-miterlimit="10" stroke-width="7" stroke-dasharray="0"/></g><g transform="matrix(1,0,0,1,0,0)"><path fill="#ffffff" stroke="none" id="_72754778-0D07-48E8-8829-A87BA122F633_dataObject__LX2E" paint-order="stroke fill markers" d=" M 0 0 M 407.78 5.025422 L 408.62229 150.15254 L 545.9156 151 Z"/></g></g><g transform="matrix(1,0,0,1,4.1015625,85)"><text fill="#000000" stroke="none" font-family="Open Sans" font-size="12pt" font-style="normal" font-weight="normal" text-decoration="normal" x="25.8984375" y="12" text-anchor="middle" dominant-baseline="alphabetic">Project</text></g></g><g transform="matrix(1,0,0,1,567,570)"/><g id="_69D76E6E-6D8F-4402-9C75-65EFAD64C224" bpmn2nodeid="_69D76E6E-6D8F-4402-9C75-65EFAD64C224" transform="matrix(1,0,0,1,791,565.2241379310345)"><g><path fill="none" stroke="none"/></g><g transform="matrix(0.1088409706437762,0,0,0.13071895424836602,0,0)"><g transform="matrix(1,0,0,1,0,0)"><path fill="rgb(255,255,255)" stroke="rgb(0,0,0)" id="_69D76E6E-6D8F-4402-9C75-65EFAD64C224?shapeType=BORDER&amp;renderType=STROKE" paint-order="fill stroke markers" d=" M 0 0 M 404.814 0 L 60.736 0 L 60.736 612 L 551.263 612 L 551.263 153 Z M 0 0 M 404.814 0 L 551.263 153 L 404.78839000000005 151.8588 Z" stroke-miterlimit="10" stroke-width="7" stroke-dasharray="0"/></g><g transform="matrix(1,0,0,1,0,0)"><path fill="#ffffff" stroke="none" id="_69D76E6E-6D8F-4402-9C75-65EFAD64C224_dataObject__LX2E" paint-order="stroke fill markers" d=" M 0 0 M 407.78 5.025422 L 408.62229 150.15254 L 545.9156 151 Z"/></g></g><g transform="matrix(1,0,0,1,-17.5390625,85)"><text fill="#000000" stroke="none" font-family="Open Sans" font-size="12pt" font-style="normal" font-weight="normal" text-decoration="normal" x="47.5390625" y="12" text-anchor="middle" dominant-baseline="alphabetic">ProjectDetail</text></g></g><g id="_69D76E6E-6D8F-4402-9C75-65EFAD64C224" bpmn2nodeid="_69D76E6E-6D8F-4402-9C75-65EFAD64C224" transform="matrix(1,0,0,1,791,565.2241379310345)"><g><path fill="none" stroke="none"/></g><g transform="matrix(0.1088409706437762,0,0,0.13071895424836602,0,0)"><g transform="matrix(1,0,0,1,0,0)"><path fill="rgb(255,255,255)" stroke="rgb(0,0,0)" id="_69D76E6E-6D8F-4402-9C75-65EFAD64C224?shapeType=BORDER&amp;renderType=STROKE" paint-order="fill stroke markers" d=" M 0 0 M 404.814 0 L 60.736 0 L 60.736 612 L 551.263 612 L 551.263 153 Z M 0 0 M 404.814 0 L 551.263 153 L 404.78839000000005 151.8588 Z" stroke-miterlimit="10" stroke-width="7" stroke-dasharray="0"/></g><g transform="matrix(1,0,0,1,0,0)"><path fill="#ffffff" stroke="none" id="_69D76E6E-6D8F-4402-9C75-65EFAD64C224_dataObject__LX2E" paint-order="stroke fill markers" d=" M 0 0 M 407.78 5.025422 L 408.62229 150.15254 L 545.9156 151 Z"/></g></g><g transform="matrix(1,0,0,1,-17.5390625,85)"><text fill="#000000" stroke="none" font-family="Open Sans" font-size="12pt" font-style="normal" font-weight="normal" text-decoration="normal" x="47.5390625" y="12" text-anchor="middle" dominant-baseline="alphabetic">ProjectDetail</text></g></g><g transform="matrix(1,0,0,1,791,565.2241379310345)"/><g id="_B9D485DB-3A20-456E-B193-83E309734F09" bpmn2nodeid="_B9D485DB-3A20-456E-B193-83E309734F09" transform="matrix(1,0,0,1,596,243)"><g><path fill="none" stroke="none"/></g><g transform="matrix(0.1088409706437762,0,0,0.13071895424836602,0,0)"><g transform="matrix(1,0,0,1,0,0)"><path fill="rgb(255,255,255)" stroke="rgb(0,0,0)" id="_B9D485DB-3A20-456E-B193-83E309734F09?shapeType=BORDER&amp;renderType=STROKE" paint-order="fill stroke markers" d=" M 0 0 M 404.814 0 L 60.736 0 L 60.736 612 L 551.263 612 L 551.263 153 Z M 0 0 M 404.814 0 L 551.263 153 L 404.78839000000005 151.8588 Z" stroke-miterlimit="10" stroke-width="7" stroke-dasharray="0"/></g><g transform="matrix(1,0,0,1,0,0)"><path fill="#ffffff" stroke="none" id="_B9D485DB-3A20-456E-B193-83E309734F09_dataObject__LX2E" paint-order="stroke fill markers" d=" M 0 0 M 407.78 5.025422 L 408.62229 150.15254 L 545.9156 151 Z"/></g></g><g transform="matrix(1,0,0,1,-11.47265625,85)"><text fill="#000000" stroke="none" font-family="Open Sans" font-size="12pt" font-style="normal" font-weight="normal" text-decoration="normal" x="41.47265625" y="12" text-anchor="middle" dominant-baseline="alphabetic">ProjectLine</text></g></g><g id="_B9D485DB-3A20-456E-B193-83E309734F09" bpmn2nodeid="_B9D485DB-3A20-456E-B193-83E309734F09" transform="matrix(1,0,0,1,596,243)"><g><path fill="none" stroke="none"/></g><g transform="matrix(0.1088409706437762,0,0,0.13071895424836602,0,0)"><g transform="matrix(1,0,0,1,0,0)"><path fill="rgb(255,255,255)" stroke="rgb(0,0,0)" id="_B9D485DB-3A20-456E-B193-83E309734F09?shapeType=BORDER&amp;renderType=STROKE" paint-order="fill stroke markers" d=" M 0 0 M 404.814 0 L 60.736 0 L 60.736 612 L 551.263 612 L 551.263 153 Z M 0 0 M 404.814 0 L 551.263 153 L 404.78839000000005 151.8588 Z" stroke-miterlimit="10" stroke-width="7" stroke-dasharray="0"/></g><g transform="matrix(1,0,0,1,0,0)"><path fill="#ffffff" stroke="none" id="_B9D485DB-3A20-456E-B193-83E309734F09_dataObject__LX2E" paint-order="stroke fill markers" d=" M 0 0 M 407.78 5.025422 L 408.62229 150.15254 L 545.9156 151 Z"/></g></g><g transform="matrix(1,0,0,1,-11.47265625,85)"><text fill="#000000" stroke="none" font-family="Open Sans" font-size="12pt" font-style="normal" font-weight="normal" text-decoration="normal" x="41.47265625" y="12" text-anchor="middle" dominant-baseline="alphabetic">ProjectLine</text></g></g><g transform="matrix(1,0,0,1,596,243)"/><g id="_6CD5246F-2385-48E6-A119-EB3E2B43E4EC" bpmn2nodeid="_6CD5246F-2385-48E6-A119-EB3E2B43E4EC" transform="matrix(1,0,0,1,1003,238)"><g><path fill="none" stroke="none"/></g><g transform="matrix(0.1088409706437762,0,0,0.13071895424836602,0,0)"><g transform="matrix(1,0,0,1,0,0)"><path fill="rgb(255,255,255)" stroke="rgb(0,0,0)" id="_6CD5246F-2385-48E6-A119-EB3E2B43E4EC?shapeType=BORDER&amp;renderType=STROKE" paint-order="fill stroke markers" d=" M 0 0 M 404.814 0 L 60.736 0 L 60.736 612 L 551.263 612 L 551.263 153 Z M 0 0 M 404.814 0 L 551.263 153 L 404.78839000000005 151.8588 Z" stroke-miterlimit="10" stroke-width="7" stroke-dasharray="0"/></g><g transform="matrix(1,0,0,1,0,0)"><path fill="#ffffff" stroke="none" id="_6CD5246F-2385-48E6-A119-EB3E2B43E4EC_dataObject__LX2E" paint-order="stroke fill markers" d=" M 0 0 M 407.78 5.025422 L 408.62229 150.15254 L 545.9156 151 Z"/></g></g><g transform="matrix(1,0,0,1,-24.07421875,85)"><text fill="#000000" stroke="none" font-family="Open Sans" font-size="12pt" font-style="normal" font-weight="normal" text-decoration="normal" x="54.07421875" y="12" text-anchor="middle" dominant-baseline="alphabetic">Cultivated Plot</text></g></g><g transform="matrix(1,0,0,1,1003,238)"/><g id="_FA90937C-676E-45F1-AA47-9375C0C1758A" bpmn2nodeid="_FA90937C-676E-45F1-AA47-9375C0C1758A" transform="matrix(1,0,0,1,1238,238)"><g><path fill="none" stroke="none"/></g><g transform="matrix(0.1088409706437762,0,0,0.13071895424836602,0,0)"><g transform="matrix(1,0,0,1,0,0)"><path fill="rgb(255,255,255)" stroke="rgb(0,0,0)" id="_FA90937C-676E-45F1-AA47-9375C0C1758A?shapeType=BORDER&amp;renderType=STROKE" paint-order="fill stroke markers" d=" M 0 0 M 404.814 0 L 60.736 0 L 60.736 612 L 551.263 612 L 551.263 153 Z M 0 0 M 404.814 0 L 551.263 153 L 404.78839000000005 151.8588 Z" stroke-miterlimit="10" stroke-width="7" stroke-dasharray="0"/></g><g transform="matrix(1,0,0,1,0,0)"><path fill="#ffffff" stroke="none" id="_FA90937C-676E-45F1-AA47-9375C0C1758A_dataObject__LX2E" paint-order="stroke fill markers" d=" M 0 0 M 407.78 5.025422 L 408.62229 150.15254 L 545.9156 151 Z"/></g></g><g transform="matrix(1,0,0,1,-74.828125,85)"><text fill="#000000" stroke="none" font-family="Open Sans" font-size="12pt" font-style="normal" font-weight="normal" text-decoration="normal" x="104.828125" y="12" text-anchor="middle" dominant-baseline="alphabetic">CropWeedManagementTask</text></g></g><g transform="matrix(1,0,0,1,1238,238)"/><g id="_EACAB0AE-38EE-4A9E-B7A9-986D4CF94018" bpmn2nodeid="_EACAB0AE-38EE-4A9E-B7A9-986D4CF94018" transform="matrix(1,0,0,1,1521,148)"><g><path fill="none" stroke="none"/></g><g transform="matrix(0.125,0,0,0.125,0,0)"><g transform="matrix(1,0,0,1,0,0)"><path fill="#fce7e7" stroke="none" id="_EACAB0AE-38EE-4A9E-B7A9-986D4CF94018?shapeType=BACKGROUND" paint-order="stroke fill markers" d=" M 0 0 M 444 224 C 444 263.9 434.2 300.8 414.4 334.5 C 394.7 368.2 368 394.9 334.4 414.5 C 300.79999999999995 434.1 263.9 444 224 444 C 184.10000000000002 444 147.2 434.2 113.5 414.4 C 79.8 394.7 53.1 368 33.5 334.4 C 13.899999999999999 300.79999999999995 4 263.9 4 224 C 4 184.10000000000002 13.8 147.2 33.6 113.5 C 53.400000000000006 79.80000000000001 80.1 53.1 113.6 33.5 C 147.1 13.899999999999999 184.1 4 224 4 C 263.9 4 300.8 13.8 334.5 33.6 C 368.2 53.400000000000006 394.9 80.1 414.5 113.6 C 434.1 147.1 444 184.1 444 224 Z"/></g><g><g transform="matrix(1,0,0,1,0,0)"><g transform="matrix(1,0,0,1,0,0)"><path fill="rgb(163,0,0)" stroke="none" id="_EACAB0AE-38EE-4A9E-B7A9-986D4CF94018?shapeType=BORDER&amp;renderType=FILL" paint-order="stroke fill markers" d=" M 0 0 M 224 0 C 100.3 0 0 100.3 0 224 C 0 347.7 100.3 448 224 448 C 347.7 448 448 347.7 448 224 C 448 100.30000000000001 347.7 0 224 0 Z M 0 0 M 224 400 C 126.8 400 48 321.2 48 224 C 48 126.80000000000001 126.8 48 224 48 C 321.2 48 400 126.8 400 224 C 400 321.2 321.2 400 224 400 Z"/></g></g></g></g><g transform="matrix(1,0,0,1,28,61)"/></g><g transform="matrix(1,0,0,1,1521,148)"/><g id="_5F62B420-7691-4466-8369-2CE312F7C477" bpmn2nodeid="_5F62B420-7691-4466-8369-2CE312F7C477" transform="matrix(1,0,0,1,233,352)"><g><path fill="none" stroke="none"/></g><g transform="matrix(1,0,0,1,0,0)"><path fill="#f2f2f2" stroke="none" id="_5F62B420-7691-4466-8369-2CE312F7C477?shapeType=BACKGROUND" paint-order="stroke fill markers" d=" M 0 0 L 1379 0 L 1379 200 L 0 200 L 0 0 Z Z"/></g><g transform="matrix(1,0,0,1,0,0)"><path fill="none" stroke="rgb(0,0,0)" id="_5F62B420-7691-4466-8369-2CE312F7C477?shapeType=BORDER&amp;renderType=STROKE" paint-order="fill stroke markers" d=" M 0 0 L 1379 0 L 1379 200 L 0 200 L 0 0 Z Z" stroke-miterlimit="10" stroke-width="0.5" stroke-dasharray=""/></g><g transform="matrix(-1.8369701987210297e-16,-1,1,-1.8369701987210297e-16,0,100)"/><g id="_B1EE75C3-8AF0-49A5-906C-7351114D72CF" bpmn2nodeid="_B1EE75C3-8AF0-49A5-906C-7351114D72CF" transform="matrix(1,0,0,1,74,49)"><g><path fill="none" stroke="none"/></g><g transform="matrix(1,0,0,1,0,0)"><path fill="#ffffff" stroke="none" id="_B1EE75C3-8AF0-49A5-906C-7351114D72CF?shapeType=BACKGROUND" paint-order="stroke fill markers" d=" M 2 0 L 152 0 L 152 0 A 2 2 0 0 1 154 2 L 154 100 L 154 100 A 2 2 0 0 1 152 102 L 2 102 L 2 102 A 2 2 0 0 1 0 100 L 0 2 L 0 2.0000000000000004 A 2 2 0 0 1 1.9999999999999996 0 Z"/></g><g transform="matrix(1,0,0,1,0,0)"><path fill="none" stroke="rgb(0,0,0)" id="_B1EE75C3-8AF0-49A5-906C-7351114D72CF?shapeType=BORDER&amp;renderType=STROKE" paint-order="fill stroke markers" d=" M 2 0 L 152 0 L 152 0 A 2 2 0 0 1 154 2 L 154 100 L 154 100 A 2 2 0 0 1 152 102 L 2 102 L 2 102 A 2 2 0 0 1 0 100 L 0 2 L 0 2.0000000000000004 A 2 2 0 0 1 1.9999999999999996 0 Z" stroke-miterlimit="10" stroke-width="1.5" stroke-dasharray=""/></g><g><g transform="matrix(0.06,0,0,0.06,9.4,9.4)"><g transform="matrix(1,0,0,1,0,0)"><path fill="#393f44" stroke="none" id="_B1EE75C3-8AF0-49A5-906C-7351114D72CF_task__kr51__x4SI" paint-order="stroke fill markers" d=" M 0 0 M 16 445.2101 C 16 440.86867 18.784312 431.12906000000004 22.001325 424.21728 C 35.767643 394.6402 77.282944 359.28049 129 333.08362 C 144.51625 325.22398 157.34689 319.96394 167.80739 317.17416 C 171.93153 316.07426 175.72913 314.41389999999996 176.5251 313.36265 C 178.89361 310.23449999999997 180.91404 302.90781 181.72673 294.5 L 182.5 286.5 L 178.50715 283.45457 C 166.30327 274.14645 154.2837 251.67767 148.03953 226.5 C 145.61086 216.70715 145.05603000000002 215.46246 142.98364 215.1579 C 141.70332000000002 214.96974 138.08302 212.24302 134.93852 209.09852 C 123.23314 197.39314000000002 116.89146000000001 177.37556 121.43982000000001 166.48978 C 123.00204000000001 162.75088 128.15457 159.00970999999998 131.75 159.00374 C 134.44781 158.99974 134.47062 158.60296 132.91375 138.78796 C 130.92658 113.4962 134.27903 92.26542699999999 143.13217 74.075676 C 152.23162 55.379835 167.56889 42.88208 189.04934 36.659507000000005 C 210.20334 30.531504000000005 237.79666 30.531504000000005 258.95065999999997 36.659507000000005 C 300.04166 48.562968000000005 318.95842 83.80634 314.95504999999997 141 C 314.31982999999997 150.075 313.62402 157.78816 313.4088 158.14035 C 313.19359 158.49254000000002 314.57532 159.07295000000002 316.47931 159.43014000000002 C 328.92867 161.76565000000002 330.98619 177.01772000000003 321.49638 196.62092 C 316.90319 206.10912000000002 309.35724 214.50797 304.81732 215.18517000000003 C 303.02259 215.45289000000002 302.2931 217.14618000000002 299.94277999999997 226.50000000000003 C 296.65948 239.56693 294.47402 245.30522000000002 287.94764 257.99534000000006 C 282.49071999999995 268.60596000000004 273.03466 281.10922000000005 268.10756999999995 284.2288300000001 L 264.87062 286.27832000000006 L 265.51815999999997 292.88916000000006 C 266.34490999999997 301.32961000000006 268.63948999999997 309.8706000000001 270.87735999999995 312.83742000000007 C 272.06735 314.4150200000001 275.00244999999995 315.78963000000005 280.0630699999999 317.13941000000005 C 291.06929999999994 320.0750300000001 303.61700999999994 325.27420000000006 320.99999999999994 334.10171 C 369.81470999999993 358.89104000000003 410.84810999999996 393.75797 425.03216 422.5 C 429.06985999999995 430.68183 432 440.23198 432 445.2101 L 432 448 L 224 448 L 16 448 L 16 445.2101 Z"/></g></g></g><g transform="matrix(1,0,0,1,4.039999999999992,13.680000000000007)"><g transform="matrix(0.04,0,0,0.04,63.36,69.12)"><g transform="matrix(1,0,0,1,0,0)"><path fill="none" stroke="none"/></g><g transform="matrix(1,0,0,1,0,0)"><path fill="none" stroke="none"/></g></g></g><g transform="matrix(1,0,0,1,37.80078125,36)"><text fill="#000000" stroke="none" font-family="Open Sans" font-size="12pt" font-style="normal" font-weight="normal" text-decoration="normal" x="39.19921875" y="12" text-anchor="middle" dominant-baseline="alphabetic"> Planting   </text><text fill="#000000" stroke="none" font-family="Open Sans" font-size="12pt" font-style="normal" font-weight="normal" text-decoration="normal" x="39.19921875" y="27" text-anchor="middle" dominant-baseline="alphabetic">Technician</text></g></g><g id="_D1DBC370-0685-4C55-ADCD-818769708967" bpmn2nodeid="_D1DBC370-0685-4C55-ADCD-818769708967" transform="matrix(1,0,0,1,301.5,49)"><g><path fill="none" stroke="none"/></g><g transform="matrix(1,0,0,1,0,0)"><path fill="#ffffff" stroke="none" id="_D1DBC370-0685-4C55-ADCD-818769708967?shapeType=BACKGROUND" paint-order="stroke fill markers" d=" M 2 0 L 152 0 L 152 0 A 2 2 0 0 1 154 2 L 154 100 L 154 100 A 2 2 0 0 1 152 102 L 2 102 L 2 102 A 2 2 0 0 1 0 100 L 0 2 L 0 2.0000000000000004 A 2 2 0 0 1 1.9999999999999996 0 Z"/></g><g transform="matrix(1,0,0,1,0,0)"><path fill="none" stroke="rgb(0,0,0)" id="_D1DBC370-0685-4C55-ADCD-818769708967?shapeType=BORDER&amp;renderType=STROKE" paint-order="fill stroke markers" d=" M 2 0 L 152 0 L 152 0 A 2 2 0 0 1 154 2 L 154 100 L 154 100 A 2 2 0 0 1 152 102 L 2 102 L 2 102 A 2 2 0 0 1 0 100 L 0 2 L 0 2.0000000000000004 A 2 2 0 0 1 1.9999999999999996 0 Z" stroke-miterlimit="10" stroke-width="1.5" stroke-dasharray=""/></g><g transform="matrix(1,0,0,1,25.35546875,28.5)"><text fill="#000000" stroke="none" font-family="Open Sans" font-size="12pt" font-style="normal" font-weight="normal" text-decoration="normal" x="51.64453125" y="12" text-anchor="middle" dominant-baseline="alphabetic">Create Weed  </text><text fill="#000000" stroke="none" font-family="Open Sans" font-size="12pt" font-style="normal" font-weight="normal" text-decoration="normal" x="51.64453125" y="27" text-anchor="middle" dominant-baseline="alphabetic">Management </text><text fill="#000000" stroke="none" font-family="Open Sans" font-size="12pt" font-style="normal" font-weight="normal" text-decoration="normal" x="51.64453125" y="42" text-anchor="middle" dominant-baseline="alphabetic">  ProjectLine   </text></g></g><g id="_EA3F556C-28CC-46AF-95A6-0B6B3CB1EEFC" bpmn2nodeid="_EA3F556C-28CC-46AF-95A6-0B6B3CB1EEFC" transform="matrix(1,0,0,1,511.5,49)"><g><path fill="none" stroke="none"/></g><g transform="matrix(1,0,0,1,0,0)"><path fill="#ffffff" stroke="none" id="_EA3F556C-28CC-46AF-95A6-0B6B3CB1EEFC?shapeType=BACKGROUND" paint-order="stroke fill markers" d=" M 2 0 L 152 0 L 152 0 A 2 2 0 0 1 154 2 L 154 100 L 154 100 A 2 2 0 0 1 152 102 L 2 102 L 2 102 A 2 2 0 0 1 0 100 L 0 2 L 0 2.0000000000000004 A 2 2 0 0 1 1.9999999999999996 0 Z"/></g><g transform="matrix(1,0,0,1,0,0)"><path fill="none" stroke="rgb(0,0,0)" id="_EA3F556C-28CC-46AF-95A6-0B6B3CB1EEFC?shapeType=BORDER&amp;renderType=STROKE" paint-order="fill stroke markers" d=" M 2 0 L 152 0 L 152 0 A 2 2 0 0 1 154 2 L 154 100 L 154 100 A 2 2 0 0 1 152 102 L 2 102 L 2 102 A 2 2 0 0 1 0 100 L 0 2 L 0 2.0000000000000004 A 2 2 0 0 1 1.9999999999999996 0 Z" stroke-miterlimit="10" stroke-width="1.5" stroke-dasharray=""/></g><g transform="matrix(1,0,0,1,25.35546875,28.5)"><text fill="#000000" stroke="none" font-family="Open Sans" font-size="12pt" font-style="normal" font-weight="normal" text-decoration="normal" x="51.64453125" y="12" text-anchor="middle" dominant-baseline="alphabetic">Create Weed  </text><text fill="#000000" stroke="none" font-family="Open Sans" font-size="12pt" font-style="normal" font-weight="normal" text-decoration="normal" x="51.64453125" y="27" text-anchor="middle" dominant-baseline="alphabetic">Management </text><text fill="#000000" stroke="none" font-family="Open Sans" font-size="12pt" font-style="normal" font-weight="normal" text-decoration="normal" x="51.64453125" y="42" text-anchor="middle" dominant-baseline="alphabetic">      Project      </text></g></g><g id="_E63D5531-06A3-4A27-891E-CDC21FD2824A" bpmn2nodeid="_E63D5531-06A3-4A27-891E-CDC21FD2824A" transform="matrix(1,0,0,1,735.5,49)"><g><path fill="none" stroke="none"/></g><g transform="matrix(1,0,0,1,0,0)"><path fill="#ffffff" stroke="none" id="_E63D5531-06A3-4A27-891E-CDC21FD2824A?shapeType=BACKGROUND" paint-order="stroke fill markers" d=" M 2 0 L 152 0 L 152 0 A 2 2 0 0 1 154 2 L 154 100 L 154 100 A 2 2 0 0 1 152 102 L 2 102 L 2 102 A 2 2 0 0 1 0 100 L 0 2 L 0 2.0000000000000004 A 2 2 0 0 1 1.9999999999999996 0 Z"/></g><g transform="matrix(1,0,0,1,0,0)"><path fill="none" stroke="rgb(0,0,0)" id="_E63D5531-06A3-4A27-891E-CDC21FD2824A?shapeType=BORDER&amp;renderType=STROKE" paint-order="fill stroke markers" d=" M 2 0 L 152 0 L 152 0 A 2 2 0 0 1 154 2 L 154 100 L 154 100 A 2 2 0 0 1 152 102 L 2 102 L 2 102 A 2 2 0 0 1 0 100 L 0 2 L 0 2.0000000000000004 A 2 2 0 0 1 1.9999999999999996 0 Z" stroke-miterlimit="10" stroke-width="1.5" stroke-dasharray=""/></g><g transform="matrix(1,0,0,1,14.43359375,28.5)"><text fill="#000000" stroke="none" font-family="Open Sans" font-size="12pt" font-style="normal" font-weight="normal" text-decoration="normal" x="62.56640625" y="12" text-anchor="middle" dominant-baseline="alphabetic">   Create Weed    </text><text fill="#000000" stroke="none" font-family="Open Sans" font-size="12pt" font-style="normal" font-weight="normal" text-decoration="normal" x="62.56640625" y="27" text-anchor="middle" dominant-baseline="alphabetic">  Management    </text><text fill="#000000" stroke="none" font-family="Open Sans" font-size="12pt" font-style="normal" font-weight="normal" text-decoration="normal" x="62.56640625" y="42" text-anchor="middle" dominant-baseline="alphabetic">Operational Task</text></g></g><g id="_902F70C3-069C-4C51-A332-3F4065008656" bpmn2nodeid="_902F70C3-069C-4C51-A332-3F4065008656" transform="matrix(1,0,0,1,960,49)"><g><path fill="none" stroke="none"/></g><g transform="matrix(1,0,0,1,0,0)"><path fill="#ffffff" stroke="none" id="_902F70C3-069C-4C51-A332-3F4065008656?shapeType=BACKGROUND" paint-order="stroke fill markers" d=" M 2 0 L 152 0 L 152 0 A 2 2 0 0 1 154 2 L 154 100 L 154 100 A 2 2 0 0 1 152 102 L 2 102 L 2 102 A 2 2 0 0 1 0 100 L 0 2 L 0 2.0000000000000004 A 2 2 0 0 1 1.9999999999999996 0 Z"/></g><g transform="matrix(1,0,0,1,0,0)"><path fill="none" stroke="rgb(255,0,0)" id="_902F70C3-069C-4C51-A332-3F4065008656?shapeType=BORDER&amp;renderType=STROKE" paint-order="fill stroke markers" d=" M 2 0 L 152 0 L 152 0 A 2 2 0 0 1 154 2 L 154 100 L 154 100 A 2 2 0 0 1 152 102 L 2 102 L 2 102 A 2 2 0 0 1 0 100 L 0 2 L 0 2.0000000000000004 A 2 2 0 0 1 1.9999999999999996 0 Z" stroke-miterlimit="10" stroke-width="1.5" stroke-dasharray=""/></g><g transform="matrix(1,0,0,1,2.1796875,21)"><text fill="#000000" stroke="none" font-family="Open Sans" font-size="12pt" font-style="normal" font-weight="normal" text-decoration="normal" x="74.8203125" y="12" text-anchor="middle" dominant-baseline="alphabetic">     Manage Crop       </text><text fill="#000000" stroke="none" font-family="Open Sans" font-size="12pt" font-style="normal" font-weight="normal" text-decoration="normal" x="74.8203125" y="27" text-anchor="middle" dominant-baseline="alphabetic">            Weed              </text><text fill="#000000" stroke="none" font-family="Open Sans" font-size="12pt" font-style="normal" font-weight="normal" text-decoration="normal" x="74.8203125" y="42" text-anchor="middle" dominant-baseline="alphabetic">Management Opera</text><text fill="#000000" stroke="none" font-family="Open Sans" font-size="12pt" font-style="normal" font-weight="normal" text-decoration="normal" x="74.8203125" y="57" text-anchor="middle" dominant-baseline="alphabetic">         tionalTask         </text></g></g><g id="_59636CAC-28F9-4553-8424-243FFB943CE8" bpmn2nodeid="_59636CAC-28F9-4553-8424-243FFB943CE8" transform="matrix(1,0,0,1,1177,49)"><g><path fill="none" stroke="none"/></g><g transform="matrix(1,0,0,1,0,0)"><path fill="#ffffff" stroke="none" id="_59636CAC-28F9-4553-8424-243FFB943CE8?shapeType=BACKGROUND" paint-order="stroke fill markers" d=" M 2 0 L 152 0 L 152 0 A 2 2 0 0 1 154 2 L 154 100 L 154 100 A 2 2 0 0 1 152 102 L 2 102 L 2 102 A 2 2 0 0 1 0 100 L 0 2 L 0 2.0000000000000004 A 2 2 0 0 1 1.9999999999999996 0 Z"/></g><g transform="matrix(1,0,0,1,0,0)"><path fill="none" stroke="rgb(0,0,0)" id="_59636CAC-28F9-4553-8424-243FFB943CE8?shapeType=BORDER&amp;renderType=STROKE" paint-order="fill stroke markers" d=" M 2 0 L 152 0 L 152 0 A 2 2 0 0 1 154 2 L 154 100 L 154 100 A 2 2 0 0 1 152 102 L 2 102 L 2 102 A 2 2 0 0 1 0 100 L 0 2 L 0 2.0000000000000004 A 2 2 0 0 1 1.9999999999999996 0 Z" stroke-miterlimit="10" stroke-width="1.5" stroke-dasharray=""/></g><g transform="matrix(1,0,0,1,6.41015625,28.5)"><text fill="#000000" stroke="none" font-family="Open Sans" font-size="12pt" font-style="normal" font-weight="normal" text-decoration="normal" x="70.58984375" y="12" text-anchor="middle" dominant-baseline="alphabetic">Return Crop Weed </text><text fill="#000000" stroke="none" font-family="Open Sans" font-size="12pt" font-style="normal" font-weight="normal" text-decoration="normal" x="70.58984375" y="27" text-anchor="middle" dominant-baseline="alphabetic">    Management      </text><text fill="#000000" stroke="none" font-family="Open Sans" font-size="12pt" font-style="normal" font-weight="normal" text-decoration="normal" x="70.58984375" y="42" text-anchor="middle" dominant-baseline="alphabetic">  Operational Task  </text></g></g></g><g id="_9574DB59-630F-4413-AA2D-89EA30DE3916" bpmn2nodeid="_9574DB59-630F-4413-AA2D-89EA30DE3916"><g><path fill="none" stroke="#000000" paint-order="fill stroke markers" d=" M 108.99999833756384 224 L 108.99998474121094 453 L 292.00019130332026 452.075756603741" stroke-miterlimit="10" stroke-dasharray=""/></g><g transform="matrix(1,0,0,1,108.99999833756384,224)"/><g transform="matrix(0.005050440249400907,0.999987246445317,-0.999987246445317,0.005050440249400907,306.974747798753,447.00006376777344)"><path fill="#000000" stroke="#000000" paint-order="fill stroke markers" d=" M 10 15 L 0 15 L 5 0 Z" stroke-miterlimit="10" stroke-dasharray=""/></g><g transform="matrix(1,0,0,1,118.99998560211536,338.4999994062728)"/></g><g transform="matrix(1,0,0,1,233,352)"/><g transform="matrix(1,0,0,1,307,401)"/><g id="_44DF3B37-1B24-4DD5-AC07-E65ADAD0EBB6" bpmn2nodeid="_44DF3B37-1B24-4DD5-AC07-E65ADAD0EBB6" transform="matrix(1,0,0,1,0,0)"><g><path fill="none" stroke="rgb(0,0,0)" paint-order="fill stroke markers" d=" M 461 452 L 519.5 452" stroke-miterlimit="10" stroke-dasharray=""/></g><g transform="matrix(1,0,0,1,461,452)"/><g transform="matrix(6.123233995736766e-17,1,-1,6.123233995736766e-17,534.5,447)"><path fill="rgb(0,0,0)" stroke="rgb(0,0,0)" paint-order="fill stroke markers" d=" M 10 15 L 0 15 L 5 0 Z" stroke-miterlimit="10" stroke-dasharray=""/></g><g transform="matrix(1,0,0,1,461,442)"/></g><g transform="matrix(1,0,0,1,534.5,401)"/><g id="_00C78A43-F5FB-4B7D-BC46-58C20BE89A0A" bpmn2nodeid="_00C78A43-F5FB-4B7D-BC46-58C20BE89A0A"><g><path fill="none" stroke="rgb(0,0,0)" paint-order="fill stroke markers" d=" M 688.5 452 L 729.5 452" stroke-miterlimit="10" stroke-dasharray=""/></g><g transform="matrix(1,0,0,1,688.5,452)"/><g transform="matrix(6.123233995736766e-17,1,-1,6.123233995736766e-17,744.5,447)"><path fill="rgb(0,0,0)" stroke="rgb(0,0,0)" paint-order="fill stroke markers" d=" M 10 15 L 0 15 L 5 0 Z" stroke-miterlimit="10" stroke-dasharray=""/></g><g transform="matrix(1,0,0,1,688.5,442)"/></g><g transform="matrix(1,0,0,1,744.5,401)"/><g id="_744E5ACD-7818-43F4-8F4B-4204D5087B29" bpmn2nodeid="_744E5ACD-7818-43F4-8F4B-4204D5087B29"><g><path fill="none" stroke="rgb(0,0,0)" paint-order="fill stroke markers" d=" M 898.5 452 L 953.5 452" stroke-miterlimit="10" stroke-dasharray=""/></g><g transform="matrix(1,0,0,1,898.5,452)"/><g transform="matrix(6.123233995736766e-17,1,-1,6.123233995736766e-17,968.5,447)"><path fill="rgb(0,0,0)" stroke="rgb(0,0,0)" paint-order="fill stroke markers" d=" M 10 15 L 0 15 L 5 0 Z" stroke-miterlimit="10" stroke-dasharray=""/></g><g transform="matrix(1,0,0,1,898.5,442)"/></g><g transform="matrix(1,0,0,1,968.5,401)"/><g id="_C0EF14B7-3E84-490F-9B66-E379D933DFDF" bpmn2nodeid="_C0EF14B7-3E84-490F-9B66-E379D933DFDF"><g><path fill="none" stroke="rgb(0,0,0)" paint-order="fill stroke markers" d=" M 1122.5 452 L 1178 452" stroke-miterlimit="10" stroke-dasharray=""/></g><g transform="matrix(1,0,0,1,1122.5,452)"/><g transform="matrix(6.123233995736766e-17,1,-1,6.123233995736766e-17,1193,447)"><path fill="rgb(0,0,0)" stroke="rgb(0,0,0)" paint-order="fill stroke markers" d=" M 10 15 L 0 15 L 5 0 Z" stroke-miterlimit="10" stroke-dasharray=""/></g><g transform="matrix(1,0,0,1,1122.5,442)"/></g><g transform="matrix(1,0,0,1,1193,401)"/><g id="_15586186-0FAE-4722-B435-7759657035DC" bpmn2nodeid="_15586186-0FAE-4722-B435-7759657035DC"><g><path fill="none" stroke="rgb(0,0,0)" paint-order="fill stroke markers" d=" M 1347 452 L 1395 452" stroke-miterlimit="10" stroke-dasharray=""/></g><g transform="matrix(1,0,0,1,1347,452)"/><g transform="matrix(6.123233995736766e-17,1,-1,6.123233995736766e-17,1410,447)"><path fill="rgb(0,0,0)" stroke="rgb(0,0,0)" paint-order="fill stroke markers" d=" M 10 15 L 0 15 L 5 0 Z" stroke-miterlimit="10" stroke-dasharray=""/></g><g transform="matrix(1,0,0,1,1347,442)"/></g><g transform="matrix(1,0,0,1,1410,401)"/><g id="_8097BC9B-3033-434D-988B-29E036251F81" bpmn2nodeid="_8097BC9B-3033-434D-988B-29E036251F81"><g><path fill="none" stroke="rgb(0,0,0)" paint-order="fill stroke markers" d=" M 1486.9999999859504 401 L 1486.999999923967 176 L 1506 176" stroke-miterlimit="10" stroke-dasharray=""/></g><g transform="matrix(1,0,0,1,1486.9999999859504,401)"/><g transform="matrix(6.123233995736766e-17,1,-1,6.123233995736766e-17,1521,171)"><path fill="rgb(0,0,0)" stroke="rgb(0,0,0)" paint-order="fill stroke markers" d=" M 10 15 L 0 15 L 5 0 Z" stroke-miterlimit="10" stroke-dasharray=""/></g><g transform="matrix(1,0,0,1,1496.9999999274105,288.4999999972452)"/></g></g></g></svg>